<svg width="120" height="120" viewBox="0 0 120 120" fill="none" xmlns="http://www.w3.org/2000/svg">
<g clip-path="url(#clip0_4_1047)">
<path d="M103.047 44.7744C94.958 44.7744 80.6152 51.3318 80.6152 59.42C80.6152 67.5083 94.9582 74.0657 103.047 74.0657C111.135 74.0657 117.692 67.5083 117.692 59.42C117.692 51.3318 111.135 44.7744 103.047 44.7744Z" fill="#FF9811"/>
<path d="M74.6316 16.4281C74.6316 24.5168 68.0742 38.8599 59.9859 38.8599C51.8977 38.8599 45.3403 24.5168 45.3403 16.4281C45.3403 8.33934 51.8972 1.78223 59.9859 1.78223C68.0747 1.78223 74.6316 8.33934 74.6316 16.4281Z" fill="#FF9811"/>
<path d="M74.6316 103.572C74.6316 95.4834 68.0742 81.1406 59.9859 81.1406C51.8977 81.1406 45.3403 95.4837 45.3403 103.572C45.3403 111.661 51.8972 118.218 59.9859 118.218C68.0747 118.218 74.6316 111.661 74.6316 103.572Z" fill="#FF9811"/>
<path d="M16.9535 44.7744C25.0423 44.7744 39.3853 51.3318 39.3853 59.42C39.3853 67.5083 25.0423 74.0657 16.9535 74.0657C8.86477 74.0657 2.30789 67.5088 2.30789 59.4203C2.30789 51.3318 8.865 44.7744 16.9535 44.7744Z" fill="#FF9811"/>
<path d="M93.4591 21.9681C85.6964 24.2416 73.7747 34.5656 76.0479 42.3283C78.3213 50.091 93.9291 52.3525 101.692 50.0791C109.455 47.8056 113.904 39.67 111.631 31.9073C109.358 24.1446 101.222 19.6949 93.4591 21.9681Z" fill="#EE8700"/>
<path d="M50.2697 17.23C52.6542 24.9592 50.6166 40.5979 42.8873 42.9822C35.1581 45.3665 24.6642 33.5938 22.2797 25.8646C19.8952 18.1354 24.228 9.93672 31.9573 7.55219C39.6865 5.16766 47.8854 9.50078 50.2697 17.23Z" fill="#EE8700"/>
<path d="M26.5123 94.5937C34.275 92.3202 46.1967 81.9962 43.9235 74.2335C41.6503 66.4708 26.0423 64.2093 18.2796 66.4827C10.5169 68.7562 6.06726 76.8918 8.34047 84.6545C10.6137 92.4173 18.7495 96.8671 26.5123 94.5937Z" fill="#EE8700"/>
<path d="M69.7017 99.3319C67.3172 91.6027 69.3548 75.964 77.0841 73.5797C84.8133 71.1952 95.3072 82.968 97.6917 90.6973C100.076 98.4265 95.7434 106.625 88.0141 109.01C80.2849 111.394 72.0863 107.061 69.7017 99.3319Z" fill="#EE8700"/>
<path d="M69.7017 17.23C67.3172 24.9592 69.3548 40.5979 77.0841 42.9822C84.8133 45.3665 95.3072 33.5938 97.6917 25.8646C100.076 18.1354 95.7434 9.93672 88.0141 7.55219C80.2849 5.16766 72.0863 9.50078 69.7017 17.23Z" fill="#CC7400"/>
<path d="M26.5123 21.9681C34.275 24.2416 46.1967 34.5656 43.9235 42.3283C41.6503 50.091 26.0423 52.3525 18.2796 50.0791C10.5169 47.8056 6.06726 39.67 8.34047 31.9073C10.6137 24.1446 18.7495 19.6949 26.5123 21.9681Z" fill="#CC7400"/>
<path d="M50.2697 99.3319C52.6542 91.6027 50.6166 75.964 42.8873 73.5797C35.1581 71.1952 24.6642 82.968 22.2797 90.6973C19.8952 98.4265 24.228 106.625 31.9573 109.01C39.6867 111.394 47.8854 107.061 50.2697 99.3319Z" fill="#CC7400"/>
<path d="M93.4591 94.5937C85.6964 92.3202 73.7747 81.9962 76.0479 74.2335C78.3213 66.4708 93.9291 64.2093 101.692 66.4827C109.455 68.7562 113.904 76.8918 111.631 84.6545C109.358 92.417 101.222 96.8671 93.4591 94.5937Z" fill="#CC7400"/>
<path d="M86.0627 53.9101C80.343 59.6298 65.5645 65.135 59.8451 59.4155C54.1256 53.6961 59.6311 38.9173 65.3505 33.1979C71.07 27.4784 80.3433 27.4782 86.0627 33.1979C91.782 38.9173 91.782 48.1906 86.0627 53.9101Z" fill="#FFA733"/>
<path d="M54.3394 85.6328C60.0591 79.9131 65.5643 65.1346 59.8448 59.4151C54.1254 53.6957 39.3466 59.2011 33.6272 64.9206C27.9077 70.64 27.9075 79.9133 33.6272 85.6328C39.3469 91.3522 48.6202 91.3525 54.3394 85.6328Z" fill="#FFA733"/>
<path d="M54.3394 33.1978C60.0591 38.9175 65.5643 53.696 59.8448 59.4154C54.1254 65.1349 39.3466 59.6294 33.6272 53.91C27.9077 48.1905 27.9075 38.9172 33.6272 33.1978C39.3469 27.4783 48.6202 27.4783 54.3394 33.1978Z" fill="#FFA733"/>
<path d="M86.0627 64.9206C80.343 59.2009 65.5645 53.6957 59.8451 59.4152C54.1256 65.1346 59.6311 79.9134 65.3505 85.6328C71.07 91.3523 80.3433 91.3525 86.0627 85.6328C91.782 79.9134 91.782 70.6401 86.0627 64.9206Z" fill="#FFA733"/>
<path d="M74.6316 36.9886C74.6316 45.0774 68.0742 59.4204 59.9859 59.4204C51.8977 59.4204 45.3403 45.0774 45.3403 36.9886C45.3403 28.8999 51.8972 22.3428 59.9859 22.3428C68.0747 22.3428 74.6316 28.8999 74.6316 36.9886Z" fill="#FFC477"/>
<path d="M74.6316 81.8517C74.6316 73.763 68.0742 59.4199 59.9859 59.4199C51.8977 59.4199 45.3403 73.763 45.3403 81.8517C45.3403 89.9405 51.8977 96.4973 59.9859 96.4973C68.0742 96.4973 74.6316 89.9405 74.6316 81.8517Z" fill="#FFC477"/>
<path d="M37.5541 44.7744C45.6429 44.7744 59.9859 51.3318 59.9859 59.42C59.9859 67.5083 45.6429 74.0657 37.5541 74.0657C29.4654 74.0657 22.9085 67.5083 22.9085 59.42C22.9085 51.3318 29.4654 44.7744 37.5541 44.7744Z" fill="#FFB655"/>
<path d="M82.4173 44.7744C74.3285 44.7744 59.9855 51.3318 59.9855 59.42C59.9855 67.5083 74.3285 74.0657 82.4173 74.0657C90.506 74.0657 97.0629 67.5083 97.0629 59.42C97.0629 51.3318 90.506 44.7744 82.4173 44.7744Z" fill="#FFB655"/>
<path d="M60.0002 65.1711C62.8561 65.1711 65.1712 62.856 65.1712 60.0001C65.1712 57.1442 62.8561 54.8291 60.0002 54.8291C57.1444 54.8291 54.8292 57.1442 54.8292 60.0001C54.8292 62.856 57.1444 65.1711 60.0002 65.1711Z" fill="#FFA733"/>
<path d="M119.475 59.4202C119.475 53.4816 116.29 48.0729 111.222 45.1678C111.494 44.7607 115.307 38.5179 113.341 31.4072C111.628 25.2108 106.296 20.7291 100.034 19.7805C99.8133 17.7408 99.2088 15.7404 98.2212 13.8717C96.1709 9.99234 92.7359 7.13227 88.5396 5.84953C80.5545 3.40898 74.7663 7.74422 74.1825 8.15742C71.2629 3.14813 65.8748 0 59.9857 0C54.0977 0 48.7087 3.14836 45.7891 8.15719C45.2053 7.74398 39.5646 3.34969 31.4323 5.8493C30.4915 6.13852 29.9644 7.13719 30.2545 8.07773C30.5447 9.01828 31.5422 9.54492 32.4827 9.25547C35.7663 8.2425 39.2473 8.56852 42.2852 10.1745C45.323 11.7799 47.5537 14.4722 48.5667 17.7553C49.1208 19.5509 49.4212 21.8946 49.4271 24.416C48.4012 25.2788 47.4837 26.2648 46.6941 27.3504C44.1584 26.9243 41.6121 27.0977 39.229 27.8182C35.5228 24.2634 30.9155 21.4012 27.0129 20.2584C25.8715 19.9242 24.7134 19.7203 23.5549 19.6359C24 16.7053 25.4545 13.973 27.6787 11.973C28.4107 11.3149 28.4705 10.188 27.8126 9.45609C27.1547 8.72414 26.0278 8.66438 25.2956 9.32227C22.2886 12.0263 20.3836 15.7802 19.9451 19.7733C18.0654 20.058 9.6832 21.8841 6.63 31.4067C5.10351 36.168 6.10453 41.2298 8.75437 45.1821C3.69961 48.0902 0.525467 53.4858 0.525467 59.4202C0.525467 64.9479 3.26367 70.0151 7.77914 73.0493C5.85117 76.8063 5.4382 81.0865 6.63 85.155C8.42437 91.2823 13.6877 95.8289 19.9373 96.7828C20.1586 98.8221 20.7628 100.822 21.7502 102.69C23.8005 106.57 27.3061 109.218 31.432 110.712C36.4179 112.518 44.3541 109.317 44.5521 109.202C46.8802 115.584 53.0152 120 59.9859 120C66.9314 120 73.0875 115.577 75.4191 109.202C77.4258 110.458 81.037 111.45 83.6766 111.45C85.3041 111.45 86.9402 111.206 88.5398 110.712C89.4804 110.422 90.0077 109.424 89.7176 108.484C89.4274 107.543 88.4311 107.017 87.4891 107.306C84.206 108.319 80.7241 107.993 77.6866 106.387C74.6489 104.782 72.4179 102.09 71.4052 98.8064C71.0205 97.5602 70.7545 96.0239 70.6287 94.3512C71.6107 93.5138 72.4934 92.5641 73.2558 91.5204C74.0742 91.6434 74.8941 91.7062 75.7092 91.7062C78.0396 91.7062 80.3292 91.2068 82.4344 90.2616C89.228 96.4976 95.258 96.8456 96.4167 96.93C95.9548 99.9909 94.4004 102.81 92.0095 104.836C91.2584 105.472 91.0995 106.658 91.8016 107.348C92.8716 108.399 93.9785 107.839 94.3134 107.556C97.5403 104.822 99.5735 100.956 100.027 96.7891C101.907 96.5044 103.742 95.8901 105.459 94.9507C109.309 92.8451 112.108 89.3663 113.342 85.1552C114.532 81.0916 114.122 76.8176 112.2 73.0638C116.728 70.031 119.475 64.9566 119.475 59.4202ZM115.91 59.4202C115.91 63.7411 113.773 67.7025 110.248 70.0807C108.174 67.557 105.397 65.7105 102.193 64.7723C101.013 64.4269 99.6567 64.1761 98.1942 64.0254C98.6175 62.5594 98.8453 61.0139 98.8453 59.4202C98.8453 56.9913 98.3114 54.6865 97.3612 52.6102C99.1423 52.4775 100.786 52.2016 102.193 51.7898C104.736 51.0452 107.01 49.7259 108.877 47.952C113.175 50.1375 115.91 54.551 115.91 59.4202ZM77.6864 10.1745C80.7239 8.56852 84.2048 8.24227 87.4889 9.25547C90.7723 10.2682 93.4645 12.499 95.0698 15.537C96.6752 18.5749 97.0015 22.0561 95.9885 25.3395C95.6984 26.28 96.2283 27.2693 97.1662 27.5679C98.3466 27.9436 99.1584 27.1559 99.3947 26.3902C99.6996 25.4018 99.9061 24.3994 100.022 23.3934C104.693 24.2998 108.556 27.7491 109.921 32.4087C110.886 35.7059 110.51 39.1821 108.862 42.1966C107.213 45.2112 104.489 47.4033 101.191 48.3689C99.5529 48.8487 97.4869 49.113 95.2144 49.1351C94.2708 47.9637 93.1702 46.9249 91.9444 46.0493C92.3287 43.5623 92.1394 41.0698 91.4234 38.7354C93.2984 36.8716 95.0273 34.7238 96.4641 32.4677C96.9928 31.6376 96.7484 30.5358 95.918 30.0073C95.0878 29.4788 93.9863 29.7232 93.4575 30.5534C92.4091 32.1998 91.1873 33.7781 89.8659 35.2106C89.1694 34.0348 88.3198 32.9344 87.3232 31.9378C83.6161 28.2309 78.4071 26.5338 73.2504 27.312C72.4671 26.2413 71.558 25.2684 70.5443 24.4158C70.5504 21.8977 70.8532 19.5443 71.4052 17.7553C72.4177 14.472 74.6487 11.7797 77.6864 10.1745ZM71.0062 73.1824C72.1802 76.2823 72.8496 79.4156 72.8496 81.8517C72.8496 88.9448 67.0788 94.7154 59.9859 94.7154C52.893 94.7154 47.1225 88.9446 47.1225 81.8517C47.1225 79.4048 47.7942 76.2656 48.975 73.1562C55.6638 70.181 58.893 66.3626 58.9385 66.2925C59.2847 66.3457 59.6395 66.3736 60.0005 66.3736C60.3455 66.3736 60.6844 66.3473 61.016 66.2988C63.4973 69.2391 67.2068 71.5648 71.0062 73.1824ZM24.6905 59.4202C24.6905 52.327 30.4612 46.5565 37.5539 46.5565C43.0125 46.5565 51.2972 49.7259 55.5476 54.0846C54.0206 55.361 53.047 57.2787 53.047 59.4202C53.047 61.5595 54.019 63.4755 55.5434 64.752C51.1718 69.2201 42.7455 72.2838 37.5541 72.2838C30.461 72.2838 24.6905 66.513 24.6905 59.4202ZM60.0002 62.809C58.1316 62.809 56.6114 61.2888 56.6114 59.4199C56.6114 57.551 58.1316 56.0309 60.0002 56.0309C61.8689 56.0309 63.3893 57.551 63.3893 59.4199C63.3893 61.2888 61.8689 62.809 60.0002 62.809ZM61.0155 52.5417C60.6839 52.493 60.345 52.467 60.0002 52.467C59.6428 52.467 59.292 52.4944 58.9491 52.5464C56.5833 49.7651 52.9027 47.3754 48.9745 45.6818C47.7947 42.574 47.1223 39.4317 47.1223 36.9888C47.1223 29.8957 52.893 24.1252 59.9857 24.1252C67.0784 24.1252 72.8494 29.8959 72.8494 36.9888C72.8494 39.423 72.183 42.548 71.0121 45.6438C67.0962 47.3198 63.4099 49.7041 61.0155 52.5417ZM75.1631 30.7076C78.7355 30.5559 82.2307 31.8867 84.8023 34.4585C87.4116 37.0676 88.7377 40.5844 88.5539 44.1855C86.6564 43.4184 84.5864 42.9919 82.4175 42.9919C80.288 42.9919 77.8109 43.3938 75.2709 44.1248C76.0085 41.5685 76.4138 39.0804 76.4138 36.9884C76.4138 34.7648 75.9675 32.6437 75.1631 30.7076ZM51.9727 16.7046C51.263 14.4035 50.0819 12.3319 48.5219 10.59C50.7091 6.2993 55.1302 3.56414 59.9857 3.56414C64.8422 3.56414 69.2625 6.29906 71.4497 10.59C69.8897 12.3319 68.7087 14.4033 67.999 16.7046C67.5117 18.2841 67.197 20.1413 67.0596 22.1637C64.916 21.1366 62.5169 20.5601 59.9857 20.5601C57.4559 20.5601 55.0587 21.1359 52.916 22.1616C52.7794 20.1415 52.4618 18.2892 51.9727 16.7046ZM44.8036 30.72C44.0025 32.6529 43.5579 34.7695 43.5579 36.9888C43.5579 39.0848 43.9655 41.5805 44.7061 44.1431C42.1704 43.4041 39.6926 42.9921 37.5541 42.9921C35.2791 42.9921 33.1109 43.4576 31.1388 44.2973C30.9209 40.6575 32.2495 37.0964 34.8877 34.4585C37.5422 31.8035 41.1368 30.4791 44.8036 30.72ZM4.09008 59.4202C4.09008 54.5538 6.81515 50.1495 11.1035 47.9611C11.9611 48.7718 12.9148 49.5005 13.9605 50.1251C14.247 50.2962 15.4059 50.9196 16.4046 49.5089C16.9732 48.7055 16.6334 47.5699 15.7884 47.0651C10.7623 44.0627 8.40258 38.0358 10.0507 32.4084C11.0163 29.111 13.2084 26.3869 16.223 24.7383C19.238 23.0897 22.7137 22.7135 26.0112 23.6789C28.9798 24.5484 32.5884 26.7061 35.6573 29.3845C34.4752 30.083 33.3689 30.9366 32.3672 31.9383C28.5811 35.7244 26.9048 40.9983 27.7732 46.2305C26.6496 47.0658 25.638 48.0424 24.7603 49.1316C23.3606 49.1205 22.0329 49.0172 20.8188 48.8208C19.8471 48.6642 18.9323 49.324 18.7751 50.2957C18.6178 51.2674 19.2783 52.1824 20.25 52.3397C21.0049 52.4618 21.7934 52.5525 22.609 52.6132C21.6598 54.6888 21.1263 56.993 21.1263 59.4206C21.1263 61.0191 21.3602 62.5629 21.788 64.0252C20.3215 64.1759 18.9605 64.4264 17.779 64.7728C14.5805 65.7094 11.8066 67.5511 9.73406 70.0685C6.21937 67.6882 4.09008 63.7334 4.09008 59.4202ZM10.0509 84.1533C9.08531 80.8559 9.46148 77.3796 11.1103 74.3651C12.7591 71.3505 15.483 69.1587 18.7807 68.1928C20.0395 67.8241 21.5707 67.5818 23.2479 67.4801C24.3846 69.4898 25.9296 71.2394 27.7739 72.6103C27.4472 74.5994 27.4889 76.5991 27.8749 78.5203C24.4852 82.0856 21.7078 86.5069 20.5772 90.1716C20.272 91.1602 20.0658 92.1628 19.9498 93.169C15.2864 92.2566 11.4059 88.7801 10.0509 84.1533ZM32.4827 107.306C29.1994 106.294 26.5071 104.063 24.9019 101.025C23.2964 97.987 22.9702 94.5056 23.9829 91.2223C24.8196 88.5101 26.7422 85.2738 29.1766 82.4009C29.9679 84.0431 31.038 85.5647 32.3672 86.8936C32.715 87.2416 34.02 87.8048 34.8874 86.8938C35.5664 86.1809 35.5835 85.0695 34.8874 84.3736C32.2685 81.7545 30.9361 78.183 31.1449 74.5458C33.1153 75.3839 35.2814 75.8482 37.5544 75.8482C39.6401 75.8482 42.1317 75.4364 44.7089 74.6864C43.9662 77.2526 43.5581 79.7501 43.5581 81.8517C43.5581 84.0684 44.002 86.1832 44.8015 88.1142C42.9773 88.2305 41.1466 87.9605 39.4284 87.3115C38.5076 86.9637 37.4794 87.4282 37.1313 88.3488C36.7835 89.2697 37.248 90.2979 38.1689 90.6457C40.0338 91.3502 42.0019 91.7065 43.9798 91.7065C44.883 91.7065 45.788 91.6275 46.6866 91.4784C47.4565 92.5392 48.3497 93.5041 49.3455 94.3533C49.2197 96.0281 48.9534 97.5558 48.5677 98.8071C47.5547 102.09 45.3239 104.783 42.2862 106.388C39.2473 107.993 35.7661 108.319 32.4827 107.306ZM67.9987 99.8571C68.846 102.604 70.365 105.024 72.4001 106.945C70.897 112.486 65.7942 116.435 59.9857 116.435C54.1566 116.435 49.0734 112.494 47.5716 106.945C49.6069 105.024 51.1252 102.604 51.9729 99.8569C52.2766 98.8727 52.5152 97.7583 52.6863 96.5625C54.8869 97.6591 57.3649 98.2793 59.9862 98.2793C62.6058 98.2793 65.0822 97.6598 67.282 96.5646C67.4515 97.7583 67.6912 98.8601 67.9987 99.8571ZM75.1664 88.1243C75.9684 86.1902 76.4138 84.0724 76.4138 81.8517C76.4138 79.7576 76.0064 77.2631 75.2667 74.7021C76.6997 75.1165 78.0816 75.42 79.3474 75.6066C79.4355 75.6197 81.1486 75.7655 81.3705 74.1033C81.5009 73.1278 80.8409 72.2238 79.8673 72.0802C74.9006 71.348 68.2221 68.6362 64.4384 64.7681C65.974 63.4917 66.9534 61.5682 66.9534 59.4202C66.9534 57.2738 65.9752 55.3516 64.4416 54.075C68.7063 49.733 77.0374 46.5562 82.4175 46.5562C89.5106 46.5562 95.2809 52.327 95.2809 59.4199C95.2809 65.4286 91.2014 70.5795 85.3605 71.9459C84.4022 72.1699 83.8371 73.1222 84.0309 74.0871C84.3563 75.7059 86.0358 75.4484 86.1722 75.4167C86.9941 75.2245 87.787 74.9702 88.5506 74.6655C88.7217 78.2616 87.3867 81.7894 84.8025 84.3734C82.2352 86.9405 78.7378 88.2738 75.1664 88.1243ZM109.921 84.1533C108.955 87.4507 106.763 90.1748 103.748 91.8234C100.734 93.472 97.2581 93.8482 93.9602 92.8828C91.473 92.1546 88.4409 90.4652 85.6927 88.3172C86.2617 87.881 86.8083 87.4087 87.3232 86.8941C91.0252 83.1919 92.7265 77.9761 91.9493 72.8213C93.9335 71.4159 95.5709 69.5897 96.7516 67.4824C98.4178 67.5851 99.9384 67.826 101.191 68.1928C104.489 69.1584 107.213 71.3505 108.862 74.3651C110.51 77.3796 110.886 80.8559 109.921 84.1533Z" fill="black"/>
</g>
<defs>
<clipPath id="clip0_4_1047">
<rect width="120" height="120" fill="white"/>
</clipPath>
</defs>
</svg>
