<svg width="120" height="120" viewBox="0 0 120 120" fill="none" xmlns="http://www.w3.org/2000/svg">
<path d="M83.9848 84.9847C28.3613 74.3802 27.561 48.1693 28.7615 42.967C29.762 38.9652 27.561 32.7627 27.561 32.7627C26.1605 28.7609 28.3613 23.1586 29.962 20.5576C29.962 20.5576 22.959 25.7599 23.1592 32.5627C23.1592 32.5627 23.3592 38.9655 21.1585 42.567C18.5574 46.9688 11.7544 70.3786 54.9726 95.9895C67.9782 97.5903 79.783 94.1888 84.185 92.588C85.3856 92.1878 86.1858 91.1875 86.1858 89.7867V87.986C86.3858 86.3852 85.3856 85.1847 83.9848 84.9847Z" fill="#FFDD09"/>
<path d="M104.193 74.3804L103.793 72.5796C103.593 71.1791 102.192 70.1786 100.792 70.1786C44.1681 71.5791 37.9653 45.9685 37.9653 40.5662C37.9653 36.3644 34.764 31.1622 34.764 31.1622C31.1625 25.3596 37.9653 14.5551 37.9653 14.5551C34.764 11.5538 28.7615 14.5551 26.3605 15.3553L26.9607 16.1556C28.1612 17.1561 29.3618 18.5566 29.962 20.5574C28.5615 22.9584 26.7607 27.3602 27.1607 30.7617C27.1607 31.1619 27.3608 32.3624 27.561 32.7624C27.561 32.7624 29.5618 38.765 28.7615 42.9667C27.561 48.169 28.3612 74.3799 83.9848 84.9845C84.1848 84.9845 84.385 85.1845 84.585 85.1845C93.1886 82.9835 99.9916 79.182 102.993 77.3812C103.993 76.7814 104.393 75.5809 104.193 74.3804Z" fill="#FFDD09"/>
<path d="M37.9656 14.5547C37.9656 14.5547 31.1628 25.3592 34.7643 31.1618C34.7643 31.1618 37.9656 36.364 37.9656 40.5658C37.9656 45.9681 44.1681 71.579 100.992 70.1782C100.992 70.1782 100.992 70.1782 101.192 70.1782C108.995 66.1765 114.798 61.1744 117.199 58.7734C117.999 57.9732 118.399 56.5724 117.799 55.5721L116.999 53.9714C116.399 52.7709 114.998 51.9706 113.597 52.3706C58.5742 65.5762 46.9693 41.7661 45.9688 36.564C45.1686 32.3623 40.7666 27.9605 40.7666 27.9605C35.9646 22.9582 37.9656 14.5547 37.9656 14.5547Z" fill="#FD9808"/>
<path d="M112.397 62.7752C114.398 61.1744 115.998 59.7739 116.999 58.7734C117.799 57.9732 118.199 56.5724 117.599 55.5722L116.799 53.9714C116.199 52.5709 114.798 51.9706 113.397 52.3706C111.397 52.7709 109.396 53.3711 107.595 53.7712L112.397 62.7752Z" fill="#1CD759"/>
<path d="M95.5899 81.1833C98.7911 79.7828 101.392 78.382 102.993 77.3818C103.993 76.7815 104.594 75.581 104.393 74.3805L103.993 72.5797C103.793 71.1792 102.392 70.1787 100.992 70.1787C98.3909 70.1787 95.7896 70.1787 93.3886 70.1787L95.5899 81.1833Z" fill="#1CD759"/>
<path d="M83.9848 84.9847C81.984 84.5844 79.983 84.1844 77.9823 83.7842V94.3887C80.7835 93.7885 82.7843 92.9882 84.3851 92.588C85.5856 92.1877 86.3858 91.1875 86.3858 89.7867V87.986C86.3858 86.3852 85.3856 85.1847 83.9848 84.9847Z" fill="#1CD759"/>
<path d="M60.9752 99.3908C58.7742 98.1903 56.9734 97.1898 54.9726 95.9893L51.1711 105.994C54.5726 106.394 57.3737 106.594 58.9744 106.594C60.1749 106.594 61.3754 105.794 61.7757 104.593L62.3759 102.792C62.7759 101.392 62.1757 99.991 60.9752 99.3908Z" fill="#1CD759"/>
<path d="M62.3757 102.792L61.7754 104.593C61.3752 105.793 60.3749 106.593 58.9742 106.593C47.5694 106.393 -10.8552 100.391 4.35113 38.5649C5.35163 34.5631 7.5524 30.7616 11.3542 29.1608C12.9549 28.5606 14.9557 28.1603 17.1567 28.5606C17.1567 28.5606 20.7582 23.9586 21.1585 14.5547C21.1585 14.5547 27.9612 14.1545 29.9622 20.5573C29.9622 20.5573 22.9592 25.7596 23.1595 32.5623C23.1595 32.5623 23.3595 38.9651 21.1587 42.5666C18.3574 47.1687 11.1544 72.3793 60.9754 99.3907C62.1757 99.9907 62.7759 101.391 62.3757 102.792Z" fill="white"/>
<path d="M60.3749 102.792L59.9747 104.593C59.5744 105.793 58.7742 106.593 57.5737 106.593C47.5694 106.393 -5.05268 100.391 7.95265 38.5649C8.75291 34.5631 10.7539 30.7616 13.9552 29.1608C15.3557 28.5606 17.1565 28.1603 18.9572 28.5606C18.9572 28.5606 22.1585 23.9586 22.3587 14.5547C22.3587 14.5547 28.1613 14.1545 29.962 20.5573C29.962 20.5573 23.9595 25.7596 23.9595 32.5623C23.9595 32.5623 24.1595 38.9651 22.1587 42.5666C20.158 46.9684 15.9562 72.3793 59.1744 99.3907C60.3749 99.9907 60.7752 101.391 60.3749 102.792Z" fill="#FFDD09"/>
<path d="M60.9752 99.3908C58.7742 98.1903 56.9734 97.1898 54.9726 95.9893L51.1711 105.994C54.5726 106.394 57.3737 106.594 58.9744 106.594C60.1749 106.594 61.3754 105.794 61.7757 104.593L62.3759 102.792C62.7759 101.392 62.1757 99.991 60.9752 99.3908Z" fill="#1CD759"/>
<path d="M59.1744 108.595C57.3737 108.595 47.9696 108.395 36.965 104.993C24.96 101.192 15.5559 95.189 9.3534 87.1855C-0.0506463 74.9804 -2.45166 58.5736 2.55061 38.365C3.75111 33.1627 6.75238 29.3612 10.5539 27.5604C12.3547 26.5599 14.3554 26.1599 16.1562 26.3599C17.1567 24.7591 18.9575 20.7576 19.1575 14.3548C19.1575 13.3543 19.9577 12.5541 20.9582 12.5541C23.9595 12.1538 29.962 13.5546 31.9628 19.9571C32.1628 20.7574 31.9628 21.7579 31.1625 22.1581C31.1625 22.1581 24.96 26.7602 25.16 32.3624C25.16 32.5624 25.36 39.3655 22.959 43.367C22.759 43.567 19.5575 49.1695 22.1587 58.3733C24.7597 67.7774 33.7635 82.1835 61.9754 97.3898C64.1764 98.5903 64.9767 100.991 64.3765 103.192L63.7762 104.993C62.9759 107.194 61.1752 108.595 59.1744 108.595ZM15.5559 30.3617C14.3554 30.3617 13.3549 30.5617 12.1544 31.1619C8.3529 32.7627 6.95215 36.9645 6.3519 39.1652C1.75011 58.1733 3.75111 73.3799 12.3547 84.5845C27.561 103.993 57.7739 104.593 58.9744 104.593C59.1744 104.593 59.5747 104.393 59.7747 103.993L60.3749 102.192C60.5749 101.792 60.3749 101.392 59.9747 100.991C30.5623 84.9847 20.9582 69.5781 18.1572 59.3738C15.1559 48.5693 18.9575 41.9665 19.3577 41.1662C20.9585 38.5652 21.1585 33.7632 21.1585 32.1624C20.9585 26.5601 25.3602 21.9581 27.5612 19.9574C26.3607 17.7563 24.36 16.9561 22.9592 16.5558C22.159 25.1594 18.7574 29.5614 18.7574 29.5614C18.3572 30.3617 17.5569 30.5619 16.7567 30.3617C16.3564 30.3617 15.9562 30.3617 15.5559 30.3617Z" fill="black"/>
<path d="M96.1901 72.1795C65.9774 72.1795 51.1711 63.976 44.1681 56.9732C36.1648 49.1699 35.9645 41.3666 35.9645 40.5663C35.9645 37.5651 33.9638 33.5633 32.9633 32.1628C28.9615 25.56 35.3643 14.7554 36.1646 13.5549C36.7648 12.7547 37.7653 12.3544 38.5656 12.7547C39.5661 13.1549 39.9661 14.1552 39.7661 14.9557C39.7661 14.9557 38.1653 22.559 41.9671 26.5605C42.1671 26.7605 46.7691 31.5625 47.7696 36.1646C47.7696 36.3646 49.1701 42.7673 57.3737 47.9696C65.5772 53.1719 81.984 57.7737 112.997 50.1706C115.398 49.5704 117.799 50.7709 118.599 52.9719L119.4 54.5726C120.2 56.5734 119.8 58.7744 118.199 60.1749C115.398 62.7759 109.596 67.7782 101.592 71.98C101.192 72.18 100.992 72.18 100.392 72.18C99.1914 72.1795 97.5906 72.1795 96.1901 72.1795ZM36.1648 23.759C35.5645 26.16 35.3645 28.561 36.3648 30.1618C36.5648 30.3618 39.9663 35.7641 39.9663 40.5661C39.9663 42.7671 41.3668 48.5694 46.9693 54.1719C53.9724 60.9747 68.7785 68.9782 100.592 68.1777C107.795 64.3762 113.197 59.7742 115.798 57.3732C115.998 56.9729 115.998 56.5729 115.998 56.1727L115.198 54.5719C114.998 54.1717 114.598 53.9717 114.197 53.9717C81.7838 61.975 64.3765 56.9729 55.5727 51.1704C46.1686 45.1679 44.3679 37.7648 44.1678 36.7643C43.5676 33.9631 40.5663 30.3616 39.3658 29.1611C37.5653 27.7608 36.765 25.7598 36.1648 23.759Z" fill="black"/>
<path d="M112.397 64.7759C112.197 64.7759 112.197 64.7759 111.997 64.7759C111.396 64.5759 110.996 64.1757 110.596 63.7754L105.994 54.3714C105.794 53.7711 105.794 53.1709 105.994 52.5706C106.194 51.9704 106.794 51.5701 107.395 51.5701C109.195 51.1699 111.196 50.7699 113.197 50.1696C115.598 49.5694 117.999 50.7699 118.8 52.9709L119.6 54.5716C120.4 56.5724 120 58.7734 118.399 60.1739C117.599 60.9742 115.998 62.3749 113.597 64.1757C113.397 64.5759 112.997 64.7759 112.397 64.7759ZM110.596 54.7719L112.997 59.5739C114.198 58.5734 114.998 57.7731 115.598 57.1729C115.998 56.9729 115.998 56.5726 115.998 56.1724L115.198 54.5716C114.998 54.1714 114.598 53.9714 114.198 53.9714C112.997 54.3716 111.797 54.5716 110.596 54.7719Z" fill="black"/>
<path d="M95.5899 83.1838C95.1896 83.1838 94.9896 83.1838 94.5894 82.9838C93.9891 82.7838 93.5889 82.1836 93.5889 81.5833L91.3878 70.5787C91.1878 69.9785 91.3878 69.3782 91.7881 68.978C92.1883 68.5777 92.7886 68.1777 93.3888 68.1777C96.1901 68.1777 98.5911 68.1777 100.992 68.1777C103.393 68.1777 105.394 69.7785 105.994 72.1795L106.394 73.9803C106.795 75.981 105.994 78.182 104.193 79.1825C102.593 80.183 99.9916 81.5835 96.5901 83.1843C96.1901 83.1838 95.7899 83.1838 95.5899 83.1838ZM95.7899 72.1793L96.9904 78.3818C98.9911 77.3813 100.792 76.381 101.792 75.7808C102.193 75.5808 102.193 75.1805 102.193 74.7803L101.993 72.7795C101.993 72.3793 101.592 71.9793 100.992 71.9793C99.1914 72.1793 97.5906 72.1793 95.7899 72.1793Z" fill="black"/>
<path d="M77.9823 96.3891C77.582 96.3891 77.182 96.1891 76.7818 95.9889C76.3815 95.5886 75.9815 94.9884 75.9815 94.3881V83.7836C75.9815 83.1833 76.1815 82.5831 76.7818 82.1828C77.182 81.7826 77.7823 81.5826 78.3825 81.7826C80.1833 82.1828 82.184 82.5828 84.185 82.9831C86.5861 83.3833 88.1868 85.5841 88.1868 87.9851V89.7859C88.1868 91.7866 86.7863 93.7876 84.7853 94.3879C83.3848 94.7881 81.1838 95.5884 78.1825 96.1886C78.3825 96.3891 78.1825 96.3891 77.9823 96.3891ZM79.9833 86.1848V91.5871C81.584 91.1868 82.7845 90.7868 83.5848 90.3866C83.985 90.1866 84.185 89.9863 84.185 89.5863V87.7856C84.185 87.3853 83.7848 86.9853 83.3848 86.7851C82.3843 86.7851 81.1838 86.3848 79.9833 86.1848Z" fill="black"/>
<path d="M59.1744 108.594C57.9739 108.594 55.1727 108.594 50.9709 107.994C50.3706 107.994 49.7704 107.594 49.5704 106.993C49.1701 106.393 49.1701 105.793 49.3704 105.193L53.1719 95.1883C53.3719 94.5881 53.7721 94.1878 54.3724 93.9878C54.9726 93.7878 55.5729 93.7878 55.9731 94.1878C58.1742 95.3883 59.9749 96.5888 61.9757 97.5893C64.1767 98.7898 64.9769 101.191 64.3767 103.392L63.7764 105.193C62.9759 107.194 61.1752 108.594 59.1744 108.594ZM53.9721 104.192C56.5732 104.392 58.3739 104.593 58.9742 104.593C59.1742 104.593 59.5744 104.393 59.7744 103.992L60.3747 102.192C60.5747 101.791 60.3747 101.391 59.9744 100.991C58.7739 100.191 57.3734 99.5906 55.9727 98.7901L53.9721 104.192Z" fill="black"/>
<path d="M15.9562 70.5789C15.9562 71.7794 15.1559 72.5797 13.9554 72.5797C12.7549 72.5797 11.9547 71.7794 11.9547 70.5789C11.9547 69.3784 12.7549 68.5781 13.9554 68.5781C15.1559 68.5781 15.9562 69.3784 15.9562 70.5789Z" fill="black"/>
<path d="M15.9562 36.5642C15.9562 37.7648 15.1559 38.565 13.9554 38.565C12.7549 38.565 11.9547 37.7648 11.9547 36.5642C11.9547 35.3637 12.7549 34.5635 13.9554 34.5635C15.1559 34.5635 15.9562 35.3637 15.9562 36.5642Z" fill="black"/>
<path d="M11.9544 46.5681C11.9544 47.7687 11.1542 48.5689 9.95365 48.5689C8.75314 48.5689 7.95288 47.7687 7.95288 46.5681C7.95288 45.3676 8.75314 44.5674 9.95365 44.5674C11.1542 44.5674 11.9544 45.3676 11.9544 46.5681Z" fill="black"/>
<path d="M13.9554 54.5721C13.9554 55.7726 13.1552 56.5728 11.9547 56.5728C10.7541 56.5728 9.95389 55.7726 9.95389 54.5721C9.95389 53.3715 10.7541 52.5713 11.9547 52.5713C13.1552 52.5713 13.9554 53.3715 13.9554 54.5721Z" fill="black"/>
<path d="M17.9569 78.5818C17.9569 79.7823 17.1567 80.5826 15.9562 80.5826C14.7557 80.5826 13.9554 79.7823 13.9554 78.5818C13.9554 77.3813 14.7557 76.5811 15.9562 76.5811C17.1567 76.5811 17.9569 77.3813 17.9569 78.5818Z" fill="black"/>
<path d="M25.9605 80.5828C25.9605 81.7833 25.1602 82.5836 23.9597 82.5836C22.7592 82.5836 21.959 81.7833 21.959 80.5828C21.959 79.3823 22.7592 78.582 23.9597 78.582C25.1602 78.582 25.9605 79.3823 25.9605 80.5828Z" fill="black"/>
<path d="M25.9605 88.5857C25.9605 89.7862 25.1602 90.5865 23.9597 90.5865C22.7592 90.5865 21.959 89.7862 21.959 88.5857C21.959 87.3852 22.7592 86.585 23.9597 86.585C25.1602 86.585 25.9605 87.3852 25.9605 88.5857Z" fill="black"/>
<path d="M84.585 87.1855C84.385 87.1855 83.9848 87.1855 83.7848 86.9855L83.5848 86.7855C50.7709 80.583 36.965 68.7779 31.1628 59.9741C25.1602 50.5701 26.5607 43.167 26.761 42.3668C27.3612 39.5655 26.1607 34.9637 25.7605 33.363C25.5605 32.7627 25.3602 31.3622 25.1602 30.9619C24.76 27.1604 26.5607 22.7584 27.7612 20.3574C27.361 19.3569 26.5607 18.3566 25.7605 17.7564C25.5605 17.5564 25.3602 17.5564 25.3602 17.3561L24.76 16.5559C24.3597 15.9556 24.3597 15.3554 24.56 14.7551C24.76 14.1549 25.1602 13.7546 25.7605 13.5546L26.5607 13.3546C29.562 12.1541 35.7645 9.75308 39.3661 13.1546C40.1663 13.7548 40.1663 14.9554 39.7663 15.7556C38.1656 18.5569 34.164 26.3602 36.565 30.1617C36.565 30.3617 39.9665 35.764 39.9665 40.566C39.9665 42.767 41.3671 48.5693 46.9696 54.1718C53.9726 60.9746 68.9789 68.9781 100.992 68.1776C100.992 68.1776 100.992 68.1776 101.192 68.1776C103.593 68.1776 105.594 69.7784 105.994 72.1794L106.395 73.9802C106.795 75.9809 105.994 78.1819 104.194 79.1824C100.792 81.1832 93.9893 84.985 85.3858 87.1857C84.7853 87.1855 84.7853 87.1855 84.585 87.1855ZM29.762 16.1554C30.5623 17.1559 31.3628 18.5564 31.7628 19.9569C31.9628 20.5572 31.9628 21.1574 31.7628 21.5577C30.5623 23.5584 28.9615 27.7602 29.1618 30.5615C29.1618 30.7615 29.3618 31.762 29.562 32.1622C29.562 32.3622 31.763 38.765 30.7625 43.367C30.7625 43.567 29.362 49.7698 34.564 57.9731C39.9663 66.1766 52.7716 77.1812 84.385 82.9837C84.5851 82.9837 84.585 82.9837 84.7853 82.9837C92.7886 80.7827 98.9914 77.3815 101.993 75.5807C102.393 75.3807 102.393 74.9804 102.393 74.5802L101.993 72.7794C101.993 72.3792 101.592 71.9792 100.992 71.9792C67.578 72.7794 51.5714 64.1759 44.1681 56.7728C36.1648 48.9695 35.9645 41.1663 35.9645 40.366C35.9645 37.3647 33.9638 33.363 32.9633 31.9624C29.762 26.7602 33.1633 18.7569 35.1643 15.1554C33.5635 14.9549 31.5628 15.5551 29.762 16.1554Z" fill="black"/>
<path d="M61.7754 98.3896C59.5744 98.3896 57.1734 98.1896 54.7724 97.9894C54.5724 97.9894 54.1722 97.7894 53.9721 97.7894C28.5615 82.583 20.5582 68.177 18.1572 58.9732C15.5562 48.5688 19.1577 42.1661 19.5577 41.5658C21.1585 38.9648 21.3585 34.1628 21.3585 32.562C21.1585 24.9587 28.5615 19.1564 28.9618 18.9562C29.762 18.3559 30.7625 18.3559 31.5628 19.1562C32.363 19.7565 32.363 20.757 31.963 21.7572C29.9623 24.5585 28.3615 29.1603 29.362 32.1615C29.362 32.3615 31.563 38.7643 30.5625 43.3663C30.5625 43.5663 29.162 49.7691 34.364 57.9724C39.7663 66.176 52.5716 77.1805 84.1851 82.9831C86.5861 83.3833 88.1868 85.5841 88.1868 87.9851V89.7858C88.1868 91.7866 86.7863 93.7876 84.7853 94.3879C81.1838 95.5886 72.18 98.3896 61.7754 98.3896ZM55.7729 93.9879C68.1782 95.3884 79.3828 91.9871 83.7848 90.5863C84.1851 90.3863 84.3851 90.1861 84.3851 89.7861V87.9853C84.3851 87.5851 83.9848 87.1851 83.5848 86.9848C50.5709 80.7823 36.9651 68.9772 31.1628 60.1734C25.1602 50.7694 26.5607 43.3663 26.761 42.5661C27.3612 39.7648 26.1607 35.163 25.7605 33.5623C25.5605 32.962 25.3602 32.3618 25.3602 31.7615C25.3602 31.9615 25.3602 32.3618 25.3602 32.5618C25.3602 32.7618 25.5602 39.5648 23.1592 43.5663C22.9592 43.7664 19.958 48.9686 22.1587 57.9724C24.1597 66.5762 31.7628 79.7818 55.7729 93.9879Z" fill="black"/>
</svg>
