<svg width="120" height="142" viewBox="0 0 120 142" fill="none" xmlns="http://www.w3.org/2000/svg">
<path fill-rule="evenodd" clip-rule="evenodd" d="M73.9694 35.262L71.7781 7.19285L90.7923 2.78127C91.3058 2.68633 91.8363 2.74953 92.3132 2.96215C92.7902 3.17476 93.1915 3.52681 93.4641 3.97218C93.7367 4.41756 93.8673 4.93507 93.8397 5.45652C93.8121 5.97797 93.6276 6.47912 93.3095 6.89322C89.6333 11.873 88.0382 23.5205 92.461 33.565L73.9777 35.262" fill="white"/>
<path fill-rule="evenodd" clip-rule="evenodd" d="M82.6567 43.9499L80.4647 15.8752L99.4796 11.4692C99.9935 11.3726 100.525 11.4344 101.003 11.6466C101.481 11.8588 101.883 12.2114 102.156 12.6573C102.429 13.1033 102.56 13.6216 102.531 14.1437C102.503 14.6658 102.316 15.1674 101.996 15.5811C98.3341 20.5638 96.7256 32.2057 101.148 42.2501L82.665 43.9471" fill="#5DB67D"/>
<path fill-rule="evenodd" clip-rule="evenodd" d="M74.6654 9.30324L76.4612 32.3042L88.666 31.1734C85.5978 21.341 87.1985 10.8722 90.9284 5.52475L74.6654 9.30324ZM73.9695 37.9744C73.3296 37.9753 72.7104 37.7486 72.2221 37.3351C71.9464 37.1041 71.7194 36.8205 71.5552 36.5004C71.391 36.1803 71.2927 35.8304 71.2659 35.4717L69.0719 7.39984C69.0212 6.75214 69.2043 6.10749 69.5883 5.58343C69.9722 5.05936 70.5316 4.69061 71.1644 4.5437L90.1814 0.134885C91.2105 -0.106166 92.2891 -0.0226967 93.2689 0.373759C94.2486 0.770215 95.0817 1.46079 95.6535 2.34965C96.2648 3.26595 96.578 4.34837 96.5497 5.44949C96.5213 6.55062 96.1531 7.616 95.4954 8.49963C92.5855 12.4586 90.7758 22.9896 94.93 32.4685C95.1023 32.8629 95.1785 33.2927 95.153 33.7223C95.1274 34.1518 95.0008 34.569 94.7829 34.9401C94.5637 35.3105 94.2596 35.6234 93.8958 35.8535C93.532 36.0836 93.1183 36.2243 92.6896 36.2636L74.2098 37.9599C74.1269 37.964 74.0441 37.964 73.9612 37.9599" fill="#6F0911"/>
<path fill-rule="evenodd" clip-rule="evenodd" d="M82.8065 90.0717C102.681 71.835 96.0408 39.5039 88.7025 34.5693H73.9155C68.2966 59.5108 49.9605 80.9458 7.08442 73.6274C6.50638 73.4998 5.90594 73.5174 5.33634 73.6784C4.76673 73.8395 4.24587 74.139 3.82023 74.5504C3.39458 74.9618 3.07758 75.4724 2.89717 76.0361C2.71675 76.5999 2.67828 77.1994 2.78601 77.7814C6.20207 95.9389 46.9772 122.942 82.8148 90.0717" fill="white"/>
<path fill-rule="evenodd" clip-rule="evenodd" d="M91.4857 98.7575C111.36 80.5209 104.72 48.1904 97.3817 43.2559H82.592C76.9759 68.1973 58.6398 89.6323 15.7637 82.3139C15.1856 82.1864 14.5852 82.2039 14.0156 82.365C13.446 82.526 12.9251 82.8256 12.4995 83.2369C12.0738 83.6483 11.7562 84.1589 11.5757 84.7226C11.3953 85.2864 11.3575 85.8859 11.4653 86.4679C14.8813 104.625 55.6565 131.631 91.494 98.7575" fill="#F0D540"/>
<path fill-rule="evenodd" clip-rule="evenodd" d="M6.39535 76.2824C6.25613 76.2766 6.11724 76.2987 5.98664 76.3472C5.85603 76.3958 5.7362 76.4701 5.63453 76.5654C5.54617 76.6572 5.48351 76.7706 5.45227 76.894C5.42102 77.0175 5.42231 77.1469 5.45641 77.2696C6.87034 84.7916 16.3608 95.4383 31.1647 100.367C41.1386 103.684 60.8574 106.506 80.972 88.0631C93.3807 76.6726 93.5901 60.4524 93.1037 54.0021C92.4448 45.2359 89.7381 39.2775 87.7303 37.2754H76.0426C71.7414 54.0473 59.2879 77.8011 23.3287 77.8067C17.726 77.7749 12.1363 77.2691 6.61904 76.2941C6.545 76.2842 6.47 76.28 6.39535 76.2824ZM46.1608 108.251C40.4803 108.242 34.8382 107.322 29.4484 105.528C14.4862 100.548 2.15357 89.0897 0.120331 78.2817C-0.0772329 77.2985 -0.030949 76.2819 0.254959 75.3206C0.540866 74.3594 1.05792 73.483 1.76071 72.7676C2.50826 72.0239 3.42326 71.4706 4.4291 71.1541C5.43494 70.8377 6.50206 70.7674 7.54072 70.9491C51.6413 78.4853 66.5326 54.9976 71.2664 33.9698C71.4024 33.3694 71.7382 32.8333 72.2192 32.4489C72.7001 32.0646 73.2978 31.8547 73.9134 31.8545H88.7031C89.2418 31.8554 89.768 32.0161 90.2158 32.3157C94.4378 35.1435 97.7719 43.7092 98.5185 53.6038C99.0643 60.8402 98.8014 79.0736 84.6394 92.0619C70.8847 104.682 57.2093 108.24 46.1608 108.24" fill="#6F0911"/>
<path fill-rule="evenodd" clip-rule="evenodd" d="M108.322 87.3252C117.089 54.7118 105.268 26.5722 89.8789 28.8797L79.8627 34.8522C81.8422 45.7818 82.8062 98.965 18.2799 120.032C17.7888 120.171 17.3359 120.42 16.9551 120.759C16.5743 121.099 16.2759 121.521 16.0824 121.993C15.8889 122.465 15.8058 122.976 15.8387 123.485C15.8716 123.994 16.0196 124.489 16.2723 124.933C25.5477 140.737 95.249 135.964 108.322 87.3252Z" fill="white"/>
<path fill-rule="evenodd" clip-rule="evenodd" d="M117.01 96.0127C125.776 63.4021 113.956 35.2597 98.5663 37.5672L88.55 43.5397C90.5295 54.4693 91.4935 107.652 26.9672 128.72C26.4761 128.858 26.0232 129.107 25.6424 129.447C25.2616 129.787 24.9632 130.208 24.7697 130.681C24.5762 131.153 24.4924 131.663 24.5253 132.172C24.5582 132.682 24.7069 133.177 24.9596 133.62C34.235 149.428 103.936 144.651 117.01 96.0127Z" fill="#F0D540"/>
<path fill-rule="evenodd" clip-rule="evenodd" d="M82.8268 36.2469C85.3719 55.428 78.6103 103.19 19.1204 122.614C18.9959 122.649 18.8806 122.711 18.7828 122.796C18.6851 122.881 18.6074 122.986 18.555 123.104C18.5264 123.178 18.5158 123.258 18.5246 123.337C18.5335 123.415 18.5611 123.49 18.6054 123.556C21.3315 128.202 33.3756 131.907 50.3202 129.619C72.2984 126.658 98.3941 113.806 105.693 86.619C111.996 63.1649 107.161 43.8483 100.003 35.823C98.9145 34.4253 97.5099 33.3052 95.905 32.5547C94.3002 31.8041 92.5405 31.4441 90.7699 31.5046L82.8268 36.2469ZM40.3212 135.747C27.4996 135.747 17.4521 132.306 13.9314 126.308C13.4772 125.542 13.201 124.682 13.1237 123.795C13.0463 122.908 13.1699 122.015 13.4847 121.181C13.8216 120.302 14.3526 119.51 15.0381 118.865C15.7236 118.22 16.5456 117.737 17.4435 117.454C86.0362 95.0602 77.304 35.93 77.1994 35.339C77.0971 34.7935 77.1648 34.23 77.3934 33.7242C77.622 33.2184 78.0003 32.7948 78.4773 32.5112L88.4936 26.5393C88.7964 26.3588 89.1321 26.2396 89.4809 26.1886C92.2227 25.8654 95.0011 26.2478 97.5537 27.2994C100.106 28.3511 102.348 30.0371 104.067 32.1977C112.443 41.5833 117.813 62.4809 110.949 88.0218C102.952 117.779 74.767 131.8 51.0582 134.995C47.5015 135.482 43.9165 135.731 40.3267 135.741" fill="#6F0911"/>
<path fill-rule="evenodd" clip-rule="evenodd" d="M95.8004 80.635C95.707 80.635 95.6106 80.635 95.5173 80.635C95.1624 80.5986 94.8184 80.4924 94.5045 80.3229C94.1906 80.1534 93.9128 79.9238 93.6877 79.647C93.4627 79.3702 93.2946 79.052 93.1927 78.7101C93.0908 78.3682 93.0572 78.0094 93.094 77.6545C93.207 76.5743 93.2561 75.4887 93.2411 74.4027C93.2328 73.6822 93.5105 72.9876 94.0136 72.4717C94.5167 71.9558 95.2041 71.6605 95.9246 71.6508C96.2815 71.6445 96.6361 71.709 96.9678 71.8407C97.2996 71.9723 97.6023 72.1685 97.8577 72.4179C98.1131 72.6672 98.3161 72.9648 98.4556 73.2933C98.5952 73.6218 98.6688 73.9747 98.671 74.3316C98.6892 75.6273 98.6291 76.9231 98.4922 78.2117C98.4237 78.8792 98.111 79.4979 97.6133 79.948C97.1157 80.3982 96.4686 80.6481 95.7976 80.6495" fill="#6F0911"/>
<path fill-rule="evenodd" clip-rule="evenodd" d="M62.947 120.58C62.4149 120.58 61.8942 120.424 61.4502 120.131C61.0062 119.838 60.6584 119.421 60.4498 118.931C60.1651 118.271 60.1543 117.525 60.4194 116.856C60.6845 116.188 61.2038 115.651 61.8637 115.366C74.4862 110.205 84.6615 100.418 90.3095 88.0061C90.4486 87.6778 90.651 87.3807 90.9053 87.1307C91.1596 86.8808 91.4611 86.6836 91.7918 86.5501C92.1225 86.4167 92.4756 86.3492 92.8322 86.3527C93.1888 86.3561 93.5418 86.4303 93.8699 86.5701C94.5325 86.8518 95.0558 87.3847 95.3252 88.0524C95.5946 88.7201 95.5875 89.4679 95.3059 90.1305C89.1056 103.829 77.9084 114.642 64.0019 120.36C63.6649 120.504 63.3018 120.579 62.9352 120.58" fill="#6F0911"/>
</svg>
