<svg width="296" height="146" viewBox="0 0 296 146" fill="none" xmlns="http://www.w3.org/2000/svg">
<g clip-path="url(#clip0_4_1130)">
<path d="M232.804 68.4393C235.83 69.8939 235.83 69.1233 236.617 67.9301C237.402 66.7352 241.887 63.2932 241.887 63.2932C241.887 63.2932 246.062 60.8083 250.349 54.8373C254.449 49.1141 250.872 45.3529 247.485 42.1027C244.097 38.8507 236.3 43.2585 230.395 52.2099C224.487 61.1563 229.786 66.983 232.804 68.4393ZM259.587 79.0948C260.457 78.5041 261.563 79.3664 260.882 81.0976C260.637 81.7171 255.856 94.4942 241.846 103.982C241.846 103.982 243.286 90.1492 259.587 79.0948ZM206.36 32.2075C208.864 29.8636 208.19 32.4333 207.921 33.214C207.921 33.214 196.698 64.3336 172.581 92.2334C172.581 92.2334 185.322 51.9163 206.36 32.2075ZM62.5546 112.83C62.5546 112.83 47.065 92.3454 20.7052 116.442L29.4248 86.4033C29.4248 86.4033 38.6536 87.2621 51.538 81.2894C51.538 81.2894 79.3928 82.1703 62.5546 112.83ZM55.0065 123.694C55.0065 123.694 38.0184 140.426 32.3024 133.951C26.8861 127.813 36.6461 119.551 40.4653 117.513C45.4151 114.877 60.3956 112.122 55.0065 123.694ZM39.6633 20.7255C39.6633 20.7255 68.2962 7.04032 80.6392 13.9516C92.9873 20.8629 89.226 33.2344 70.4178 53.7646C70.4178 53.7646 56.0366 66.6266 47.4566 70.252C47.4566 70.252 36.6358 71.9204 33.5318 73.4564C33.5318 73.4564 36.1012 64.9887 39.1848 55.299C43.0125 43.306 47.9828 30.0486 45.2261 26.5369C41.8751 22.2547 39.6633 20.7255 39.6633 20.7255ZM295.917 99.8966C295.812 99.1244 292.434 89.1715 289.542 92.3624C286.655 95.555 279.248 107.65 255.473 120.564C243.773 126.917 242.862 118.935 242.282 115.707C242.282 115.707 258.444 104.41 266.694 89.4465C272.299 79.2764 268.686 76.9596 266.392 74.6564C264.308 72.5705 259.1 67.8537 252.331 72.7911C245.565 77.7302 229.339 93.6557 231.098 111.116C228.466 113.779 220.79 120.055 215.825 118.935C210.86 117.81 216.097 107.147 219.808 99.8661C223.506 92.617 230.756 86.8021 232.987 83.5094C235.217 80.2167 233.976 79.1644 233.53 78.6416C233.084 78.1172 232.052 77.3924 230.455 74.4986C228.858 71.6064 226.557 73.6211 226.557 73.6211C215.864 80.6224 208.345 99.1006 208.345 99.1006C206.196 101.499 202.978 100.559 202.36 100.321C201.418 99.9509 200.708 97.6443 200.519 96.4613C200.363 95.5109 199.717 91.602 199.198 90.5361C198.684 89.4719 198.123 88.9407 195.357 89.7859C192.13 90.7704 189.816 92.7443 188.879 93.8272C187.934 94.91 188.374 95.1595 188.605 98.5965C188.716 100.289 188.869 100.336 187.677 103.3C185.886 107.78 182.773 113.499 181.788 115.418C180.941 117.075 174.813 125.198 172.331 125.39C170.117 125.561 169.302 122.024 169.302 122.024C169.302 122.024 168.031 113.848 168.946 109.807C211.898 61.5653 222.653 27.5197 222.653 27.5197C222.847 26.9426 223.85 24.9517 220.785 20.4149C216.814 14.5355 212.672 14.7884 212.672 14.7884C212.672 14.7884 209.777 14.4184 203.358 21.0395C162.484 63.2032 158.428 107.477 158.428 107.477C158.021 108.303 157.864 108.453 156.099 110.401C154.243 112.45 151.537 113.911 151.537 113.911C151.537 113.911 148.942 114.581 148.389 112.392C148.033 110.982 148.273 109.899 148.464 108.005C148.641 106.25 151.157 100.453 151.157 100.453C151.157 100.453 154.948 92.2674 155.785 89.8403C156.623 87.4098 156.427 84.7196 155.651 82.8186C154.874 80.9194 151.386 78.9692 150.265 78.2088C149.177 77.4705 148.012 76.3401 148.166 74.726C148.218 74.1948 147.72 73.7518 149.814 69.1369C151.913 64.5169 148.045 63.3967 146.919 63.2049C145.797 63.0114 142.688 62.066 139.845 64.5491C134.808 68.9536 134.658 76.6694 134.658 76.6694C134.643 77.6861 135.014 78.6891 134.518 79.8382C134.234 80.4967 133.536 81.7561 131.724 85.4426C129.882 89.1834 126.007 96.6871 123.611 100.864C121.596 104.379 118.813 108.419 117.013 110.432C115.797 111.791 114.171 112.889 114.171 112.889C114.171 112.889 112.369 114.244 112.323 110.898C112.276 107.409 117.098 96.7584 117.098 96.7584C117.098 96.7584 120.478 88.4298 120.915 87.425C121.532 85.9993 121.937 84.1238 120.985 82.9629C119.586 81.2707 115.967 80.3983 114.37 81.1926C112.78 81.9903 109.923 86.8089 108.227 89.5568C106.08 93.0379 102.599 99.8168 98.603 106.53C94.7327 113.023 90.418 115.381 90.418 115.381C90.418 115.381 88.0955 116.79 86.2957 115.153C85.2724 114.223 76.8677 106.832 96.8951 84.5923C105.145 75.4321 109.458 73.8977 113.747 76.9036C115.409 78.0679 117.043 80.0572 119.172 80.1149C122.785 80.215 123.968 75.7732 123.968 75.7732C124.091 75.0044 127.255 66.5333 113.745 66.3839C91.8176 66.1429 79.2703 90.8196 79.2703 90.8196C75.085 75.079 63.2221 73.8943 63.2221 73.8943C76.8746 64.3268 84.6611 58.2149 94.5675 41.142C104.474 24.0674 90.0485 10.5859 90.0485 10.5859C83.9255 3.20277 68.9348 -4.50117 43.6681 3.19259C17.2691 11.2292 15.0829 17.6347 12.4521 25.4744C9.81804 33.3193 14.9824 31.2961 18.1546 29.7652C21.3233 28.2308 33.7617 23.1678 33.7617 23.1678C33.7617 23.1678 2.25456 120.064 1.32317 124.774C0.485435 129.007 -3.6675 140.501 8.94455 142.057C8.94455 142.057 10.8959 142.349 12.6752 141.702C14.458 141.059 14.5022 139.903 14.5022 139.903C15.2412 137.142 16.4382 132.793 16.7634 132.36C23.6697 153.096 46.0179 147.057 59.8491 134.903C69.8951 126.077 75.8376 114.028 75.8376 114.028C84.3529 132.535 94.6271 122.761 94.6271 122.761C98.8073 119.407 104.173 111.715 104.173 111.715C107.401 126.814 118.661 120.519 118.661 120.519C123.953 117.377 129.269 107.879 130.314 106.151C136.31 96.2712 141.954 84.2885 141.954 84.2885C141.954 84.2885 142.712 84.3326 144.415 85.8109C145.932 87.1246 145.188 89.2768 144.554 91.2643C143.923 93.2501 141.474 98.3216 140.199 102.655C138.893 107.093 138.644 111.377 140.391 115.248C142.101 119.035 147.117 122.257 150.55 122.642C154.929 123.137 159.005 119.65 159.005 119.65C159.63 130.65 168.246 134.541 168.246 134.541C179.48 140.38 189.967 121.837 189.967 121.837C197.119 110.177 196.526 107.246 197.141 105.46C197.963 106.526 200.007 107.687 204.298 108.522C203.147 112.623 204.361 116.622 204.361 116.622C204.361 116.622 207.628 124.843 215.011 126.834C222.925 128.971 233.361 121.004 233.361 121.004C233.361 121.004 245.2 141.305 271.693 123.67C298.187 106.037 296.021 100.672 295.917 99.8966Z" fill="#EC4399"/>
</g>
<defs>
<clipPath id="clip0_4_1130">
<rect width="296" height="146" fill="white"/>
</clipPath>
</defs>
</svg>
