<svg width="251" height="292" viewBox="0 0 251 292" fill="none" xmlns="http://www.w3.org/2000/svg">
<path d="M99.3712 88.145H101.692C107.67 88.1455 113.404 90.3169 117.631 94.1816C121.859 98.0464 124.233 103.288 124.233 108.753V237.581C124.233 239.51 123.395 241.361 121.903 242.725C120.411 244.089 118.387 244.855 116.277 244.855H84.7842C82.674 244.855 80.6501 244.089 79.158 242.725C77.6658 241.361 76.8275 239.51 76.8275 237.581V108.753C76.8275 103.288 79.2026 98.0458 83.4304 94.181C87.6582 90.3162 93.3923 88.145 99.3712 88.145Z" fill="#4C9589"/>
<path d="M81.9844 208.922C71.5642 208.922 56.5538 207.366 46.5435 193.908C38.5868 183.212 34.8801 166.177 34.8801 140.296C34.8608 138.959 35.132 137.632 35.6781 136.392C36.2243 135.153 37.0344 134.024 38.0614 133.073C39.0885 132.121 40.3121 131.366 41.6611 130.85C43.0101 130.335 44.4578 130.069 45.92 130.069C47.3822 130.069 48.8298 130.335 50.1788 130.85C51.5279 131.366 52.7514 132.121 53.7785 133.073C54.8055 134.024 55.6157 135.153 56.1618 136.392C56.7079 137.632 56.9792 138.959 56.9598 140.296C56.9598 161.344 59.5972 175.564 64.8005 182.558C67.6391 186.373 71.5024 188.745 81.9824 188.745C83.4592 188.705 84.9297 188.936 86.3069 189.425C87.6841 189.914 88.94 190.651 90.0001 191.591C91.0602 192.532 91.903 193.658 92.4786 194.901C93.0541 196.145 93.3508 197.482 93.3509 198.833C93.351 200.183 93.0547 201.52 92.4793 202.764C91.904 204.008 91.0614 205.134 90.0015 206.074C88.9415 207.015 87.6858 207.752 86.3087 208.241C84.9316 208.73 83.4611 208.962 81.9844 208.922ZM116.756 179.311C113.854 179.276 111.083 178.198 109.044 176.309C107.005 174.42 105.861 171.873 105.861 169.219C105.861 166.566 107.005 164.019 109.044 162.13C111.083 160.241 113.854 159.163 116.756 159.127C126.571 159.127 131.952 157.701 135.319 154.203C140.093 149.254 142.512 138.797 142.512 123.131C142.492 121.794 142.764 120.467 143.31 119.228C143.856 117.988 144.666 116.859 145.693 115.908C146.72 114.956 147.944 114.201 149.293 113.685C150.642 113.17 152.089 112.904 153.552 112.904C155.014 112.904 156.461 113.17 157.81 113.685C159.159 114.201 160.383 114.956 161.41 115.908C162.437 116.859 163.247 117.988 163.793 119.228C164.339 120.467 164.611 121.794 164.591 123.131C164.591 144.441 160.554 158.553 151.884 167.548C141.837 177.973 127.834 179.311 116.756 179.311Z" fill="#4C9589"/>
<path d="M84.7397 106.984H91.2289V121.821H84.7397V106.984Z" fill="white"/>
<path d="M44.8628 143.452L51.3391 143.08L52.3582 157.887L45.8819 158.26L44.8628 143.452Z" fill="white"/>
<path d="M42.6736 168.47L48.9512 166.968L53.0617 181.321L46.7841 182.823L42.6736 168.47Z" fill="white"/>
<path d="M56.1502 191.581L59.3947 186.443L73.4508 193.862L70.2063 198.999L56.1502 191.581Z" fill="white"/>
<path d="M141.764 159.449L144.777 164.703L130.403 171.593L127.39 166.339L141.764 159.449Z" fill="white"/>
<path d="M152.451 142.002L158.511 144.123L152.708 157.98L146.648 155.859L152.451 142.002Z" fill="white"/>
<path d="M147.715 121.804L154.175 122.359L152.656 137.131L146.196 136.576L147.715 121.804Z" fill="white"/>
<path d="M84.7397 144.324H91.2289V159.161H84.7397V144.324Z" fill="white"/>
<path d="M84.7397 182.002H91.2289V196.839H84.7397V182.002Z" fill="white"/>
<path d="M84.7397 219.344H91.2289V234.181H84.7397V219.344Z" fill="white"/>
<path d="M98.1724 95.5459H104.662V110.383H98.1724V95.5459Z" fill="white"/>
<path d="M98.1724 132.888H104.662V147.725H98.1724V132.888Z" fill="white"/>
<path d="M98.1724 170.563H104.662V185.401H98.1724V170.563Z" fill="white"/>
<path d="M98.1724 207.905H104.662V222.742H98.1724V207.905Z" fill="white"/>
<path d="M109.948 110.348H116.437V125.185H109.948V110.348Z" fill="white"/>
<path d="M109.948 147.689H116.437V162.527H109.948V147.689Z" fill="white"/>
<path d="M109.948 185.367H116.437V200.204H109.948V185.367Z" fill="white"/>
<path d="M109.948 222.707H116.437V237.544H109.948V222.707Z" fill="white"/>
<path d="M35.4892 120.31C35.4892 120.31 38.6719 133.976 46.2535 133.976C53.8351 133.976 57.8145 122.487 57.8145 122.487L51.0372 126.496L45.4549 114.477L42.6647 125.045L35.4892 120.31Z" fill="#D77A88"/>
<path d="M163.674 143.669H161.635C156.381 143.669 151.342 145.577 147.627 148.972C143.912 152.367 141.825 156.971 141.825 161.772V274.942C141.825 276.636 142.562 278.262 143.873 279.46C145.184 280.658 146.963 281.331 148.817 281.331H176.493C178.347 281.331 180.126 280.658 181.437 279.46C182.748 278.262 183.485 276.636 183.485 274.942V161.772C183.485 156.971 181.398 152.366 177.682 148.971C173.967 145.576 168.928 143.669 163.674 143.669Z" fill="#4C9589"/>
<path d="M178.953 249.766C188.11 249.766 201.301 248.399 210.098 236.577C217.09 227.181 220.348 212.216 220.348 189.481C220.365 188.307 220.126 187.141 219.646 186.052C219.167 184.963 218.455 183.972 217.552 183.136C216.65 182.3 215.574 181.637 214.389 181.184C213.203 180.731 211.931 180.498 210.646 180.498C209.361 180.498 208.089 180.731 206.903 181.184C205.718 181.637 204.643 182.3 203.74 183.136C202.838 183.972 202.126 184.963 201.646 186.052C201.166 187.141 200.927 188.307 200.944 189.481C200.944 207.971 198.627 220.463 194.054 226.607C191.56 229.958 188.165 232.041 178.955 232.041C177.657 232.006 176.365 232.209 175.155 232.639C173.944 233.068 172.841 233.715 171.909 234.542C170.977 235.368 170.237 236.357 169.731 237.45C169.225 238.542 168.964 239.716 168.964 240.903C168.964 242.089 169.225 243.264 169.73 244.356C170.236 245.449 170.976 246.438 171.908 247.264C172.839 248.091 173.943 248.738 175.153 249.168C176.363 249.598 177.655 249.801 178.953 249.766ZM148.396 223.754C150.947 223.724 153.382 222.776 155.174 221.117C156.966 219.458 157.97 217.22 157.97 214.889C157.97 212.558 156.966 210.321 155.174 208.661C153.382 207.002 150.947 206.055 148.396 206.024C139.771 206.024 135.042 204.771 132.084 201.698C127.888 197.35 125.762 188.164 125.762 174.402C125.779 173.228 125.541 172.063 125.061 170.974C124.581 169.884 123.869 168.893 122.967 168.057C122.064 167.222 120.989 166.558 119.803 166.105C118.618 165.652 117.346 165.419 116.061 165.419C114.776 165.419 113.504 165.652 112.318 166.105C111.133 166.558 110.057 167.222 109.155 168.057C108.252 168.893 107.54 169.884 107.06 170.974C106.58 172.063 106.342 173.228 106.359 174.402C106.359 193.122 109.907 205.519 117.526 213.421C126.356 222.579 138.661 223.754 148.396 223.754Z" fill="#4C9589"/>
<path d="M176.532 160.218H170.829V173.251H176.532V160.218Z" fill="white"/>
<path d="M211.575 192.254L205.884 191.927L204.988 204.935L210.68 205.262L211.575 192.254Z" fill="white"/>
<path d="M213.499 214.231L207.982 212.911L204.37 225.52L209.887 226.84L213.499 214.231Z" fill="white"/>
<path d="M201.656 234.532L198.805 230.02L186.452 236.536L189.304 241.049L201.656 234.532Z" fill="white"/>
<path d="M126.42 206.307L123.771 210.922L136.403 216.974L139.052 212.359L126.42 206.307Z" fill="white"/>
<path d="M117.028 190.98L111.702 192.844L116.802 205.016L122.128 203.153L117.028 190.98Z" fill="white"/>
<path d="M121.19 173.236L115.513 173.724L116.848 186.7L122.525 186.213L121.19 173.236Z" fill="white"/>
<path d="M176.532 193.02H170.829V206.053H176.532V193.02Z" fill="white"/>
<path d="M176.532 226.117H170.829V239.151H176.532V226.117Z" fill="white"/>
<path d="M176.532 258.921H170.829V271.955H176.532V258.921Z" fill="white"/>
<path d="M164.727 150.17H159.025V163.204H164.727V150.17Z" fill="white"/>
<path d="M164.727 182.974H159.025V196.007H164.727V182.974Z" fill="white"/>
<path d="M164.727 216.069H159.025V229.103H164.727V216.069Z" fill="white"/>
<path d="M164.727 248.873H159.025V261.907H164.727V248.873Z" fill="white"/>
<path d="M154.379 163.173H148.676V176.207H154.379V163.173Z" fill="white"/>
<path d="M154.379 195.976H148.676V209.009H154.379V195.976Z" fill="white"/>
<path d="M154.379 229.074H148.676V242.108H154.379V229.074Z" fill="white"/>
<path d="M154.379 261.875H148.676V274.909H154.379V261.875Z" fill="white"/>
<path d="M219.813 171.924C219.813 171.924 217.016 183.93 210.353 183.93C203.69 183.93 200.193 173.837 200.193 173.837L206.149 177.358L211.055 166.8L213.507 176.084L219.813 171.924Z" fill="#D77A88"/>
<path d="M103.243 37.3776C112.3 25.4504 140.452 52.5541 133.559 57.8802C124.12 65.1726 84.6497 61.8636 103.243 37.3776Z" fill="#1C80AA"/>
<path d="M94.9464 74.6963L94.4632 88.024L86.7246 90.1527H93.3347L95.2691 93.6659L95.7532 90.1527L99.7834 90.7643L95.9146 88.1854L96.7204 76.7393L94.9464 74.6963ZM107.231 76.8219L108.275 90.1178L100.831 93.1171L107.398 92.361L109.721 95.6302L109.8 92.0841L113.873 92.2315L109.735 90.1118L109.226 78.6488L107.231 76.8219Z" fill="#3B5174"/>
<path d="M77.3852 26.3734L74.9946 31.3728C74.8289 31.7184 74.5744 32.0138 74.2569 32.2287C73.9395 32.4435 73.5707 32.5701 73.1882 32.5955C72.8058 32.6208 72.4234 32.544 72.0804 32.3729C71.7375 32.2018 71.4461 31.9426 71.2363 31.6218L68.0917 26.8136C67.8817 26.4929 67.7609 26.122 67.7415 25.7392C67.7222 25.3563 67.805 24.9752 67.9815 24.6349C68.158 24.2946 68.4218 24.0073 68.7459 23.8026C69.07 23.5978 69.4427 23.483 69.8259 23.4698L75.3651 23.2785C75.7364 23.2663 76.1045 23.35 76.434 23.5214C76.7634 23.6929 77.0432 23.9464 77.2462 24.2574C77.4492 24.5684 77.5687 24.9265 77.593 25.2972C77.6174 25.6678 77.5458 26.0385 77.3852 26.3734Z" fill="#DE7B56"/>
<path d="M144.701 63.6267C142.878 72.2837 122.602 84.3584 97.088 80.7136C69.9872 76.8428 57.5898 28.0781 86.377 10.3157C102.439 0.405582 118.92 10.8138 121.918 23.3018C126.021 40.3888 113.087 53.2493 129.664 60.6623C138.321 64.5381 146.043 57.2427 144.701 63.6267Z" fill="#FDD2BE"/>
<path d="M88.2108 26.3744C88.2108 26.7989 88.2944 27.2192 88.4568 27.6114C88.6192 28.0035 88.8573 28.3599 89.1575 28.66C89.4576 28.9602 89.814 29.1983 90.2061 29.3607C90.5983 29.5231 91.0186 29.6067 91.4431 29.6067C91.8676 29.6067 92.2879 29.5231 92.68 29.3607C93.0722 29.1983 93.4285 28.9602 93.7287 28.66C94.0288 28.3599 94.2669 28.0035 94.4294 27.6114C94.5918 27.2192 94.6754 26.7989 94.6754 26.3744C94.6754 25.5171 94.3349 24.695 93.7287 24.0888C93.1225 23.4826 92.3004 23.1421 91.4431 23.1421C90.5858 23.1421 89.7637 23.4826 89.1575 24.0888C88.5513 24.695 88.2108 25.5171 88.2108 26.3744Z" fill="black"/>
<path d="M106.024 36.4571C119.718 30.3949 131.259 67.7344 122.651 69.0602C110.862 70.8781 77.9102 48.9003 106.024 36.4571ZM77.2428 52.793C76.3124 52.534 75.5295 51.518 74.8581 49.7051C74.5402 48.8281 74.2859 47.9293 74.0971 47.0157C74.0603 46.8268 74.0999 46.631 74.2075 46.4714C74.315 46.3118 74.4815 46.2014 74.6704 46.1645C74.8593 46.1277 75.055 46.1674 75.2147 46.2749C75.3743 46.3824 75.4847 46.5489 75.5215 46.7378C75.9987 49.1782 77.0157 51.3636 77.704 51.4124C77.8155 51.4204 78.8425 51.3626 80.4163 46.8792C80.48 46.6977 80.6132 46.549 80.7865 46.4656C80.8723 46.4244 80.9655 46.4005 81.0606 46.3952C81.1556 46.3899 81.2508 46.4034 81.3407 46.435C81.4306 46.4665 81.5133 46.5154 81.5843 46.5789C81.6553 46.6424 81.713 46.7193 81.7543 46.8051C81.7955 46.891 81.8195 46.9841 81.8247 47.0792C81.83 47.1743 81.8165 47.2695 81.785 47.3593C80.4293 51.2212 79.0955 52.9683 77.6014 52.8598C77.4799 52.8496 77.3598 52.8273 77.2428 52.793ZM88.9469 58.8054C87.9876 58.919 86.878 58.2755 85.5681 56.8501C84.9409 56.1584 84.3643 55.4224 83.8429 54.6478C83.7906 54.5682 83.7544 54.479 83.7366 54.3855C83.7187 54.2919 83.7194 54.1957 83.7387 54.1025C83.758 54.0092 83.7954 53.9206 83.849 53.8418C83.9025 53.763 83.971 53.6955 84.0506 53.6432C84.1302 53.5909 84.2193 53.5547 84.3129 53.5369C84.4064 53.519 84.5026 53.5197 84.5959 53.539C84.6892 53.5583 84.7777 53.5957 84.8565 53.6493C84.9353 53.7028 85.0028 53.7713 85.0551 53.8509C86.4228 55.9277 88.1958 57.5633 88.8473 57.3492C88.9538 57.3143 89.8812 56.871 89.6372 52.1256C89.6323 52.0305 89.6462 51.9353 89.678 51.8455C89.7099 51.7557 89.7592 51.6731 89.823 51.6023C89.8868 51.5315 89.964 51.474 90.05 51.4331C90.136 51.3921 90.2293 51.3685 90.3245 51.3636C90.4196 51.3587 90.5148 51.3726 90.6046 51.4045C90.6944 51.4364 90.7771 51.4856 90.8478 51.5495C90.9186 51.6133 90.9761 51.6904 91.017 51.7765C91.058 51.8625 91.0816 51.9558 91.0865 52.0509C91.2967 56.1349 90.7289 58.2596 89.2985 58.7248C89.1843 58.7633 89.0665 58.7903 88.9469 58.8054ZM81.0479 65.7134C80.1514 65.6944 79.22 64.9613 78.203 63.4871C77.7181 62.7724 77.2853 62.0238 76.9081 61.2469C76.8358 61.0866 76.8293 60.9043 76.8901 60.7392C76.9508 60.5742 77.0738 60.4395 77.2327 60.3643C77.3916 60.289 77.5738 60.279 77.7399 60.3366C77.9061 60.3942 78.043 60.5147 78.1213 60.6721C79.1075 62.752 80.5219 64.4782 81.1465 64.3656C81.2461 64.3477 82.1555 64.0598 82.541 59.684C82.5487 59.5962 82.5737 59.5107 82.6144 59.4325C82.6551 59.3543 82.7109 59.2849 82.7785 59.2283C82.846 59.1716 82.9241 59.1288 83.0082 59.1023C83.0923 59.0758 83.1808 59.0662 83.2686 59.0739C83.3565 59.0816 83.4419 59.1066 83.5201 59.1473C83.5983 59.188 83.6677 59.2438 83.7244 59.3114C83.7811 59.3789 83.8238 59.457 83.8503 59.5411C83.8768 59.6252 83.8865 59.7137 83.8788 59.8015C83.5461 63.5738 82.7522 65.4454 81.3815 65.6904C81.2714 65.7092 81.1596 65.7169 81.0479 65.7134ZM93.7759 71.9469C92.8536 72.2308 91.6463 71.7965 90.1014 70.6301C89.3604 70.0622 88.6613 69.4417 88.0096 68.7734C87.8767 68.6343 87.8045 68.4481 87.8089 68.2558C87.8133 68.0635 87.8939 67.8808 88.033 67.7479C88.1721 67.615 88.3582 67.5428 88.5505 67.5472C88.7429 67.5516 88.9256 67.6322 89.0584 67.7713C90.7767 69.5692 92.8137 70.8592 93.4164 70.5315C93.516 70.4777 94.3477 69.875 93.256 65.2522C93.2341 65.1595 93.2306 65.0634 93.2459 64.9694C93.2611 64.8754 93.2947 64.7853 93.3447 64.7043C93.3947 64.6232 93.4603 64.5529 93.5375 64.4972C93.6147 64.4415 93.7022 64.4015 93.7949 64.3796C93.8875 64.3577 93.9836 64.3542 94.0776 64.3695C94.1716 64.3847 94.2617 64.4183 94.3428 64.4683C94.4238 64.5184 94.4942 64.5839 94.5499 64.6611C94.6056 64.7383 94.6455 64.8258 94.6674 64.9185C95.6078 68.9029 95.4295 71.0943 94.1066 71.8075C94.0013 71.8648 93.8905 71.9115 93.7759 71.9469Z" fill="#22B0C3"/>
<path d="M167.379 103.247C159.564 92.9572 135.277 116.341 141.224 120.936C149.367 127.227 183.42 124.372 167.379 103.247Z" fill="#1C80AA"/>
<path d="M174.536 135.444L174.953 146.942L181.63 148.779H175.927L174.258 151.81L173.84 148.779L170.363 149.306L173.701 147.082L173.006 137.206L174.536 135.444ZM163.938 137.278L163.037 148.749L169.459 151.336L163.794 150.684L161.789 153.504L161.721 150.445L158.208 150.572L161.777 148.744L162.216 138.854L163.938 137.278Z" fill="#3B5174"/>
<path d="M189.687 93.7536L191.75 98.0668C191.893 98.365 192.112 98.6199 192.386 98.8052C192.66 98.9906 192.978 99.0998 193.308 99.1217C193.638 99.1436 193.968 99.0773 194.264 98.9297C194.56 98.7821 194.811 98.5584 194.992 98.2817L197.705 94.1334C197.886 93.8567 197.991 93.5368 198.007 93.2065C198.024 92.8761 197.953 92.5473 197.8 92.2537C197.648 91.9601 197.42 91.7123 197.141 91.5356C196.861 91.359 196.54 91.2599 196.209 91.2485L191.43 91.0835C191.11 91.073 190.792 91.1452 190.508 91.2931C190.224 91.441 189.982 91.6597 189.807 91.9281C189.632 92.1964 189.529 92.5054 189.508 92.8251C189.487 93.1449 189.549 93.4647 189.687 93.7536Z" fill="#DE7B56"/>
<path d="M131.611 125.893C133.183 133.362 150.677 143.78 172.689 140.635C196.07 137.296 206.766 95.224 181.93 79.8996C168.072 71.3497 153.853 80.3293 151.267 91.1033C147.727 105.845 158.886 116.94 144.584 123.336C137.115 126.68 130.453 120.386 131.611 125.893Z" fill="#FDD2BE"/>
<path d="M180.348 93.7545C180.348 94.1207 180.275 94.4833 180.135 94.8217C179.995 95.16 179.79 95.4674 179.531 95.7264C179.272 95.9853 178.964 96.1907 178.626 96.3309C178.288 96.471 177.925 96.5432 177.559 96.5432C177.193 96.5432 176.83 96.471 176.492 96.3309C176.153 96.1907 175.846 95.9853 175.587 95.7264C175.328 95.4674 175.123 95.16 174.983 94.8217C174.842 94.4833 174.77 94.1207 174.77 93.7545C174.77 93.0149 175.064 92.3056 175.587 91.7826C176.11 91.2596 176.819 90.9658 177.559 90.9658C178.299 90.9658 179.008 91.2596 179.531 91.7826C180.054 92.3056 180.348 93.0149 180.348 93.7545Z" fill="black"/>
<path d="M164.979 102.453C153.165 97.223 143.208 129.438 150.635 130.581C160.805 132.15 189.234 113.189 164.979 102.453ZM189.81 116.547C190.613 116.324 191.288 115.447 191.867 113.883C192.142 113.126 192.361 112.351 192.524 111.563C192.556 111.4 192.522 111.231 192.429 111.093C192.336 110.955 192.192 110.86 192.029 110.828C191.867 110.796 191.698 110.831 191.56 110.923C191.422 111.016 191.327 111.16 191.295 111.323C190.884 113.428 190.006 115.314 189.412 115.356C189.316 115.363 188.43 115.313 187.072 111.445C187.017 111.288 186.902 111.16 186.753 111.088C186.679 111.052 186.598 111.032 186.516 111.027C186.434 111.023 186.352 111.034 186.275 111.062C186.197 111.089 186.126 111.131 186.065 111.186C186.003 111.241 185.953 111.307 185.918 111.381C185.882 111.455 185.862 111.535 185.857 111.617C185.853 111.699 185.864 111.782 185.891 111.859C187.061 115.191 188.212 116.698 189.501 116.605C189.606 116.596 189.709 116.577 189.81 116.547ZM179.713 121.734C180.54 121.832 181.497 121.277 182.627 120.047C183.169 119.45 183.666 118.815 184.116 118.147C184.161 118.078 184.192 118.002 184.208 117.921C184.223 117.84 184.222 117.757 184.206 117.677C184.189 117.596 184.157 117.52 184.111 117.452C184.065 117.384 184.005 117.326 183.937 117.28C183.868 117.235 183.791 117.204 183.71 117.189C183.63 117.173 183.547 117.174 183.466 117.191C183.386 117.207 183.309 117.239 183.241 117.286C183.173 117.332 183.115 117.391 183.07 117.46C181.89 119.251 180.36 120.663 179.798 120.478C179.706 120.448 178.906 120.065 179.117 115.971C179.121 115.889 179.109 115.807 179.082 115.729C179.054 115.652 179.012 115.581 178.957 115.52C178.902 115.459 178.835 115.409 178.761 115.374C178.687 115.338 178.606 115.318 178.524 115.314C178.442 115.31 178.36 115.321 178.282 115.349C178.205 115.377 178.134 115.419 178.072 115.474C178.011 115.529 177.962 115.596 177.926 115.67C177.891 115.744 177.871 115.825 177.867 115.907C177.685 119.43 178.175 121.263 179.409 121.665C179.508 121.698 179.609 121.721 179.713 121.734ZM186.527 127.694C187.301 127.678 188.104 127.045 188.982 125.773C189.4 125.157 189.773 124.511 190.099 123.84C190.161 123.702 190.167 123.545 190.114 123.403C190.062 123.26 189.956 123.144 189.819 123.079C189.682 123.014 189.525 123.005 189.381 123.055C189.238 123.105 189.12 123.209 189.052 123.345C188.201 125.139 186.981 126.628 186.442 126.531C186.356 126.516 185.572 126.267 185.239 122.492C185.232 122.416 185.211 122.343 185.176 122.275C185.141 122.208 185.093 122.148 185.034 122.099C184.976 122.05 184.909 122.013 184.836 121.99C184.764 121.967 184.687 121.959 184.611 121.966C184.536 121.972 184.462 121.994 184.394 122.029C184.327 122.064 184.267 122.112 184.218 122.171C184.169 122.229 184.132 122.296 184.11 122.369C184.087 122.441 184.078 122.518 184.085 122.594C184.372 125.848 185.057 127.463 186.239 127.674C186.335 127.69 186.431 127.697 186.527 127.694ZM175.546 133.072C176.342 133.317 177.384 132.942 178.716 131.936C179.356 131.446 179.959 130.911 180.521 130.334C180.636 130.214 180.698 130.053 180.694 129.887C180.691 129.721 180.621 129.564 180.501 129.449C180.381 129.335 180.22 129.272 180.054 129.276C179.889 129.28 179.731 129.349 179.616 129.469C178.134 131.021 176.376 132.133 175.856 131.851C175.771 131.804 175.053 131.284 175.995 127.296C176.014 127.216 176.017 127.133 176.004 127.052C175.99 126.971 175.961 126.893 175.918 126.823C175.875 126.753 175.819 126.693 175.752 126.645C175.685 126.597 175.61 126.562 175.53 126.543C175.45 126.524 175.367 126.521 175.286 126.534C175.205 126.548 175.127 126.577 175.057 126.62C174.987 126.663 174.927 126.719 174.879 126.786C174.83 126.853 174.796 126.928 174.777 127.008C173.966 130.446 174.12 132.336 175.261 132.952C175.352 133.001 175.447 133.041 175.546 133.072Z" fill="#22B0C3"/>
</svg>
