<svg width="174" height="174" viewBox="0 0 174 174" fill="none" xmlns="http://www.w3.org/2000/svg">
<path d="M114.188 107.252L120.611 113.767L134.123 116.776L131.003 126.583L132.815 134.359L138.151 132.635L144.495 120.602L148.601 107.552C139.625 101.179 136.752 92.7091 133.173 83.8472L114.188 107.252Z" fill="#E27022"/>
<path d="M74.7958 105.826L70.3999 112.694L66.5743 130.901L62.7028 135.14L55.5978 132.511L54.7924 119.823C54.7924 119.823 56.0007 108.922 57.209 104.002C58.4174 99.0812 70.0971 98.2837 70.0971 98.2837L74.7958 105.826Z" fill="#E27022"/>
<path d="M122.767 70.7601C122.724 70.7047 122.688 70.6593 122.661 70.624C122.692 70.6632 122.722 70.7026 122.767 70.7601Z" fill="#F4AA41"/>
<path d="M125.063 73.7326C124.802 73.3965 124.589 73.1222 124.375 72.8462C124.762 73.3457 125.063 73.7326 125.063 73.7326Z" fill="#F4AA41"/>
<path d="M124.386 72.8385C123.836 72.1299 123.11 71.1942 122.766 70.75C123.007 71.0608 123.514 71.7152 124.386 72.8385Z" fill="#F4AA41"/>
<path d="M162.255 39.9476L156.175 39.1904L145.807 42.9532C144.611 50.4352 142.885 62.3663 142.885 62.3663L133.059 71.6052L117.131 73.7891L103.453 67.907L65.9218 65.1375L50.3537 68.1293L35.0707 61.4738L24.7757 54.637L16.0201 56.423L20.2493 64.6807L12.2308 77.0057L14.5053 87.2451C14.5053 87.2451 25.6945 87.2674 31.2045 88.574L39.4115 85.6813C38.0881 91.3629 41.0688 97.3079 43.1525 102.451C36.2239 105.858 32.5675 108.76 30.5447 113.664C29.6163 115.917 29.0331 121.557 28.637 124.897L35.3989 129.88C35.3989 129.88 44.9157 129.125 41.0635 118.819L47.8278 112.214C51.4576 110.294 58.5819 106.958 58.5819 106.958L93.6236 108.715L100.253 116.422L97.0408 134.407L103.218 133.753L115.023 118.045V109.613C115.023 109.613 126.964 96.2419 129.574 88.1364L129.603 88.176C129.603 88.176 143.634 80.9164 149.009 69.9906C157.701 57.7768 147.371 45.8844 159.734 49.9033C162.849 50.9156 166.701 44.6253 162.924 40.6982C162.241 39.9444 162.472 40.1991 162.241 39.9444L162.255 39.9476Z" fill="#F4AA41"/>
<path d="M30.1117 86.3716C24.4736 88.7882 18.2289 88.3854 18.2289 88.3854C14.1762 88.7377 10.701 78.6945 12.2235 76.9473L20.242 64.6223L16.0128 56.3645C16.0128 56.3645 28.1155 52.9449 35.0634 61.4154C35.8957 62.4304 36.983 63.2107 38.1543 63.8009C38.2264 63.8371 38.2998 63.8738 38.3747 63.9111C44.6412 67.0261 51.7776 67.7076 58.6385 66.3231C76.0917 62.7996 92.641 63.0123 111.08 71.6688C129.507 80.3277 146.194 66.2313 144.043 53.5438C142.127 42.3135 152.652 35.2182 160.356 41.4605" stroke="black" stroke-width="6" stroke-miterlimit="10" stroke-linecap="round" stroke-linejoin="round"/>
<path d="M38.7875 117.981C40.2389 112.65 59.3074 109.165 59.3074 109.165C59.3074 109.165 67.1084 106.263 62.7536 98.2808" stroke="black" stroke-width="6" stroke-miterlimit="10" stroke-linecap="round" stroke-linejoin="round"/>
<path d="M44.225 80.3301C40.4961 84.7622 34.8169 91.9373 43.1617 102.462C43.1617 102.462 26.8347 109.357 28.6472 121.875C28.6472 121.875 29.523 127.859 34.452 127.68" stroke="black" stroke-width="6" stroke-miterlimit="10" stroke-linecap="round" stroke-linejoin="round"/>
<path d="M56.7917 120.906C53.998 138.436 62.5578 135.539 64.0828 134.587C66.8571 132.853 68.5488 110.773 73.6334 107.254C77.4808 104.586 93.3703 106.524 93.3703 106.524" stroke="black" stroke-width="6" stroke-miterlimit="10" stroke-linecap="round" stroke-linejoin="round"/>
<path d="M92.8967 99.8809C93.1168 104.091 94.7162 108.102 97.0872 111.59C98.686 113.94 101.444 117.196 100.599 118.803C89.7743 139.345 102.103 135.773 103.216 133.707C110.92 119.408 118.018 123.789 114.446 108.284C114.446 108.284 127.182 103.909 127.786 89.0059" stroke="black" stroke-width="6" stroke-miterlimit="10" stroke-linecap="round" stroke-linejoin="round"/>
<path d="M116.362 110.176C116.362 110.176 122.083 117.919 135.111 116.684C135.111 116.684 127.073 133.025 135.111 135.099C139.744 136.293 146.522 108.129 146.522 108.129C146.522 108.129 142.078 106.211 136.974 98.0225" stroke="black" stroke-width="6" stroke-miterlimit="10" stroke-linecap="round" stroke-linejoin="round"/>
<path d="M50.7044 49.0801C50.0858 49.1868 49.4671 49.1335 48.8484 48.9201C48.2511 48.7068 47.7498 48.3655 47.3444 47.8961C46.9604 47.4055 46.7684 46.8188 46.7684 46.1361C46.7044 45.4961 46.7578 44.7388 46.9284 43.8641C47.1204 42.9681 47.3978 42.0721 47.7604 41.1761C48.1444 40.2801 48.5818 39.5228 49.0724 38.9041C49.4991 38.3921 49.9258 37.9228 50.3524 37.4961C50.7791 37.0695 51.1631 36.7815 51.5044 36.6321C51.8031 36.5041 52.1658 36.4081 52.5924 36.3441C53.0404 36.2588 53.3498 36.2161 53.5204 36.2161C53.8618 36.3015 54.2351 36.4401 54.6404 36.6321C55.0671 36.8241 55.2804 37.0481 55.2804 37.3041C55.2804 37.3041 55.3018 37.3361 55.3444 37.4001C55.4084 37.4428 55.4404 37.4641 55.4404 37.4641C55.5684 37.4641 55.7071 37.6241 55.8564 37.9441C56.0271 38.2428 56.1551 38.5948 56.2404 39.0001C56.3258 39.3841 56.3044 39.6935 56.1764 39.9281C56.0911 40.3335 55.9204 40.7281 55.6644 41.1121C55.4298 41.4961 55.2271 41.6881 55.0564 41.6881C54.9711 41.6881 54.8858 41.6988 54.8004 41.7201C54.7364 41.7201 54.7044 41.7735 54.7044 41.8801C54.7044 41.9868 54.5871 42.0401 54.3524 42.0401C54.1391 42.0401 53.9151 41.9975 53.6804 41.9121C53.4458 41.8268 53.2964 41.6988 53.2324 41.5281C53.2324 41.4215 53.2538 41.2828 53.2964 41.1121C53.3391 40.9415 53.4031 40.6535 53.4884 40.2481C53.6164 39.6508 53.6271 39.2561 53.5204 39.0641C53.4138 38.8508 53.1471 38.8295 52.7204 39.0001C52.1871 39.2988 51.7498 39.6508 51.4084 40.0561C51.0671 40.4401 50.7578 40.9841 50.4804 41.6881C50.2244 42.3921 49.9364 43.3735 49.6164 44.6321C49.4884 45.1228 49.4671 45.5068 49.5524 45.7841C49.6591 46.0615 49.7444 46.2108 49.8084 46.2321C50.1071 46.3175 50.4271 46.3388 50.7684 46.2961C51.1311 46.2321 51.4298 46.1361 51.6644 46.0081C52.0058 45.8375 52.3044 45.6561 52.5604 45.4641C52.8378 45.2508 53.1364 45.0268 53.4564 44.7921C53.5631 44.7281 53.6591 44.6108 53.7444 44.4401C53.8298 44.2481 53.9578 44.1095 54.1284 44.0241C54.2991 43.7681 54.5124 43.6401 54.7684 43.6401C55.0458 43.6188 55.3124 43.6081 55.5684 43.6081C55.7391 43.6508 55.9204 43.7575 56.1124 43.9281C56.3044 44.0988 56.4431 44.2695 56.5284 44.4401C56.6351 44.5895 56.6244 44.6961 56.4964 44.7601C56.4111 44.7601 56.3578 44.7921 56.3364 44.8561C56.3364 44.8988 56.3364 44.9201 56.3364 44.9201C56.3791 45.0055 56.2831 45.1975 56.0484 45.4961C55.8351 45.7948 55.5578 46.1148 55.2164 46.4561C54.8751 46.7975 54.5444 47.0961 54.2244 47.3521C53.9258 47.5868 53.7124 47.7041 53.5844 47.7041C53.3711 47.7041 53.2644 47.7681 53.2644 47.8961C53.2644 47.9388 53.1044 48.0455 52.7844 48.2161C52.4858 48.3868 52.1338 48.5575 51.7284 48.7281C51.3444 48.8988 51.0031 49.0161 50.7044 49.0801ZM59.2567 48.2801C59.1714 48.1095 58.9794 47.9388 58.6807 47.7681C58.4034 47.5975 58.2647 47.4695 58.2647 47.3841C58.2647 47.2988 58.2114 47.1708 58.1047 47.0001C58.0194 46.8081 57.934 46.6695 57.8487 46.5841C57.742 46.4561 57.774 46.1468 57.9447 45.6561C58.1154 45.1441 58.3714 44.5255 58.7127 43.8001C59.054 43.0748 59.4274 42.3388 59.8327 41.5921C60.0034 41.4215 60.174 41.1975 60.3447 40.9201C60.5154 40.6428 60.6434 40.4615 60.7287 40.3761C60.7287 40.2908 60.7607 40.2161 60.8247 40.1521C60.8887 40.0668 60.9634 40.0241 61.0487 40.0241L61.3047 39.5121C61.3474 39.4268 61.4754 39.2561 61.6887 39.0001C61.9234 38.7441 62.2007 38.4668 62.5207 38.1681C62.8407 37.8481 63.1607 37.5495 63.4807 37.2721C63.822 36.9948 64.0994 36.7921 64.3127 36.6641C64.7607 36.3655 65.2194 36.2268 65.6887 36.2481C66.1794 36.2695 66.5954 36.4188 66.9367 36.6961C67.0007 36.7601 67.1394 36.8881 67.3527 37.0801C67.5874 37.2721 67.8434 37.4855 68.1207 37.7201C68.4194 37.9548 68.6754 38.1681 68.8887 38.3601L70.0727 39.4161L69.5287 41.0161C69.2514 41.8695 69.1767 42.6161 69.3047 43.2561C69.4327 43.8961 69.6354 44.4508 69.9127 44.9201C70.0194 45.1548 70.158 45.3361 70.3287 45.4641C70.5207 45.5921 70.766 45.6775 71.0647 45.7201C71.2354 45.7415 71.3954 45.8055 71.5447 45.9121C71.694 46.0188 71.7687 46.1895 71.7687 46.4241C71.7687 46.9361 71.6727 47.3095 71.4807 47.5441C71.31 47.7575 71.118 47.8855 70.9047 47.9281C70.2007 48.0135 69.5287 47.9388 68.8887 47.7041C68.2487 47.4695 67.6727 46.8615 67.1607 45.8801C67.0754 45.7521 66.958 45.5175 66.8087 45.1761C66.6807 44.8135 66.606 44.5788 66.5847 44.4721C66.4994 44.5788 66.382 44.7175 66.2327 44.8881C66.1047 45.0375 65.9767 45.1761 65.8487 45.3041C64.334 46.8401 63.0327 47.8428 61.9447 48.3121C60.878 48.7601 59.982 48.7495 59.2567 48.2801ZM61.0167 45.6241C61.166 45.6455 61.4007 45.5708 61.7207 45.4001C62.0407 45.2081 62.4674 44.8988 63.0007 44.4721C63.726 43.8535 64.3234 43.3415 64.7927 42.9361C65.262 42.5308 65.7207 42.0081 66.1687 41.3681L66.8727 40.2161C66.6594 39.7255 66.4674 39.4055 66.2967 39.2561C66.126 39.1068 65.9554 39.0321 65.7847 39.0321C65.5074 39.0321 65.1767 39.2135 64.7927 39.5761C64.4087 39.9175 63.9714 40.4295 63.4807 41.1121C63.0114 41.7735 62.478 42.6055 61.8807 43.6081C61.6034 44.0775 61.39 44.5361 61.2407 44.9841C61.0914 45.4108 61.0167 45.6241 61.0167 45.6241ZM76.9299 49.1441C76.6313 49.0588 76.3326 48.9095 76.0339 48.6961C75.7353 48.4828 75.4259 48.2375 75.1059 47.9601C74.8499 47.6188 74.6686 47.3095 74.5619 47.0321C74.4553 46.7335 74.3913 46.3921 74.3699 46.0081C74.3699 45.6028 74.3699 45.0908 74.3699 44.4721C74.3699 44.2161 74.4126 43.8535 74.4979 43.3841C74.6046 42.9148 74.7113 42.4241 74.8179 41.9121C74.9459 41.4001 75.0633 40.9521 75.1699 40.5681C75.2766 40.1628 75.3406 39.8961 75.3619 39.7681C75.4259 39.4908 75.3193 39.3308 75.0419 39.2881C74.7646 39.2455 74.4553 39.2348 74.1139 39.2561C73.7939 39.2561 73.5806 39.2241 73.4739 39.1601C73.3886 39.1388 73.3459 39.0321 73.3459 38.8401C73.3459 38.6268 73.3459 38.5201 73.3459 38.5201C73.3459 38.4348 73.3033 38.3815 73.2179 38.3601C73.1326 38.3175 73.0579 38.2428 72.9939 38.1361C72.9513 38.0508 73.0046 37.8908 73.1539 37.6561C73.3033 37.4215 73.4953 37.2828 73.7299 37.2401C73.9219 37.1975 74.2099 37.1655 74.5939 37.1441C74.9779 37.1015 75.3619 37.0268 75.7459 36.9201C76.1513 36.7921 76.4606 36.6001 76.6739 36.3441C76.8659 35.8748 77.0793 35.3735 77.3139 34.8401C77.5486 34.2855 77.7726 33.8055 77.9859 33.4001C78.1993 32.9735 78.3486 32.7068 78.4339 32.6001C78.7966 32.4081 79.1699 32.3335 79.5539 32.3761C79.9379 32.3975 80.2366 32.5788 80.4499 32.9201C80.5566 33.0695 80.6419 33.1761 80.7059 33.2401C80.7913 33.3041 80.8233 33.4001 80.8019 33.5281C80.8019 33.6561 80.7166 33.8908 80.5459 34.2321C80.3966 34.5521 80.1406 35.0535 79.7779 35.7361C79.6713 35.9495 79.5753 36.1415 79.4899 36.3121C79.4046 36.4615 79.3619 36.5361 79.3619 36.5361C79.4473 36.5575 79.5753 36.5681 79.7459 36.5681C79.9166 36.5681 80.1299 36.5575 80.3859 36.5361C80.6206 36.4935 80.8766 36.4615 81.1539 36.4401C81.4313 36.3975 81.6766 36.3975 81.8899 36.4401C82.3806 36.4401 82.7433 36.5788 82.9779 36.8561C83.2126 37.1335 83.3406 37.4855 83.3619 37.9121C83.4046 38.1468 83.3193 38.3495 83.1059 38.5201C82.8926 38.6908 82.4979 38.7761 81.9219 38.7761C81.7299 38.7761 81.4526 38.7868 81.0899 38.8081C80.7273 38.8295 80.3539 38.8508 79.9699 38.8721C79.5859 38.8935 79.2553 38.9255 78.9779 38.9681C78.7219 38.9895 78.5939 39.0215 78.5939 39.0641C78.5299 39.1068 78.4233 39.2775 78.2739 39.5761C78.1459 39.8535 78.0073 40.1948 77.8579 40.6001C77.7299 41.0055 77.6126 41.3895 77.5059 41.7521C77.3566 42.4775 77.2499 43.1815 77.1859 43.8641C77.1219 44.5468 77.1113 45.1441 77.1539 45.6561C77.2179 46.1468 77.3459 46.4988 77.5379 46.7121C77.7299 46.9041 78.0179 46.9041 78.4019 46.7121C78.8073 46.4988 79.1806 46.2535 79.5219 45.9761C79.9059 45.6561 80.2366 45.5601 80.5139 45.6881C80.7913 45.7948 80.9619 46.0295 81.0259 46.3921C81.1113 46.7335 81.0153 47.1068 80.7379 47.5121C80.4819 47.9175 80.1193 48.2588 79.6499 48.5361C79.1806 48.8135 78.7006 49.0055 78.2099 49.1121C77.7193 49.2401 77.2926 49.2508 76.9299 49.1441ZM99.5297 49.5281C99.4657 49.5708 99.3057 49.5815 99.0497 49.5601C98.815 49.5388 98.559 49.4748 98.2817 49.3681C98.0257 49.2828 97.823 49.1761 97.6737 49.0481C97.5884 48.9628 97.503 48.8668 97.4177 48.7601C97.3324 48.6321 97.2897 48.4188 97.2897 48.1201C97.311 47.8215 97.3857 47.3415 97.5137 46.6801C97.599 46.2535 97.7057 45.8055 97.8337 45.3361C97.9617 44.8668 98.079 44.4615 98.1857 44.1201C98.2924 43.7788 98.3457 43.6081 98.3457 43.6081C98.4524 43.5655 98.6017 43.2455 98.7937 42.6481C99.007 42.0508 99.2417 41.3255 99.4977 40.4721C99.583 40.1735 99.7324 39.6721 99.9457 38.9681C100.159 38.2641 100.372 37.5815 100.586 36.9201C100.778 36.3015 100.959 35.8215 101.13 35.4801C101.3 35.1388 101.386 34.9681 101.386 34.9681C101.386 34.9681 101.258 35.0428 101.002 35.1921C100.746 35.3415 100.415 35.5441 100.01 35.8001C99.6044 36.0561 99.1777 36.3548 98.7297 36.6961C98.367 36.9095 97.951 37.2081 97.4817 37.5921C97.0337 37.9548 96.6177 38.2535 96.2337 38.4881C95.6577 38.9361 95.263 39.2241 95.0497 39.3521C94.8577 39.4801 94.6657 39.4908 94.4737 39.3841C94.1964 39.1495 93.9297 38.8081 93.6737 38.3601C93.439 37.8908 93.3857 37.5495 93.5137 37.3361C93.5564 37.3148 93.695 37.2188 93.9297 37.0481C94.1857 36.8775 94.4737 36.6748 94.7937 36.4401C95.1137 36.2055 95.4017 35.9921 95.6577 35.8001C95.935 35.6081 96.127 35.4801 96.2337 35.4161C96.2977 35.4161 96.415 35.3415 96.5857 35.1921C96.7564 35.0428 96.9377 34.9041 97.1297 34.7761C97.2364 34.6481 97.6097 34.3601 98.2497 33.9121C98.8897 33.4641 99.583 32.9628 100.33 32.4081C101.119 31.9175 101.823 31.5228 102.442 31.2241C103.06 30.9255 103.412 30.7868 103.498 30.8081C103.562 30.8081 103.711 30.8828 103.946 31.0321C104.202 31.1815 104.447 31.3521 104.682 31.5441C104.916 31.7361 105.044 31.8961 105.066 32.0241C105.194 32.1735 105.13 32.5148 104.874 33.0481C104.788 33.2401 104.65 33.5921 104.458 34.1041C104.266 34.5948 104.052 35.1708 103.818 35.8321C103.604 36.4721 103.391 37.1121 103.178 37.7521C102.986 38.3708 102.826 38.9041 102.698 39.3521C102.527 40.0135 102.367 40.5255 102.218 40.8881C102.09 41.2508 101.962 41.6028 101.834 41.9441C101.727 42.2641 101.599 42.7121 101.45 43.2881C101.3 43.6295 101.14 44.0668 100.97 44.6001C100.82 45.1121 100.682 45.6241 100.554 46.1361C100.426 46.6268 100.33 47.0321 100.266 47.3521C100.095 47.8215 99.9564 48.2801 99.8497 48.7281C99.743 49.1761 99.6364 49.4428 99.5297 49.5281Z" fill="#1C1C1C"/>
</svg>
