<svg width="167" height="167" viewBox="0 0 167 167" fill="none" xmlns="http://www.w3.org/2000/svg">
<path d="M57.4062 102.937L51.2412 109.19L38.2732 112.078L41.2676 121.49L39.528 128.954L34.4066 127.299L28.3181 115.751L24.3774 103.226C32.9918 97.1092 35.7496 88.9795 39.1847 80.4741L57.4062 102.937Z" fill="#E27022"/>
<path d="M95.2132 101.569L99.4323 108.16L103.104 125.635L106.82 129.703L113.639 127.18L114.412 115.003C114.412 115.003 113.252 104.54 112.092 99.8174C110.933 95.095 99.7229 94.3296 99.7229 94.3296L95.2132 101.569Z" fill="#E27022"/>
<path d="M49.1722 67.9133C49.2135 67.8602 49.2474 67.8166 49.2734 67.7827C49.2444 67.8203 49.2151 67.8581 49.1722 67.9133Z" fill="#F4AA41"/>
<path d="M46.9688 70.7663C47.219 70.4437 47.4231 70.1804 47.6286 69.9155C47.2568 70.395 46.9688 70.7663 46.9688 70.7663Z" fill="#F4AA41"/>
<path d="M47.6182 69.9083C48.1459 69.2282 48.8424 68.3301 49.1729 67.9038C48.9414 68.2021 48.4546 68.8302 47.6182 69.9083Z" fill="#F4AA41"/>
<path d="M11.2725 38.3405L17.1082 37.6138L27.0587 41.2251C28.2065 48.4061 29.8629 59.8572 29.8629 59.8572L39.2937 68.7245L54.5812 70.8206L67.7092 65.175L103.73 62.5169L118.672 65.3884L133.34 59.0007L143.221 52.439L151.624 54.153L147.565 62.0786L155.261 73.9077L153.078 83.7352C153.078 83.7352 142.339 83.7566 137.051 85.0107L129.174 82.2343C130.444 87.6873 127.583 93.3932 125.584 98.3289C132.233 101.599 135.743 104.385 137.684 109.091C138.575 111.253 139.135 116.666 139.515 119.872L133.025 124.655C133.025 124.655 123.891 123.93 127.588 114.039L121.096 107.699C117.613 105.857 110.775 102.655 110.775 102.655L77.1429 104.342L70.7806 111.738L73.8632 129L67.9347 128.372L56.6042 113.296V105.204C56.6042 105.204 45.1438 92.3701 42.6388 84.5906L42.6112 84.6287C42.6112 84.6287 29.1445 77.6611 23.9861 67.1749C15.643 55.4524 25.5573 44.0384 13.6924 47.8956C10.7026 48.8672 7.00543 42.83 10.6307 39.0609C11.2862 38.3374 11.0647 38.5819 11.2862 38.3374L11.2725 38.3405Z" fill="#F4AA41"/>
<path d="M138.1 82.897C143.511 85.2164 149.504 84.8298 149.504 84.8298C153.394 85.168 156.729 75.5288 155.268 73.8518L147.572 62.0227L151.631 54.0971C151.631 54.0971 140.016 50.8151 133.347 58.9448C132.548 59.9189 131.505 60.6679 130.381 61.2343C130.311 61.2691 130.241 61.3043 130.169 61.3401C124.155 64.3298 117.305 64.9839 110.721 63.6551C93.9695 60.2734 78.0859 60.4775 60.3886 68.7857C42.7028 77.0963 26.687 63.567 28.7514 51.3899C30.5907 40.6114 20.4895 33.8015 13.0951 39.7927" stroke="black" stroke-width="6" stroke-miterlimit="10" stroke-linecap="round" stroke-linejoin="round"/>
<path d="M129.773 113.235C128.38 108.119 110.079 104.774 110.079 104.774C110.079 104.774 102.591 101.988 106.771 94.3271" stroke="black" stroke-width="6" stroke-miterlimit="10" stroke-linecap="round" stroke-linejoin="round"/>
<path d="M124.554 77.0981C128.133 81.352 133.584 88.2384 125.575 98.3396C125.575 98.3396 141.245 104.957 139.505 116.972C139.505 116.972 138.665 122.715 133.934 122.543" stroke="black" stroke-width="6" stroke-miterlimit="10" stroke-linecap="round" stroke-linejoin="round"/>
<path d="M112.493 116.042C115.174 132.867 106.959 130.086 105.495 129.172C102.833 127.508 101.209 106.316 96.3288 102.939C92.6363 100.378 77.3859 102.238 77.3859 102.238" stroke="black" stroke-width="6" stroke-miterlimit="10" stroke-linecap="round" stroke-linejoin="round"/>
<path d="M77.8406 95.8628C77.6293 99.9033 76.0943 103.754 73.8186 107.1C72.2841 109.357 69.6367 112.482 70.4485 114.024C80.8373 133.739 69.0049 130.311 67.9365 128.328C60.5422 114.604 53.7299 118.809 57.1581 103.927C57.1581 103.927 44.9346 99.7293 44.3548 85.4253" stroke="black" stroke-width="6" stroke-miterlimit="10" stroke-linecap="round" stroke-linejoin="round"/>
<path d="M55.3187 105.744C55.3187 105.744 49.8286 113.175 37.3245 111.99C37.3245 111.99 45.039 127.674 37.3245 129.664C32.8781 130.81 26.3721 103.779 26.3721 103.779C26.3721 103.779 30.6375 101.938 35.5362 94.0791" stroke="black" stroke-width="6" stroke-miterlimit="10" stroke-linecap="round" stroke-linejoin="round"/>
<path d="M51.2283 38.128C50.6096 38.2347 49.9909 38.1813 49.3723 37.968C48.7749 37.7547 48.2736 37.4133 47.8683 36.944C47.4843 36.4533 47.2923 35.8667 47.2923 35.184C47.2283 34.544 47.2816 33.7867 47.4523 32.912C47.6443 32.016 47.9216 31.12 48.2843 30.224C48.6683 29.328 49.1056 28.5707 49.5963 27.952C50.0229 27.44 50.4496 26.9707 50.8763 26.544C51.3029 26.1173 51.6869 25.8293 52.0283 25.68C52.3269 25.552 52.6896 25.456 53.1163 25.392C53.5643 25.3067 53.8736 25.264 54.0443 25.264C54.3856 25.3493 54.7589 25.488 55.1643 25.68C55.5909 25.872 55.8043 26.096 55.8043 26.352C55.8043 26.352 55.8256 26.384 55.8683 26.448C55.9323 26.4907 55.9643 26.512 55.9643 26.512C56.0923 26.512 56.2309 26.672 56.3803 26.992C56.5509 27.2907 56.6789 27.6427 56.7643 28.048C56.8496 28.432 56.8283 28.7413 56.7003 28.976C56.6149 29.3813 56.4443 29.776 56.1883 30.16C55.9536 30.544 55.7509 30.736 55.5803 30.736C55.4949 30.736 55.4096 30.7467 55.3243 30.768C55.2603 30.768 55.2283 30.8213 55.2283 30.928C55.2283 31.0347 55.1109 31.088 54.8763 31.088C54.6629 31.088 54.4389 31.0453 54.2043 30.96C53.9696 30.8747 53.8203 30.7467 53.7563 30.576C53.7563 30.4693 53.7776 30.3307 53.8203 30.16C53.8629 29.9893 53.9269 29.7013 54.0123 29.296C54.1403 28.6987 54.1509 28.304 54.0443 28.112C53.9376 27.8987 53.6709 27.8773 53.2443 28.048C52.7109 28.3467 52.2736 28.6987 51.9323 29.104C51.5909 29.488 51.2816 30.032 51.0043 30.736C50.7483 31.44 50.4603 32.4213 50.1403 33.68C50.0123 34.1707 49.9909 34.5547 50.0763 34.832C50.1829 35.1093 50.2683 35.2587 50.3323 35.28C50.6309 35.3653 50.9509 35.3867 51.2923 35.344C51.6549 35.28 51.9536 35.184 52.1883 35.056C52.5296 34.8853 52.8283 34.704 53.0843 34.512C53.3616 34.2987 53.6603 34.0747 53.9803 33.84C54.0869 33.776 54.1829 33.6587 54.2683 33.488C54.3536 33.296 54.4816 33.1573 54.6523 33.072C54.8229 32.816 55.0363 32.688 55.2923 32.688C55.5696 32.6667 55.8363 32.656 56.0923 32.656C56.2629 32.6987 56.4443 32.8053 56.6363 32.976C56.8283 33.1467 56.9669 33.3173 57.0523 33.488C57.1589 33.6373 57.1483 33.744 57.0203 33.808C56.9349 33.808 56.8816 33.84 56.8603 33.904C56.8603 33.9467 56.8603 33.968 56.8603 33.968C56.9029 34.0533 56.8069 34.2453 56.5723 34.544C56.3589 34.8427 56.0816 35.1627 55.7403 35.504C55.3989 35.8453 55.0683 36.144 54.7483 36.4C54.4496 36.6347 54.2363 36.752 54.1083 36.752C53.8949 36.752 53.7883 36.816 53.7883 36.944C53.7883 36.9867 53.6283 37.0933 53.3083 37.264C53.0096 37.4347 52.6576 37.6053 52.2523 37.776C51.8683 37.9467 51.5269 38.064 51.2283 38.128ZM59.7805 37.328C59.6952 37.1573 59.5032 36.9867 59.2045 36.816C58.9272 36.6453 58.7885 36.5173 58.7885 36.432C58.7885 36.3467 58.7352 36.2187 58.6285 36.048C58.5432 35.856 58.4578 35.7173 58.3725 35.632C58.2658 35.504 58.2978 35.1947 58.4685 34.704C58.6392 34.192 58.8952 33.5733 59.2365 32.848C59.5778 32.1227 59.9512 31.3867 60.3565 30.64C60.5272 30.4693 60.6978 30.2453 60.8685 29.968C61.0392 29.6907 61.1672 29.5093 61.2525 29.424C61.2525 29.3387 61.2845 29.264 61.3485 29.2C61.4125 29.1147 61.4872 29.072 61.5725 29.072L61.8285 28.56C61.8712 28.4747 61.9992 28.304 62.2125 28.048C62.4472 27.792 62.7245 27.5147 63.0445 27.216C63.3645 26.896 63.6845 26.5973 64.0045 26.32C64.3458 26.0427 64.6232 25.84 64.8365 25.712C65.2845 25.4133 65.7432 25.2747 66.2125 25.296C66.7032 25.3173 67.1192 25.4667 67.4605 25.744C67.5245 25.808 67.6632 25.936 67.8765 26.128C68.1112 26.32 68.3672 26.5333 68.6445 26.768C68.9432 27.0027 69.1992 27.216 69.4125 27.408L70.5965 28.464L70.0525 30.064C69.7752 30.9173 69.7005 31.664 69.8285 32.304C69.9565 32.944 70.1592 33.4987 70.4365 33.968C70.5432 34.2027 70.6818 34.384 70.8525 34.512C71.0445 34.64 71.2898 34.7253 71.5885 34.768C71.7592 34.7893 71.9192 34.8533 72.0685 34.96C72.2178 35.0667 72.2925 35.2373 72.2925 35.472C72.2925 35.984 72.1965 36.3573 72.0045 36.592C71.8338 36.8053 71.6418 36.9333 71.4285 36.976C70.7245 37.0613 70.0525 36.9867 69.4125 36.752C68.7725 36.5173 68.1965 35.9093 67.6845 34.928C67.5992 34.8 67.4818 34.5653 67.3325 34.224C67.2045 33.8613 67.1298 33.6267 67.1085 33.52C67.0232 33.6267 66.9058 33.7653 66.7565 33.936C66.6285 34.0853 66.5005 34.224 66.3725 34.352C64.8578 35.888 63.5565 36.8907 62.4685 37.36C61.4018 37.808 60.5058 37.7973 59.7805 37.328ZM61.5405 34.672C61.6898 34.6933 61.9245 34.6187 62.2445 34.448C62.5645 34.256 62.9912 33.9467 63.5245 33.52C64.2498 32.9013 64.8472 32.3893 65.3165 31.984C65.7858 31.5787 66.2445 31.056 66.6925 30.416L67.3965 29.264C67.1832 28.7733 66.9912 28.4533 66.8205 28.304C66.6498 28.1547 66.4792 28.08 66.3085 28.08C66.0312 28.08 65.7005 28.2613 65.3165 28.624C64.9325 28.9653 64.4952 29.4773 64.0045 30.16C63.5352 30.8213 63.0018 31.6533 62.4045 32.656C62.1272 33.1253 61.9138 33.584 61.7645 34.032C61.6152 34.4587 61.5405 34.672 61.5405 34.672ZM77.4538 38.192C77.1551 38.1067 76.8564 37.9573 76.5578 37.744C76.2591 37.5307 75.9498 37.2853 75.6298 37.008C75.3738 36.6667 75.1924 36.3573 75.0858 36.08C74.9791 35.7813 74.9151 35.44 74.8938 35.056C74.8938 34.6507 74.8938 34.1387 74.8938 33.52C74.8938 33.264 74.9364 32.9013 75.0218 32.432C75.1284 31.9627 75.2351 31.472 75.3418 30.96C75.4698 30.448 75.5871 30 75.6938 29.616C75.8004 29.2107 75.8644 28.944 75.8858 28.816C75.9498 28.5387 75.8431 28.3787 75.5658 28.336C75.2884 28.2933 74.9791 28.2827 74.6378 28.304C74.3178 28.304 74.1044 28.272 73.9978 28.208C73.9124 28.1867 73.8698 28.08 73.8698 27.888C73.8698 27.6747 73.8698 27.568 73.8698 27.568C73.8698 27.4827 73.8271 27.4293 73.7418 27.408C73.6564 27.3653 73.5818 27.2907 73.5178 27.184C73.4751 27.0987 73.5284 26.9387 73.6778 26.704C73.8271 26.4693 74.0191 26.3307 74.2538 26.288C74.4458 26.2453 74.7338 26.2133 75.1178 26.192C75.5018 26.1493 75.8858 26.0747 76.2698 25.968C76.6751 25.84 76.9844 25.648 77.1978 25.392C77.3898 24.9227 77.6031 24.4213 77.8378 23.888C78.0724 23.3333 78.2964 22.8533 78.5098 22.448C78.7231 22.0213 78.8724 21.7547 78.9578 21.648C79.3204 21.456 79.6938 21.3813 80.0778 21.424C80.4618 21.4453 80.7604 21.6267 80.9738 21.968C81.0804 22.1173 81.1658 22.224 81.2298 22.288C81.3151 22.352 81.3471 22.448 81.3258 22.576C81.3258 22.704 81.2404 22.9387 81.0698 23.28C80.9204 23.6 80.6644 24.1013 80.3018 24.784C80.1951 24.9973 80.0991 25.1893 80.0138 25.36C79.9284 25.5093 79.8858 25.584 79.8858 25.584C79.9711 25.6053 80.0991 25.616 80.2698 25.616C80.4404 25.616 80.6538 25.6053 80.9098 25.584C81.1444 25.5413 81.4004 25.5093 81.6778 25.488C81.9551 25.4453 82.2004 25.4453 82.4138 25.488C82.9044 25.488 83.2671 25.6267 83.5018 25.904C83.7364 26.1813 83.8644 26.5333 83.8858 26.96C83.9284 27.1947 83.8431 27.3973 83.6298 27.568C83.4164 27.7387 83.0218 27.824 82.4458 27.824C82.2538 27.824 81.9764 27.8347 81.6138 27.856C81.2511 27.8773 80.8778 27.8987 80.4938 27.92C80.1098 27.9413 79.7791 27.9733 79.5017 28.016C79.2458 28.0373 79.1178 28.0693 79.1178 28.112C79.0538 28.1547 78.9471 28.3253 78.7978 28.624C78.6698 28.9013 78.5311 29.2427 78.3818 29.648C78.2538 30.0533 78.1364 30.4373 78.0298 30.8C77.8804 31.5253 77.7738 32.2293 77.7098 32.912C77.6458 33.5947 77.6351 34.192 77.6778 34.704C77.7418 35.1947 77.8698 35.5467 78.0618 35.76C78.2538 35.952 78.5418 35.952 78.9258 35.76C79.3311 35.5467 79.7044 35.3013 80.0458 35.024C80.4298 34.704 80.7604 34.608 81.0378 34.736C81.3151 34.8427 81.4858 35.0773 81.5498 35.44C81.6351 35.7813 81.5391 36.1547 81.2618 36.56C81.0058 36.9653 80.6431 37.3067 80.1738 37.584C79.7044 37.8613 79.2244 38.0533 78.7338 38.16C78.2431 38.288 77.8164 38.2987 77.4538 38.192ZM93.6215 37.744C93.5362 37.7013 93.3868 37.584 93.1735 37.392C92.9815 37.2 92.7895 36.9867 92.5975 36.752C92.4055 36.496 92.2775 36.304 92.2135 36.176C92.1495 36.0693 92.1495 35.8773 92.2135 35.6C92.2988 35.3227 92.3842 35.184 92.4695 35.184C92.5335 35.2267 92.6188 35.152 92.7255 34.96C92.8322 34.768 92.9388 34.5653 93.0455 34.352C93.1522 34.1173 93.2055 33.9787 93.2055 33.936C93.2268 33.8507 93.2802 33.7867 93.3655 33.744C93.4722 33.68 93.5682 33.616 93.6535 33.552C93.7602 33.3813 93.8988 33.2107 94.0695 33.04C94.2615 32.848 94.4108 32.688 94.5175 32.56C94.6882 32.3467 94.9975 32.0267 95.4455 31.6C95.8935 31.1733 96.3308 30.736 96.7575 30.288C97.2055 29.7973 97.6002 29.3707 97.9415 29.008C98.2828 28.624 98.4642 28.3573 98.4855 28.208C98.4855 28.208 98.5175 28.176 98.5815 28.112C98.6668 28.0267 98.7628 27.952 98.8695 27.888C98.9762 27.824 99.1148 27.7173 99.2855 27.568C99.4775 27.4187 99.6375 27.28 99.7655 27.152C99.8082 26.9813 99.9042 26.7893 100.054 26.576C100.224 26.3413 100.416 26.1173 100.63 25.904C100.8 25.648 100.96 25.3707 101.11 25.072C101.259 24.752 101.355 24.5173 101.398 24.368C101.462 24.1333 101.44 23.9947 101.334 23.952C101.227 23.888 100.939 23.7813 100.47 23.632C99.9575 23.4613 99.4775 23.4293 99.0295 23.536C98.5815 23.6427 97.9842 23.9627 97.2375 24.496C96.9388 24.56 96.6615 24.6453 96.4055 24.752C96.1708 24.8587 95.9682 24.9013 95.7975 24.88C95.7122 24.8373 95.6162 24.7413 95.5095 24.592C95.4028 24.4427 95.2855 24.304 95.1575 24.176L94.8375 22.8L95.8295 22.256C96.7042 21.7013 97.5362 21.2853 98.3255 21.008C99.1362 20.7093 99.8402 20.656 100.438 20.848C100.672 20.848 100.886 20.88 101.078 20.944C101.27 20.9867 101.366 21.008 101.366 21.008C101.536 20.9867 101.782 21.072 102.102 21.264C102.443 21.456 102.774 21.7013 103.094 22C103.435 22.2987 103.67 22.5973 103.798 22.896C104.139 23.408 104.267 24.0267 104.182 24.752C104.096 25.4773 103.787 26.2347 103.254 27.024C103.147 27.152 102.912 27.4187 102.55 27.824C102.187 28.2293 101.771 28.688 101.302 29.2C100.854 29.6907 100.438 30.128 100.054 30.512C99.6908 30.896 99.4562 31.1413 99.3495 31.248C99.2002 31.312 98.9442 31.5147 98.5815 31.856C98.2402 32.1973 97.8668 32.5813 97.4615 33.008C97.0775 33.4133 96.7468 33.776 96.4695 34.096C96.2135 34.3947 96.1068 34.544 96.1495 34.544C96.1282 34.6293 96.2348 34.6293 96.4695 34.544C96.7255 34.4373 96.9495 34.352 97.1415 34.288C97.4615 34.1813 97.8348 34.0853 98.2615 34C98.7095 33.8933 99.1575 33.808 99.6055 33.744C100.054 33.68 100.438 33.6373 100.758 33.616C101.099 33.5947 101.302 33.616 101.366 33.68C101.408 33.7867 101.44 33.8293 101.462 33.808C101.504 33.7653 101.526 33.744 101.526 33.744C101.568 33.5947 101.835 33.552 102.326 33.616C102.838 33.68 103.296 33.776 103.702 33.904C103.936 33.968 104.118 34.0533 104.246 34.16C104.395 34.2667 104.47 34.3627 104.47 34.448C104.47 34.448 104.491 34.5013 104.534 34.608C104.598 34.6933 104.694 34.8107 104.822 34.96C105.163 35.2373 105.163 35.536 104.822 35.856C104.502 36.176 103.915 36.2613 103.062 36.112C102.507 36.112 102.048 36.144 101.686 36.208C101.6 36.2507 101.419 36.272 101.142 36.272C100.864 36.272 100.598 36.2827 100.342 36.304C99.9575 36.2613 99.5735 36.2827 99.1895 36.368C98.8055 36.432 98.3468 36.5493 97.8135 36.72C97.6215 36.784 97.3228 36.88 96.9175 37.008C96.5122 37.136 96.0748 37.264 95.6055 37.392C95.1362 37.52 94.7095 37.616 94.3255 37.68C93.9628 37.744 93.7282 37.7653 93.6215 37.744Z" fill="#1C1C1C"/>
</svg>
