<svg width="275" height="224" viewBox="0 0 275 224" fill="none" xmlns="http://www.w3.org/2000/svg">
<g clip-path="url(#clip0_4_738)">
<path d="M169.714 140.035L176.965 148.382L194.609 155.515L188.188 164.104L188.907 172.248L196.526 172.225L207.815 162.469L216.298 151.026C205.555 142.024 203.553 132.875 200.682 123.124L169.714 140.035Z" fill="#E27022"/>
<path d="M116.632 126.399L109.138 131.727L99.8825 148.285L93.6868 151.213L84.6428 146.441L86.3867 133.824C86.3867 133.824 90.4614 123.574 93.1992 119.154C95.937 114.734 111.949 117.587 111.949 117.587L116.632 126.399Z" fill="#E27022"/>
<path d="M189.5 107.133C189.454 107.066 189.417 107.011 189.388 106.968C189.42 107.015 189.452 107.063 189.5 107.133Z" fill="#F4AA41"/>
<path d="M191.948 110.744C191.67 110.336 191.443 110.002 191.214 109.667C191.628 110.274 191.948 110.744 191.948 110.744Z" fill="#F4AA41"/>
<path d="M191.231 109.662C190.644 108.801 189.869 107.663 189.501 107.123C189.759 107.501 190.3 108.297 191.231 109.662Z" fill="#F4AA41"/>
<path d="M249.918 89.3756L241.845 86.7475L226.949 87.1922C223.656 94.1131 218.65 105.206 218.65 105.206L203.264 111.157L181.183 108.334L163.955 98.3483L113.697 83.982L91.9237 82.0586L72.6934 70.8206L60.2654 60.9565L47.997 59.9755L51.8844 69.339L38.2596 78.8596L39.0544 89.547C39.0544 89.547 54.2177 93.047 61.3951 96.0334L73.1672 95.7651C70.1033 100.892 72.8153 107.613 74.4905 113.273C64.3363 114.441 58.7309 116.133 54.8929 120.283C53.1307 122.191 51.0795 127.507 49.7961 130.639L57.8488 137.598C57.8488 137.598 70.9188 139.82 68.0002 128.578L78.6462 124.243C83.9959 123.5 94.3995 122.463 94.3995 122.463L141.51 135.069L148.774 144.641L140.4 161.173L148.92 162.456L168.434 150.815L170.319 142.596C170.319 142.596 189.495 133.275 194.844 126.186L194.875 126.234C194.875 126.234 215.518 123.519 225.246 114.541C239.76 105.338 228.415 90.5355 244.275 98.2957C248.272 100.251 254.9 95.3171 250.657 90.3151C249.9 89.3681 250.156 89.6882 249.9 89.3681L249.918 89.3756Z" fill="#F4AA41"/>
<path d="M60.4059 93.5471C52.2227 94.15 43.8473 91.8161 43.8473 91.8161C38.2746 90.8997 35.8083 80.0303 38.2628 78.8005L51.8876 69.28L48.0002 59.9164C48.0002 59.9164 65.1711 60.3456 72.6966 70.7616C73.598 72.0096 74.8975 73.1082 76.3535 74.0476C76.443 74.1053 76.5344 74.1639 76.6277 74.2235C84.4263 79.2077 93.9482 82.0904 103.558 82.8737C128.006 84.8649 150.393 90.2167 173.455 104.386C196.499 118.554 222.271 110.002 222.191 96.9668C222.104 85.4249 237.957 81.7808 247.006 90.2601" stroke="black" stroke-width="6" stroke-miterlimit="10" stroke-linecap="round" stroke-linejoin="round"/>
<path d="M65.1018 127.054C68.261 122.309 94.8895 124.84 94.8895 124.84C94.8895 124.84 106.113 124.436 101.994 115.302" stroke="black" stroke-width="6" stroke-miterlimit="10" stroke-linecap="round" stroke-linejoin="round"/>
<path d="M80.8886 92.0454C74.843 95.2062 65.5405 100.434 74.5004 113.287C74.5004 113.287 50.8261 114.932 50.4852 127.697C50.4852 127.697 50.335 133.801 57.0569 135.159" stroke="black" stroke-width="6" stroke-miterlimit="10" stroke-linecap="round" stroke-linejoin="round"/>
<path d="M88.855 135.501C81.1496 151.72 93.4011 151.557 95.6812 151.103C99.8296 150.275 107.058 129.28 114.737 127.431C120.549 126.026 141.656 132.854 141.656 132.854" stroke="black" stroke-width="6" stroke-miterlimit="10" stroke-linecap="round" stroke-linejoin="round"/>
<path d="M142.499 126.232C141.856 130.403 143.128 134.811 145.563 138.947C147.205 141.735 150.216 145.766 148.71 147.07C129.446 163.727 146.957 164.078 148.927 162.41C162.568 150.867 171.21 157.344 169.834 141.121C169.834 141.121 188.076 140.816 192.226 126.478" stroke="black" stroke-width="6" stroke-miterlimit="10" stroke-linecap="round" stroke-linejoin="round"/>
<path d="M172.009 143.561C172.009 143.561 178.032 152.887 195.97 155.733C195.97 155.733 181.421 169.162 191.854 173.682C197.867 176.286 213.352 150.942 213.352 150.942C213.352 150.942 207.756 147.691 202.667 138.123" stroke="black" stroke-width="6" stroke-miterlimit="10" stroke-linecap="round" stroke-linejoin="round"/>
<path d="M105.141 65.5461C104.514 65.5118 103.923 65.3215 103.367 64.9753C102.833 64.6339 102.42 64.1891 102.13 63.641C101.866 63.077 101.81 62.4622 101.962 61.7968C102.043 61.1587 102.264 60.4325 102.626 59.6181C103.013 58.7876 103.484 57.9763 104.038 57.184C104.612 56.3965 105.208 55.7561 105.824 55.2628C106.355 54.8591 106.875 54.497 107.387 54.1765C107.898 53.856 108.337 53.6611 108.703 53.5918C109.022 53.5338 109.397 53.5213 109.827 53.5543C110.283 53.5712 110.594 53.5988 110.761 53.6369C111.074 53.7964 111.407 54.015 111.759 54.2927C112.132 54.5753 112.29 54.8413 112.233 55.0908C112.233 55.0908 112.247 55.1268 112.274 55.1987C112.327 55.2546 112.353 55.2825 112.353 55.2825C112.478 55.3111 112.577 55.4981 112.651 55.8433C112.751 56.1726 112.797 56.5443 112.79 56.9585C112.787 57.3518 112.697 57.6486 112.52 57.8487C112.346 58.2247 112.091 58.5712 111.756 58.8883C111.441 59.2101 111.201 59.352 111.035 59.3138C110.952 59.2947 110.866 59.2861 110.778 59.2878C110.716 59.2735 110.673 59.3183 110.649 59.4223C110.625 59.5263 110.499 59.552 110.27 59.4996C110.062 59.4519 109.853 59.3602 109.643 59.2246C109.434 59.089 109.317 58.9308 109.293 58.7502C109.316 58.6462 109.368 58.5158 109.448 58.359C109.528 58.2022 109.654 57.9358 109.828 57.5598C110.086 57.0062 110.185 56.6239 110.124 56.4129C110.068 56.1811 109.813 56.1007 109.359 56.1717C108.772 56.3436 108.267 56.5889 107.844 56.9077C107.425 57.2057 107.002 57.6668 106.574 58.291C106.168 58.92 105.668 59.8121 105.074 60.9674C104.84 61.4171 104.733 61.7866 104.754 62.076C104.796 62.3701 104.846 62.5348 104.904 62.5699C105.176 62.7198 105.483 62.8121 105.825 62.8468C106.193 62.8655 106.506 62.8387 106.763 62.7664C107.134 62.6763 107.465 62.5663 107.758 62.4364C108.076 62.2905 108.417 62.1389 108.781 61.9817C108.9 61.9431 109.019 61.8502 109.141 61.703C109.267 61.5349 109.423 61.4283 109.608 61.3833C109.832 61.1719 110.068 61.0948 110.318 61.1521C110.593 61.1933 110.855 61.2425 111.105 61.2997C111.261 61.3794 111.414 61.5239 111.563 61.7332C111.712 61.9424 111.809 62.1398 111.854 62.3252C111.925 62.4946 111.891 62.5962 111.752 62.63C111.668 62.6109 111.609 62.6302 111.574 62.6878C111.565 62.7294 111.56 62.7501 111.56 62.7501C111.582 62.8429 111.446 63.0085 111.15 63.2472C110.876 63.4906 110.534 63.7406 110.125 63.997C109.716 64.2534 109.327 64.4706 108.958 64.6486C108.614 64.8105 108.38 64.8772 108.255 64.8486C108.047 64.8009 107.929 64.8395 107.9 64.9642C107.891 65.0058 107.711 65.074 107.361 65.1689C107.032 65.2684 106.651 65.3561 106.217 65.4319C105.805 65.5124 105.446 65.5505 105.141 65.5461ZM113.655 66.6779C113.61 66.4924 113.461 66.2832 113.208 66.0501C112.976 65.8217 112.87 65.666 112.889 65.5828C112.908 65.4996 112.884 65.3629 112.819 65.1728C112.778 64.9665 112.726 64.8123 112.662 64.7101C112.587 64.5615 112.687 64.2671 112.963 63.827C113.244 63.3661 113.632 62.8203 114.126 62.1896C114.621 61.5589 115.15 60.925 115.712 60.2878C115.916 60.1596 116.132 59.9794 116.361 59.7472C116.589 59.5151 116.754 59.3669 116.857 59.3028C116.876 59.2197 116.924 59.154 117 59.1059C117.082 59.0371 117.164 59.0122 117.247 59.0313L117.611 58.5894C117.672 58.5158 117.835 58.378 118.1 58.1762C118.386 57.9791 118.718 57.7708 119.097 57.5512C119.48 57.3108 119.859 57.0912 120.233 56.8925C120.628 56.6984 120.943 56.5629 121.18 56.4858C121.683 56.2948 122.161 56.2622 122.614 56.3879C123.087 56.5183 123.459 56.7569 123.73 57.1035C123.778 57.1802 123.885 57.3359 124.05 57.5708C124.236 57.8103 124.437 58.0755 124.655 58.3662C124.894 58.6617 125.096 58.9269 125.261 59.1617L126.179 60.4556L125.291 61.8935C124.83 62.6633 124.59 63.3744 124.572 64.0268C124.554 64.6792 124.627 65.2652 124.793 65.7846C124.844 66.0372 124.939 66.2449 125.077 66.4078C125.235 66.5755 125.455 66.7135 125.737 66.8218C125.898 66.8808 126.04 66.9789 126.162 67.1163C126.283 67.2536 126.318 67.4367 126.266 67.6654C126.151 68.1644 125.974 68.5069 125.735 68.6927C125.521 68.8625 125.305 68.9443 125.087 68.9382C124.382 68.864 123.744 68.6411 123.172 68.2693C122.601 67.8975 122.175 67.1762 121.896 66.1052C121.841 65.9614 121.779 65.7064 121.71 65.3403C121.666 64.9582 121.646 64.7128 121.649 64.6041C121.542 64.689 121.397 64.7979 121.213 64.9309C121.055 65.0478 120.899 65.1544 120.746 65.2505C118.926 66.4091 117.434 67.0956 116.268 67.3098C115.128 67.5081 114.257 67.2974 113.655 66.6779ZM115.964 64.4824C116.105 64.5366 116.351 64.5163 116.701 64.4214C117.055 64.3058 117.541 64.0997 118.156 63.803C119.001 63.3621 119.698 62.9966 120.246 62.7064C120.794 62.4162 121.358 62.0093 121.937 61.4856L122.881 60.5201C122.783 59.9942 122.667 59.6394 122.534 59.4557C122.401 59.272 122.252 59.161 122.085 59.1229C121.815 59.0609 121.452 59.1638 120.997 59.4314C120.546 59.6783 120.005 60.0796 119.375 60.6353C118.769 61.175 118.063 61.8668 117.257 62.7105C116.882 63.106 116.571 63.5054 116.326 63.9087C116.085 64.2912 115.964 64.4824 115.964 64.4824ZM130.688 71.4702C130.416 71.3202 130.159 71.1079 129.915 70.8332C129.672 70.5585 129.425 70.2503 129.175 69.9084C129.002 69.5185 128.894 69.1765 128.852 68.8823C128.815 68.5674 128.829 68.2204 128.894 67.8413C128.985 67.4462 129.099 66.9472 129.237 66.3442C129.295 66.0947 129.417 65.7507 129.605 65.3123C129.814 64.8787 130.028 64.4243 130.246 63.9491C130.485 63.4786 130.7 63.0682 130.89 62.7178C131.084 62.3465 131.206 62.1009 131.256 61.9809C131.38 61.7249 131.312 61.5451 131.051 61.4415C130.79 61.338 130.491 61.2584 130.154 61.2029C129.842 61.1314 129.641 61.0525 129.551 60.9663C129.473 60.9264 129.455 60.8129 129.498 60.6258C129.546 60.4178 129.57 60.3139 129.57 60.3139C129.589 60.2307 129.559 60.1692 129.481 60.1293C129.407 60.0687 129.351 59.9792 129.312 59.8609C129.29 59.7682 129.378 59.6242 129.576 59.4288C129.774 59.2335 129.992 59.1412 130.23 59.1521C130.427 59.1534 130.715 59.1866 131.094 59.2516C131.477 59.2959 131.868 59.3089 132.266 59.2908C132.69 59.2566 133.035 59.1386 133.3 58.9368C133.592 58.5222 133.912 58.0813 134.26 57.6139C134.612 57.1257 134.938 56.7079 135.237 56.3605C135.54 55.9923 135.745 55.7658 135.852 55.6809C136.248 55.5748 136.629 55.5855 136.994 55.7129C137.363 55.8195 137.614 56.063 137.746 56.4434C137.816 56.6128 137.875 56.7358 137.924 56.8125C137.992 56.894 138.002 56.9947 137.953 57.1147C137.924 57.2394 137.788 57.4491 137.546 57.7436C137.329 58.0222 136.967 58.4536 136.461 59.0379C136.309 59.222 136.173 59.3877 136.052 59.535C135.935 59.6615 135.877 59.7247 135.877 59.7247C135.955 59.7646 136.078 59.8036 136.244 59.8417C136.41 59.8799 136.621 59.9172 136.875 59.9536C137.113 59.9645 137.37 59.9905 137.645 60.0317C137.925 60.0521 138.164 60.1069 138.362 60.1962C138.841 60.3059 139.163 60.5221 139.33 60.8448C139.497 61.1676 139.543 61.5393 139.468 61.96C139.457 62.1982 139.329 62.3767 139.083 62.4954C138.837 62.614 138.433 62.609 137.871 62.4802C137.684 62.4373 137.412 62.3857 137.053 62.3255C136.695 62.2652 136.326 62.2026 135.947 62.1375C135.568 62.0725 135.239 62.0298 134.959 62.0094C134.705 61.9729 134.573 61.9755 134.563 62.0171C134.491 62.0444 134.349 62.1869 134.137 62.4446C133.95 62.6863 133.739 62.988 133.503 63.3497C133.287 63.7162 133.087 64.0643 132.902 64.3939C132.594 65.0675 132.333 65.7299 132.118 66.381C131.903 67.0321 131.759 67.6119 131.686 68.1205C131.639 68.613 131.685 68.9847 131.825 69.2356C131.969 69.4657 132.249 69.53 132.667 69.4287C133.109 69.3114 133.528 69.1557 133.923 68.9617C134.369 68.7356 134.712 68.7159 134.954 68.9027C135.201 69.0686 135.314 69.3355 135.296 69.7033C135.303 70.0551 135.126 70.3975 134.765 70.7306C134.425 71.0685 133.995 71.3201 133.475 71.4855C132.956 71.6509 132.445 71.7308 131.943 71.7251C131.436 71.7402 131.018 71.6552 130.688 71.4702ZM149.055 75.452C148.535 75.3328 148.047 75.1224 147.591 74.8208C147.16 74.5032 146.83 74.1759 146.601 73.8388C146.372 73.5017 146.297 73.2108 146.375 72.9661C146.472 72.6381 146.646 72.4045 146.896 72.265C147.147 72.1255 147.494 72.1394 147.937 72.3067C148.611 72.6144 149.317 72.8309 150.054 72.9562C150.796 73.0607 151.505 73.0701 152.181 72.9844C152.878 72.9035 153.47 72.7108 153.955 72.4063C154.641 71.9944 155.037 71.6037 155.143 71.2342C155.255 70.8439 155.054 70.3821 154.542 69.8487C154.315 69.5996 154.022 69.3465 153.665 69.0896C153.309 68.8327 152.942 68.6173 152.566 68.4435C152.216 68.2537 151.892 68.1359 151.597 68.0899C151.405 68.0678 151.183 67.9841 150.932 67.839C150.685 67.673 150.444 67.4863 150.207 67.2787C150.115 67.1046 150.056 66.8392 150.028 66.4827C150 66.1261 149.975 65.9015 149.953 65.8088C149.956 65.7001 150.057 65.592 150.257 65.4846C150.457 65.3772 150.839 65.2351 151.405 65.0584C151.976 64.861 152.799 64.612 153.875 64.3115C154.858 64.0335 155.607 63.8222 156.121 63.6776C156.661 63.5169 157.073 63.3924 157.356 63.3041C157.664 63.1997 157.931 63.0858 158.157 62.9624C158.473 62.7285 158.637 62.5364 158.65 62.3861C158.662 62.2358 158.41 62.0466 157.894 61.8187C157.383 61.6579 156.967 61.5625 156.646 61.5326C156.329 61.4819 156.161 61.4981 156.142 61.5813C156.142 61.5813 156.132 61.5789 156.111 61.5741C156.111 61.5741 156.08 61.567 156.018 61.5526C155.923 61.4872 155.692 61.4452 155.324 61.4265C154.956 61.4078 154.597 61.4019 154.245 61.4088C153.914 61.4204 153.731 61.4551 153.696 61.5127C153.665 61.5495 153.503 61.5889 153.209 61.6309C152.94 61.6568 152.664 61.67 152.379 61.6704C152.115 61.6756 151.952 61.671 151.89 61.6567C151.795 61.5913 151.704 61.4171 151.616 61.1342C151.548 60.8561 151.504 60.5723 151.483 60.2829C151.466 59.9727 151.491 59.7704 151.556 59.676C151.617 59.6024 151.791 59.511 152.079 59.4018C152.392 59.2767 152.736 59.1587 153.112 59.0478C153.492 58.9162 153.809 58.8246 154.061 58.7731C154.372 58.7567 154.814 58.7816 155.39 58.848C155.991 58.8983 156.578 58.9671 157.149 59.0542C157.745 59.1254 158.166 59.1999 158.411 59.278C159.343 59.6013 160.055 60.0272 160.547 60.5558C161.043 61.0636 161.279 61.7524 161.255 62.6223C161.251 62.9277 161.181 63.2293 161.048 63.5269C160.914 63.8245 160.707 64.1054 160.427 64.3696C160.148 64.6338 159.757 64.9054 159.256 65.1843C158.66 65.3978 158.19 65.5855 157.846 65.7475C157.528 65.8935 157.104 66.026 156.573 66.145C156.404 66.2156 156.149 66.2775 155.808 66.3308C155.468 66.384 155.15 66.4316 154.856 66.4736C154.562 66.5156 154.41 66.5574 154.401 66.5989C154.401 66.5989 154.49 66.6412 154.667 66.7257C154.87 66.7942 155.079 66.8858 155.294 67.0007C155.534 67.0995 155.694 67.2128 155.774 67.3406C156.329 67.6868 156.797 68.177 157.176 68.8113C157.582 69.4296 157.855 69.9081 157.996 70.2469C158.14 70.9582 158.009 71.6724 157.604 72.3893C157.224 73.0902 156.675 73.7193 155.956 74.2768C155.263 74.8182 154.502 75.2238 153.674 75.4936C153.016 75.6928 152.244 75.7674 151.358 75.7175C150.497 75.6515 149.73 75.563 149.055 75.452Z" fill="#1C1C1C"/>
</g>
<defs>
<clipPath id="clip0_4_738">
<rect width="242" height="174" fill="white" transform="translate(38.891) rotate(12.9154)"/>
</clipPath>
</defs>
</svg>
