<svg width="118" height="118" viewBox="0 0 118 118" fill="none" xmlns="http://www.w3.org/2000/svg">
<g id="daisy-svgrepo-com 1" clip-path="url(#clip0_4_1107)">
<path id="Vector" d="M106.642 32.5567C101.371 33.386 94.6943 35.4065 87.8395 38.2459C80.9846 41.0852 74.8346 44.3777 70.5214 47.5181C70.4241 47.5888 70.3453 47.6753 70.2533 47.7502C70.3285 47.6584 70.411 47.5755 70.4815 47.4787C73.6225 43.1648 76.9148 37.0152 79.7542 30.1606C82.5933 23.3062 84.6138 16.6295 85.4431 11.3582C85.9022 8.44764 84.3131 5.6244 81.5758 4.49026C78.8422 3.35797 75.7223 4.23122 73.9899 6.61403C70.8489 10.9279 67.5566 17.0775 64.7172 23.9321C61.8781 30.7865 59.8576 37.4632 59.0283 42.7345C59.0078 42.8663 59.0129 42.9956 59.0005 43.127C58.988 42.9958 58.9931 42.8661 58.9726 42.734C58.1433 37.4637 56.1228 30.7867 53.2835 23.9319C50.4441 17.0771 47.1516 10.927 44.0112 6.6138C42.276 4.23145 39.1571 3.35797 36.4196 4.49188C33.6874 5.62348 32.0999 8.44672 32.5574 11.3582C33.3866 16.6286 35.4071 23.3055 38.2465 30.1603C41.0859 37.0152 44.3784 43.1652 47.5187 47.4784C47.5973 47.5863 47.6927 47.6746 47.7766 47.776C47.6752 47.6921 47.5872 47.5969 47.4793 47.5183C43.1654 44.3773 37.0158 41.085 30.1612 38.2456C23.3068 35.4065 16.6302 33.386 11.3589 32.5567C8.45106 32.099 5.62643 33.6851 4.49091 36.424C3.35931 39.156 4.23233 42.2763 6.61468 44.0099C10.9286 47.1509 17.0782 50.4432 23.9328 53.2826C30.7872 56.1217 37.4638 58.1422 42.7351 58.9715C42.8534 58.9904 42.9707 58.9904 43.0884 59.0021C42.9702 59.0141 42.8534 59.0088 42.7347 59.0272C37.4643 59.8565 30.7874 61.877 23.9326 64.7164C17.0777 67.5557 10.9277 70.8482 6.61445 73.9886C4.2321 75.7238 3.35862 78.8427 4.49253 81.5802C5.62413 84.3124 8.44737 85.8999 11.3589 85.4424C16.6292 84.6132 23.3062 82.5927 30.161 79.7533C37.0158 76.9139 43.1659 73.6214 47.4791 70.4811C47.5865 70.4027 47.6741 70.3082 47.7755 70.2246C47.692 70.3257 47.5971 70.4133 47.5192 70.5205C44.3781 74.8344 41.0859 80.984 38.2465 87.8386C35.4074 94.693 33.3869 101.37 32.5576 106.641C32.0985 109.552 33.6876 112.375 36.4249 113.509C38.0396 114.178 39.7888 114.147 41.309 113.517C42.3608 113.081 43.3016 112.359 44.0108 111.385C47.1518 107.071 50.4441 100.922 53.2835 94.067C56.1226 87.2126 58.1431 80.536 58.9723 75.2647C58.9929 75.1329 58.9878 75.0036 59.0002 74.8722C59.0127 75.0033 59.0076 75.1331 59.0281 75.2651C59.8573 80.5355 61.8779 87.2124 64.7172 94.0672C67.5566 100.922 70.8491 107.072 73.9895 111.385C75.7247 113.768 78.8436 114.641 81.5811 113.507C84.3133 112.376 85.9008 109.552 85.4433 106.641C84.6141 101.371 82.5935 94.6937 79.7542 87.8388C76.9148 80.984 73.6223 74.8339 70.482 70.5207C70.4034 70.4129 70.3079 70.3246 70.2241 70.2232C70.3255 70.3071 70.4135 70.4023 70.5214 70.4808C74.8353 73.6219 80.9849 76.9142 87.8395 79.7535C94.6938 82.5927 101.371 84.6132 106.642 85.4424C107.831 85.6302 109.007 85.4754 110.059 85.0398C111.579 84.4104 112.839 83.1935 113.51 81.5752C114.641 78.8432 113.768 75.7229 111.386 73.9893C107.072 70.8482 100.922 67.556 94.0679 64.7166C87.2135 61.8774 80.5368 59.8569 75.2656 59.0277C75.1335 59.0072 75.004 59.012 74.8724 58.9998C75.0037 58.9874 75.134 58.9924 75.266 58.9719C80.5364 58.1427 87.2133 56.1222 94.0681 53.2828C100.923 50.4434 107.073 47.151 111.386 44.0106C113.769 42.2754 114.642 39.1565 113.508 36.4189C112.376 33.6867 109.553 32.099 106.642 32.5567Z" fill="#F5EBDC"/>
<path id="Vector_2" d="M90.1748 43.8847L62.759 55.2408L74.1151 27.8245C74.5451 26.7862 74.0526 25.5968 73.0141 25.1667C71.9759 24.7367 70.7864 25.2292 70.3564 26.2677L59 53.684L47.6441 26.2681C47.2141 25.2301 46.0239 24.7371 44.9859 25.167C43.9479 25.597 43.4549 26.7872 43.8847 27.825L55.2406 55.2408L27.8243 43.8847C26.786 43.4547 25.5966 43.9472 25.1665 44.9857C24.7364 46.0241 25.229 47.2134 26.2674 47.6434L53.684 59L26.2681 70.3559C25.2301 70.7859 24.7371 71.9761 25.167 73.0141C25.597 74.0521 26.7872 74.5451 27.825 74.1153L55.2408 62.7594L43.8847 90.1757C43.4547 91.214 43.9472 92.4035 44.9857 92.8335C45.5049 93.0488 46.0619 93.0329 46.5427 92.8337C47.0235 92.6346 47.4284 92.2518 47.6437 91.7326L59 64.316L70.3559 91.7319C70.786 92.7699 71.9761 93.2629 73.0141 92.833C74.0522 92.403 74.5451 91.2129 74.1153 90.1748L62.7594 62.7589L90.1757 74.1151C90.695 74.3303 91.252 74.3144 91.7328 74.1153C92.2135 73.9162 92.6185 73.5334 92.8337 73.0141C93.2638 71.9759 92.7713 70.7864 91.7328 70.3563L64.316 59L91.7319 47.6441C92.7699 47.2141 93.2629 46.0239 92.833 44.9859C92.4032 43.9479 91.2131 43.4549 90.1748 43.8847Z" fill="#EBDED4"/>
<path id="SVGCleanerId_0" d="M113.134 52.8011C107.948 51.5503 101.006 50.8619 93.5862 50.8619C86.1665 50.8619 79.2246 51.5503 74.0381 52.8011C73.9212 52.8292 73.8152 52.879 73.7014 52.9131C73.806 52.8569 73.9136 52.8121 74.0162 52.7492C78.5689 49.9659 83.9641 45.5441 89.2103 40.2979C94.4565 35.0518 98.8782 29.6565 101.662 25.1038C103.2 22.5905 102.812 19.3739 100.717 17.2787C98.6247 15.1865 95.4083 14.7991 92.896 16.3379C88.3433 19.1213 82.948 23.5431 77.7018 28.7892C72.4557 34.0354 68.0339 39.4307 65.2505 43.9833C65.1812 44.097 65.136 44.2187 65.0745 44.335C65.1132 44.209 65.1676 44.0912 65.1989 43.9615C66.4497 38.7752 67.1381 31.8335 67.1381 24.4136C67.1381 16.9936 66.4497 10.0519 65.1989 4.86543C64.5073 2.0007 61.9604 0 58.997 0C56.0396 0 53.4925 2.0007 52.8013 4.86566C51.5506 10.0521 50.8621 16.9941 50.8621 24.4138C50.8621 31.8335 51.5506 38.7754 52.8013 43.9619C52.8327 44.0917 52.887 44.2097 52.9258 44.3355C52.864 44.2191 52.8193 44.0974 52.7497 43.9838C49.9663 39.4311 45.5445 34.0359 40.2984 28.7897C35.0522 23.5435 29.6569 19.1218 25.1043 16.3384C22.5929 14.8025 19.3764 15.1872 17.2792 17.2831C15.1879 19.3744 14.8007 22.5908 16.3384 25.104C19.1218 29.6567 23.5435 35.052 28.7897 40.2981C34.0359 45.5443 39.4311 49.9661 43.9838 52.7495C44.0861 52.8119 44.1942 52.8571 44.2984 52.9133C44.1845 52.879 44.0788 52.8294 43.9619 52.8013C38.7754 51.5503 31.8335 50.8619 24.4138 50.8619C16.9941 50.8619 10.0521 51.5503 4.86566 52.8011C2.0007 53.4927 0 56.0396 0 59.003C0 61.9604 2.0007 64.5075 4.86566 65.1987C10.0521 66.4494 16.9941 67.1378 24.4138 67.1378C31.8335 67.1378 38.7754 66.4494 43.9619 65.1987C44.0912 65.1673 44.2083 65.1134 44.3337 65.0749C44.2177 65.1365 44.0967 65.1809 43.9838 65.2503C39.4311 68.0337 34.0359 72.4555 28.7897 77.7016C23.5435 82.9478 19.1218 88.343 16.3384 92.8957C14.8005 95.409 15.1881 98.6256 17.2831 100.721C18.5189 101.957 20.1471 102.597 21.792 102.597C22.9305 102.597 24.0757 102.29 25.1038 101.661C29.6565 98.878 35.0518 94.4562 40.2979 89.2101C45.5441 83.9639 49.9659 78.5686 52.7492 74.016C52.8186 73.9023 52.8638 73.7806 52.9253 73.6643C52.8866 73.7903 52.8322 73.9081 52.8009 74.0378C51.5503 79.2243 50.8619 86.1663 50.8619 93.586C50.8619 101.006 51.5503 107.948 52.8011 113.134C53.4925 115.999 56.0394 118 59.003 118C61.9604 118 64.5075 115.999 65.1987 113.134C66.4494 107.948 67.1379 101.006 67.1379 93.586C67.1379 86.1663 66.4494 79.2243 65.1987 74.0378C65.1673 73.9081 65.113 73.7901 65.0742 73.6643C65.136 73.7806 65.1807 73.9023 65.2503 74.016C68.0337 78.5686 72.4555 83.9639 77.7016 89.2101C82.9478 94.4562 88.3431 98.878 92.8957 101.661C93.9229 102.29 95.0684 102.597 96.2069 102.597C97.852 102.597 99.4821 101.956 100.721 100.717C102.812 98.6254 103.199 95.409 101.662 92.8957C98.8782 88.343 94.4565 82.9478 89.2103 77.7016C83.9641 72.4555 78.5689 68.0337 74.0162 65.2503C73.9023 65.1809 73.7804 65.1355 73.6638 65.074C73.7901 65.113 73.9081 65.1673 74.0381 65.1987C79.2246 66.4494 86.1665 67.1378 93.5862 67.1378C101.006 67.1378 107.948 66.4494 113.134 65.1987C115.999 64.5073 118 61.9604 118 58.9968C118 56.0396 115.999 53.4927 113.134 52.8011Z" fill="#FFF5DC"/>
<path id="SVGCleanerId_1" d="M93.5862 56.9656H63.9113L84.895 35.9819C85.6897 35.1872 85.6897 33.8996 84.895 33.105C84.1004 32.3103 82.8127 32.3103 82.0181 33.105L61.0346 54.0887V24.414C61.0346 23.2904 60.1235 22.3794 59 22.3794C57.8765 22.3794 56.9654 23.2904 56.9654 24.414V54.0887L35.9817 33.105C35.187 32.3103 33.8994 32.3103 33.1048 33.105C32.3101 33.8996 32.3101 35.1872 33.1048 35.9819L54.0885 56.9656H24.4138C23.2903 56.9656 22.3792 57.8767 22.3792 59.0002C22.3792 60.1237 23.2903 61.0348 24.4138 61.0348H54.0885L33.1048 82.0185C32.3101 82.8131 32.3101 84.1008 33.1048 84.8954C33.5023 85.293 34.0225 85.4914 34.5431 85.4914C35.0638 85.4914 35.5844 85.2928 35.9815 84.8954L56.9654 63.9115V93.5864C56.9654 94.7099 57.8765 95.621 59 95.621C60.1235 95.621 61.0346 94.7099 61.0346 93.5864V63.9115L82.0183 84.8952C82.4159 85.2928 82.936 85.4912 83.4567 85.4912C83.9773 85.4912 84.4977 85.2925 84.895 84.8952C85.6897 84.1005 85.6897 82.8129 84.895 82.0183L63.9113 61.0348H93.5862C94.7098 61.0348 95.6208 60.1237 95.6208 59.0002C95.6208 57.8767 94.7098 56.9656 93.5862 56.9656Z" fill="#F0E4C8"/>
<g id="Group">
<path id="SVGCleanerId_0_1_" d="M113.134 52.8011C107.948 51.5503 101.006 50.8619 93.5862 50.8619C86.1665 50.8619 79.2246 51.5503 74.0381 52.8011C73.9212 52.8292 73.8152 52.879 73.7014 52.9131C73.806 52.8569 73.9136 52.8121 74.0162 52.7492C78.5689 49.9659 83.9641 45.5441 89.2103 40.2979C94.4565 35.0518 98.8782 29.6565 101.662 25.1038C103.2 22.5905 102.812 19.3739 100.717 17.2787C98.6247 15.1865 95.4083 14.7991 92.896 16.3379C88.3433 19.1213 82.948 23.5431 77.7018 28.7892C72.4557 34.0354 68.0339 39.4307 65.2505 43.9833C65.1812 44.097 65.136 44.2187 65.0745 44.335C65.1132 44.209 65.1676 44.0912 65.1989 43.9615C66.4497 38.7752 67.1381 31.8335 67.1381 24.4136C67.1381 16.9936 66.4497 10.0519 65.1989 4.86543C64.5073 2.0007 61.9604 0 58.997 0C56.0396 0 53.4925 2.0007 52.8013 4.86566C51.5506 10.0521 50.8621 16.9941 50.8621 24.4138C50.8621 31.8335 51.5506 38.7754 52.8013 43.9619C52.8327 44.0917 52.887 44.2097 52.9258 44.3355C52.864 44.2191 52.8193 44.0974 52.7497 43.9838C49.9663 39.4311 45.5445 34.0359 40.2984 28.7897C35.0522 23.5435 29.6569 19.1218 25.1043 16.3384C22.5929 14.8025 19.3764 15.1872 17.2792 17.2831C15.1879 19.3744 14.8007 22.5908 16.3384 25.104C19.1218 29.6567 23.5435 35.052 28.7897 40.2981C34.0359 45.5443 39.4311 49.9661 43.9838 52.7495C44.0861 52.8119 44.1942 52.8571 44.2984 52.9133C44.1845 52.879 44.0788 52.8294 43.9619 52.8013C38.7754 51.5503 31.8335 50.8619 24.4138 50.8619C16.9941 50.8619 10.0521 51.5503 4.86566 52.8011C2.0007 53.4927 0 56.0396 0 59.003C0 61.9604 2.0007 64.5075 4.86566 65.1987C10.0521 66.4494 16.9941 67.1378 24.4138 67.1378C31.8335 67.1378 38.7754 66.4494 43.9619 65.1987C44.0912 65.1673 44.2083 65.1134 44.3337 65.0749C44.2177 65.1365 44.0967 65.1809 43.9838 65.2503C39.4311 68.0337 34.0359 72.4555 28.7897 77.7016C23.5435 82.9478 19.1218 88.343 16.3384 92.8957C14.8005 95.409 15.1881 98.6256 17.2831 100.721C18.5189 101.957 20.1471 102.597 21.792 102.597C22.9305 102.597 24.0757 102.29 25.1038 101.661C29.6565 98.878 35.0518 94.4562 40.2979 89.2101C45.5441 83.9639 49.9659 78.5686 52.7492 74.016C52.8186 73.9023 52.8638 73.7806 52.9253 73.6643C52.8866 73.7903 52.8322 73.9081 52.8009 74.0378C51.5503 79.2243 50.8619 86.1663 50.8619 93.586C50.8619 101.006 51.5503 107.948 52.8011 113.134C53.4925 115.999 56.0394 118 59.003 118C61.9604 118 64.5075 115.999 65.1987 113.134C66.4494 107.948 67.1379 101.006 67.1379 93.586C67.1379 86.1663 66.4494 79.2243 65.1987 74.0378C65.1673 73.9081 65.113 73.7901 65.0742 73.6643C65.136 73.7806 65.1807 73.9023 65.2503 74.016C68.0337 78.5686 72.4555 83.9639 77.7016 89.2101C82.9478 94.4562 88.3431 98.878 92.8957 101.661C93.9229 102.29 95.0684 102.597 96.2069 102.597C97.852 102.597 99.4821 101.956 100.721 100.717C102.812 98.6254 103.199 95.409 101.662 92.8957C98.8782 88.343 94.4565 82.9478 89.2103 77.7016C83.9641 72.4555 78.5689 68.0337 74.0162 65.2503C73.9023 65.1809 73.7804 65.1355 73.6638 65.074C73.7901 65.113 73.9081 65.1673 74.0381 65.1987C79.2246 66.4494 86.1665 67.1378 93.5862 67.1378C101.006 67.1378 107.948 66.4494 113.134 65.1987C115.999 64.5073 118 61.9604 118 58.9968C118 56.0396 115.999 53.4927 113.134 52.8011Z" fill="#FFF5DC"/>
</g>
<g id="Group_2">
<path id="SVGCleanerId_1_1_" d="M93.5862 56.9656H63.9113L84.895 35.9819C85.6897 35.1872 85.6897 33.8996 84.895 33.105C84.1004 32.3103 82.8127 32.3103 82.0181 33.105L61.0346 54.0887V24.414C61.0346 23.2904 60.1235 22.3794 59 22.3794C57.8765 22.3794 56.9654 23.2904 56.9654 24.414V54.0887L35.9817 33.105C35.187 32.3103 33.8994 32.3103 33.1048 33.105C32.3101 33.8996 32.3101 35.1872 33.1048 35.9819L54.0885 56.9656H24.4138C23.2903 56.9656 22.3792 57.8767 22.3792 59.0002C22.3792 60.1237 23.2903 61.0348 24.4138 61.0348H54.0885L33.1048 82.0185C32.3101 82.8131 32.3101 84.1008 33.1048 84.8954C33.5023 85.293 34.0225 85.4914 34.5431 85.4914C35.0638 85.4914 35.5844 85.2928 35.9815 84.8954L56.9654 63.9115V93.5864C56.9654 94.7099 57.8765 95.621 59 95.621C60.1235 95.621 61.0346 94.7099 61.0346 93.5864V63.9115L82.0183 84.8952C82.4159 85.2928 82.936 85.4912 83.4567 85.4912C83.9773 85.4912 84.4977 85.2925 84.895 84.8952C85.6897 84.1005 85.6897 82.8129 84.895 82.0183L63.9113 61.0348H93.5862C94.7098 61.0348 95.6208 60.1237 95.6208 59.0002C95.6208 57.8767 94.7098 56.9656 93.5862 56.9656Z" fill="#F0E4C8"/>
</g>
<path id="Vector_3" d="M59 75.276C67.9889 75.276 75.2759 67.989 75.2759 59.0001C75.2759 50.0111 67.9889 42.7241 59 42.7241C50.011 42.7241 42.7241 50.0111 42.7241 59.0001C42.7241 67.989 50.011 75.276 59 75.276Z" fill="#FFD728"/>
<path id="Vector_4" d="M59 69.1725C64.6181 69.1725 69.1724 64.6181 69.1724 59.0001C69.1724 53.382 64.6181 48.8276 59 48.8276C53.3819 48.8276 48.8276 53.382 48.8276 59.0001C48.8276 64.6181 53.3819 69.1725 59 69.1725Z" fill="#FFBE23"/>
</g>
<defs>
<clipPath id="clip0_4_1107">
<rect width="118" height="118" fill="white"/>
</clipPath>
</defs>
</svg>
