<svg width="345" height="150" viewBox="0 0 345 150" fill="none" xmlns="http://www.w3.org/2000/svg">
<path d="M25.4817 52.3734C25.2476 52.2943 25.1058 52.1861 25.0563 52.0487C25.0185 51.9093 25.0557 51.6463 25.1679 51.2597C25.2801 50.8732 25.4569 50.2735 25.6984 49.4607C25.8844 48.8776 25.9976 48.4299 26.038 48.1175C26.088 47.7912 26.107 47.562 26.095 47.43C26.083 47.298 26.0738 47.2143 26.0673 47.1789C26.0243 47.0769 26.0209 46.9922 26.0573 46.9245C26.0916 46.845 26.1575 46.772 26.2551 46.7053C26.3033 46.6354 26.4196 46.5043 26.6039 46.312C26.7883 46.1196 26.92 45.9064 26.9991 45.6723C27.0599 45.405 27.1315 45.1296 27.2138 44.8461C27.3078 44.5605 27.4313 44.2024 27.5842 43.7718C27.735 43.3294 27.9408 42.7549 28.2018 42.0483C28.3622 41.5919 28.5542 41.0749 28.7777 40.4971C29.0131 39.9172 29.2512 39.3856 29.4921 38.9023C29.5916 38.7133 29.7036 38.5586 29.8279 38.4382C29.9523 38.3178 30.0676 38.2479 30.1738 38.2284C30.4335 38.1809 30.7061 38.2041 30.9918 38.2982C31.2752 38.3805 31.5357 38.5035 31.7731 38.6674C32.0105 38.8313 32.1808 38.9953 32.2841 39.1594C32.3604 39.243 32.4208 39.4394 32.4652 39.7484C32.5096 40.0575 32.5541 40.4336 32.5987 40.8768C32.6433 41.3201 32.6874 41.7939 32.731 42.2983C32.7842 42.7887 32.836 43.3709 32.8862 44.0449C32.9365 44.7189 32.9922 45.4223 33.0532 46.1553C33.1261 46.8862 33.2065 47.5912 33.2943 48.2705C33.38 48.938 33.4859 49.5164 33.6122 50.0056C33.6434 50.1097 33.6618 50.21 33.6673 50.3066C33.6728 50.4032 33.681 50.481 33.6918 50.5401C33.6339 50.6238 33.4859 50.6815 33.2476 50.7129C33.0116 50.7562 32.7749 50.7629 32.5377 50.7332C32.3004 50.7034 32.1603 50.6376 32.1172 50.5357C32.0753 50.5068 32.0463 50.4816 32.0302 50.4601C32.014 50.4387 31.9935 50.3266 31.9685 50.1237C31.9414 49.9091 31.8889 49.5223 31.8108 48.9632L31.4031 46.238L31.1762 46.2979C31.07 46.3173 30.8774 46.3648 30.5984 46.4403C30.3313 46.5137 30.0368 46.6042 29.7149 46.712C29.4027 46.8058 29.1152 46.9011 28.8523 46.9981C28.5873 47.0832 28.405 47.1532 28.3052 47.2081C28.199 47.2276 28.0821 47.3222 27.9546 47.4919C27.8389 47.6595 27.7367 47.8673 27.6479 48.1154C27.631 48.2893 27.5749 48.4825 27.4797 48.6952C27.3941 48.8939 27.3567 49.0227 27.3675 49.0817C27.2957 49.1559 27.2378 49.2397 27.1939 49.3331C27.1619 49.4244 27.1458 49.47 27.1458 49.47C27.1588 49.5408 27.1381 49.7276 27.0838 50.0304C27.0273 50.3213 26.9536 50.652 26.8629 51.0224C26.77 51.381 26.6636 51.6994 26.5438 51.9775L26.189 52.7379L25.4817 52.3734ZM28.5976 45.5076C28.5976 45.5076 28.6604 45.4839 28.7859 45.4365C28.9114 45.3891 29.0605 45.3374 29.2332 45.2813C29.4156 45.2113 29.5776 45.1634 29.7193 45.1374C29.9778 45.0169 30.1923 44.9227 30.3629 44.8548C30.5452 44.7848 30.6954 44.739 30.8135 44.7174C30.9294 44.6839 31.0259 44.6785 31.1033 44.7009C31.1613 44.7513 31.2091 44.7791 31.2467 44.7844C31.296 44.7876 31.3207 44.7892 31.3207 44.7892C31.3282 44.7634 31.3291 44.6351 31.3234 44.4044C31.3178 44.1736 31.3083 43.8887 31.2949 43.5495C31.2816 43.2104 31.2661 42.8594 31.2485 42.4967C31.2286 42.1221 31.2083 41.7781 31.1875 41.4647C31.1646 41.1396 31.1428 40.8874 31.1221 40.7081C31.0928 40.4817 31.0502 40.2821 30.9941 40.1094C30.9359 39.9249 30.9068 39.8326 30.9068 39.8326C30.836 39.8456 30.7241 40.0003 30.571 40.2967C30.4275 40.5792 30.2649 40.9567 30.083 41.4292C29.9108 41.8877 29.7451 42.3816 29.5859 42.911C29.509 43.1569 29.4293 43.3545 29.3468 43.5038C29.2762 43.6509 29.2113 43.7299 29.1523 43.7407C29.133 43.7686 29.0854 43.875 29.0094 44.0597C28.9431 44.2304 28.8693 44.4269 28.7881 44.6492C28.7164 44.8575 28.6544 45.0519 28.6021 45.2323C28.5594 45.3987 28.5579 45.4905 28.5976 45.5076ZM35.893 49.9721C35.4614 49.8804 35.135 49.7633 34.9137 49.6208C34.7021 49.4644 34.601 49.3121 34.6104 49.164C34.6211 49.0889 34.6505 49.0164 34.6987 48.9465C34.7469 48.8767 34.8724 48.8293 35.0752 48.8044C35.2877 48.7654 35.622 48.7591 36.0782 48.7853C36.2081 48.7615 36.3368 48.7319 36.4645 48.6963C36.5922 48.6607 36.707 48.6213 36.8089 48.5783C36.9226 48.5331 37.0116 48.4862 37.0759 48.4379C37.1306 48.4034 37.1429 48.3707 37.1128 48.3396C37.0806 48.2967 37.0306 48.2571 36.963 48.2207C36.9049 48.1703 36.8453 48.1446 36.7842 48.1436C36.7208 48.1308 36.6655 48.1288 36.6183 48.1374C36.5839 48.0827 36.52 48.0334 36.4265 47.9895C36.3449 47.9435 36.2445 47.8948 36.1253 47.8434C35.8267 47.6785 35.556 47.5329 35.3133 47.4066C35.0705 47.2803 34.9652 47.1715 34.9973 47.0802C34.9886 47.033 34.9843 47.0094 34.9843 47.0094C34.9822 46.9976 34.9811 46.9917 34.9811 46.9917C34.8984 47.0068 34.8012 46.9087 34.6893 46.6974C34.5752 46.4743 34.5009 46.2683 34.4663 46.0795C34.423 45.8434 34.427 45.5987 34.4782 45.3453C34.5412 45.0898 34.6299 44.8417 34.7445 44.6012C34.8708 44.3584 35.0014 44.1393 35.1364 43.9438C35.3218 43.6902 35.52 43.4404 35.7311 43.1944C35.9519 42.9343 36.1947 42.6947 36.4595 42.4753C36.7361 42.2539 37.0487 42.0624 37.3973 41.901C37.5561 41.8353 37.7417 41.783 37.9542 41.7441C38.1667 41.7051 38.3255 41.7065 38.4307 41.7483C38.5144 41.6719 38.6356 41.668 38.7946 41.7365C38.9514 41.7932 39.1146 41.8853 39.2844 42.0128C39.4541 42.1403 39.5885 42.2743 39.6874 42.4147C39.7133 42.5564 39.7399 42.7345 39.767 42.9491C39.8038 43.1498 39.8244 43.329 39.8289 43.4868C39.8334 43.6446 39.7943 43.731 39.7117 43.7461C39.7117 43.7461 39.6951 43.7553 39.6618 43.7736C39.6382 43.7779 39.6318 43.8096 39.6426 43.8686C39.6643 43.9866 39.6006 44.1386 39.4517 44.3245C39.2555 44.519 39.0657 44.6819 38.8824 44.813C38.699 44.9442 38.5466 44.9782 38.4253 44.9151C38.3458 44.8808 38.2722 44.8455 38.2046 44.8091C38.1369 44.7727 38.073 44.7234 38.0128 44.6612C38.0128 44.6612 37.9908 44.6409 37.9467 44.6001C37.9123 44.5455 37.8907 44.4945 37.8821 44.4473C37.8734 44.4001 37.8836 44.3555 37.9125 44.3136C37.9393 44.2599 37.9526 44.2331 37.9526 44.2331C38.0898 44.0494 38.1878 43.885 38.2466 43.74C38.3173 43.5929 38.3616 43.4689 38.3798 43.3679C38.3957 43.2552 38.3983 43.1694 38.3875 43.1103C38.3745 43.0395 38.3492 43.0015 38.3116 42.9961C38.2837 42.9769 38.2225 42.9759 38.1281 42.9932C38.0691 43.004 37.9479 43.075 37.7645 43.2062C37.593 43.3352 37.4139 43.49 37.2274 43.6705C37.0387 43.8393 36.8951 43.9876 36.7965 44.1155C36.7645 44.2067 36.7388 44.2663 36.7195 44.2943C36.712 44.32 36.6847 44.3372 36.6375 44.3459C36.6288 44.2987 36.6004 44.31 36.5522 44.3798C36.504 44.4496 36.4483 44.5452 36.3851 44.6666C36.3219 44.788 36.2599 44.9153 36.1989 45.0484C36.1379 45.1816 36.0902 45.2879 36.056 45.3674C36.0636 45.4758 36.0525 45.5815 36.0226 45.6846C36.0023 45.7737 36.0067 45.8644 36.0358 45.9567C36.0693 46.0725 36.1488 46.1739 36.2745 46.2606C36.4002 46.3474 36.5785 46.455 36.8095 46.5835C37.2788 46.8147 37.63 47.0005 37.8631 47.1408C38.108 47.2789 38.2815 47.3935 38.3836 47.4846C38.4857 47.5757 38.5583 47.6722 38.6013 47.7741C38.869 48.1033 38.951 48.4177 38.8473 48.7173C38.7414 49.0051 38.5421 49.249 38.2493 49.449C38.1421 49.5296 37.9453 49.6206 37.6588 49.7218C37.3746 49.8349 37.0661 49.9158 36.7334 49.9646C36.4147 50.0229 36.1346 50.0255 35.893 49.9721ZM46.7567 47.5795C46.4876 47.7752 46.2081 47.8813 45.9183 47.8977C45.6382 47.9003 45.381 47.7949 45.1467 47.5816C44.9221 47.3544 44.7644 46.9929 44.6736 46.4971C44.6498 46.3673 44.6276 46.2127 44.6069 46.0335C44.596 45.8403 44.5957 45.6391 44.6062 45.4298C44.6144 45.2087 44.6345 44.9854 44.6664 44.76C44.6824 44.6472 44.7101 44.5324 44.7497 44.4153C44.8011 44.2961 44.8031 44.2408 44.7559 44.2495C44.7087 44.2581 44.6551 44.2984 44.5951 44.3704C44.5469 44.4403 44.5083 44.4961 44.4794 44.538C44.2319 44.8518 44.0101 45.173 43.8141 45.5017C43.6278 45.8164 43.4651 46.1268 43.3259 46.4329C43.1965 46.725 43.0991 46.9929 43.034 47.2366C42.9806 47.4782 42.968 47.6757 42.9961 47.8292C43.0286 48.0062 42.9627 48.1464 42.7987 48.2496C42.6346 48.3529 42.4801 48.3751 42.3351 48.3162C42.087 48.2275 41.8437 48.0647 41.6051 47.8278C41.3783 47.5887 41.2426 47.2476 41.1981 46.8044C41.1318 46.2431 41.0882 45.7387 41.0673 45.2912C41.0463 44.8436 41.0542 44.3542 41.0911 43.8229C41.1376 43.2775 41.2049 42.6125 41.2929 41.8278C41.3707 41.3866 41.441 40.9711 41.5038 40.5814C41.5644 40.1799 41.6182 39.8407 41.665 39.5637C41.7237 39.2846 41.7594 39.1133 41.7722 39.05C41.8204 38.9802 41.8712 38.8245 41.9245 38.5829C41.9757 38.3295 42.0151 38.0783 42.0427 37.8293C42.0821 37.5781 42.0974 37.4289 42.0888 37.3817C42.0715 37.2872 42.0741 37.2014 42.0965 37.124C42.1307 37.0446 42.1602 36.9721 42.1848 36.9066C42.2253 36.7284 42.2638 36.6054 42.3002 36.5377C42.3462 36.4561 42.3929 36.411 42.4401 36.4023C42.4991 36.3915 42.5989 36.4037 42.7396 36.439C42.892 36.472 43.0359 36.525 43.1713 36.5978C43.3162 36.6566 43.4092 36.7311 43.4501 36.8212C43.563 36.9713 43.6415 37.1338 43.6858 37.3087C43.7279 37.4718 43.7244 37.6859 43.6754 37.9511C43.6263 38.2163 43.5238 38.5888 43.3677 39.0688C43.2459 39.4693 43.1439 39.8784 43.0618 40.296C42.9797 40.7136 42.9068 41.1479 42.843 41.5988C42.8164 41.7866 42.7829 42.0368 42.7426 42.3492C42.7 42.6497 42.6597 42.9621 42.6214 43.2863C42.5929 43.5965 42.5707 43.8751 42.5549 44.122C42.5392 44.3689 42.5378 44.5277 42.5507 44.5985C42.5659 44.6812 42.6206 44.7138 42.7151 44.6965C42.8073 44.6674 42.8888 44.5793 42.9594 44.4322C42.9894 44.3291 43.0499 44.2265 43.141 44.1244C43.2299 44.0105 43.307 43.8988 43.3724 43.7892C43.4452 43.6539 43.5324 43.4976 43.6342 43.3204C43.7455 43.1292 43.865 42.9487 43.9925 42.779C44.1296 42.5953 44.2544 42.4443 44.367 42.3261C44.4913 42.2057 44.6007 42.1369 44.6952 42.1196C44.9194 42.0785 45.1202 42.1088 45.2974 42.2105C45.4746 42.3123 45.6412 42.4891 45.7972 42.7412C45.8391 42.7701 45.8831 42.8108 45.9294 42.8634C45.9734 42.9041 46.0035 42.9352 46.0197 42.9566C46.0873 42.993 46.1514 43.1765 46.212 43.507C46.2703 43.8257 46.257 44.2856 46.1719 44.8868C46.1457 45.343 46.1402 45.6794 46.1556 45.8962C46.1827 46.1109 46.2434 46.2095 46.3379 46.1922C46.3379 46.1922 46.3904 46.146 46.4955 46.0536C46.6123 45.959 46.734 45.8574 46.8605 45.7488C47.1618 45.4618 47.3967 45.3456 47.5652 45.4001C47.7338 45.4546 47.83 45.5468 47.8538 45.6766C47.8732 45.7829 47.8546 45.9144 47.798 46.0712C47.7531 46.2258 47.735 46.3267 47.7436 46.3739C47.7436 46.3739 47.7447 46.3798 47.7469 46.3916C47.7469 46.3916 47.7512 46.4152 47.7598 46.4624C47.7642 46.486 47.7026 46.5827 47.5751 46.7525C47.4476 46.9222 47.3024 47.0952 47.1395 47.2715C46.9862 47.4337 46.8586 47.5364 46.7567 47.5795ZM55.6721 46.111C55.4586 46.2111 55.2301 46.2957 54.9865 46.3647C54.757 46.4433 54.5374 46.4104 54.3279 46.2657C54.1914 46.1199 54.07 45.9897 53.9636 45.875C53.8572 45.7603 53.7619 45.5399 53.6777 45.2137C53.6248 44.9916 53.5923 44.7474 53.5802 44.4813C53.5776 44.2011 53.5597 44.0031 53.5262 43.8873C53.5407 43.4332 53.507 43.1161 53.4252 42.9359C53.3552 42.7535 53.2906 42.6677 53.2316 42.6786C53.0975 42.6787 52.9082 42.811 52.6638 43.0754C52.4313 43.3376 52.1618 43.698 51.8554 44.1567C51.5587 44.6015 51.2422 45.1047 50.906 45.6665C50.7379 46.0145 50.6148 46.2749 50.5367 46.4478C50.4682 46.6068 50.4104 46.6906 50.3631 46.6992C50.1507 46.7382 49.9494 46.7384 49.7594 46.7C49.5694 46.6616 49.4094 46.5873 49.2793 46.4769C49.1493 46.3665 49.0595 46.2426 49.01 46.1053C49.0013 46.0581 49.0081 45.9288 49.0304 45.7173C49.0505 45.494 49.077 45.2391 49.1099 44.9525C49.1428 44.6658 49.173 44.398 49.2006 44.149C49.24 43.8978 49.2687 43.7217 49.2868 43.6208C49.3368 43.2944 49.3927 42.8999 49.4543 42.4372C49.5256 41.9606 49.5889 41.5403 49.6442 41.1764C49.6633 41.0143 49.706 40.7808 49.7721 40.4759C49.8361 40.1592 49.9001 39.8424 49.964 39.5257C50.028 39.209 50.0707 38.9755 50.0919 38.8252C50.11 38.7243 50.1447 38.5472 50.1959 38.2938C50.2449 38.0286 50.2955 37.7388 50.3477 37.4242C50.4116 37.1075 50.4681 36.8166 50.5172 36.5514C50.5758 36.2722 50.6121 36.0704 50.6258 35.9459C50.5946 35.8418 50.5832 35.7463 50.5917 35.6594C50.6098 35.5584 50.6322 35.4811 50.659 35.4274C50.7062 35.4188 50.7593 35.4091 50.8183 35.3982C50.8752 35.3756 50.9036 35.3643 50.9036 35.3643C50.8993 35.3407 50.9803 35.3503 51.1467 35.393C51.325 35.4335 51.5005 35.4929 51.6734 35.571C51.856 35.6351 51.9537 35.7026 51.9667 35.7735C52.0538 35.9161 52.0965 36.1157 52.0947 36.3722C52.0907 36.6169 52.0327 36.9996 51.9207 37.5203C51.8255 37.733 51.7475 38.0401 51.6869 38.4416C51.638 38.8409 51.5784 39.1812 51.5079 39.4625C51.4758 39.5538 51.4321 39.7143 51.3765 39.9441C51.3307 40.1599 51.2747 40.4202 51.2085 40.7251C51.152 41.0161 51.0988 41.3247 51.0488 41.6511C50.9987 41.9774 50.9595 42.2957 50.9309 42.6059C50.8647 42.9108 50.858 43.1073 50.9107 43.1952C50.9634 43.2832 51.0856 43.151 51.2773 42.7987C51.5429 42.384 51.7914 42.0091 52.0228 41.6739C52.266 41.3366 52.4964 41.0626 52.714 40.8519C52.9413 40.6273 53.1574 40.5084 53.3624 40.4953C53.4729 40.4994 53.6227 40.5513 53.8118 40.6508C54.0104 40.7364 54.2016 40.8478 54.3853 40.985C54.5787 41.1081 54.712 41.2362 54.7851 41.3692C54.8626 41.5258 54.9213 41.6798 54.9612 41.831C55.0129 41.9802 55.0588 42.1974 55.0989 42.4829C55.1369 42.7565 55.1819 43.1692 55.2342 43.7208C55.2369 44.1351 55.2427 44.4329 55.2515 44.6143C55.2581 44.7839 55.2857 44.9008 55.3341 44.9652C55.3942 45.0273 55.4791 45.0911 55.5887 45.1564C55.7917 45.2656 55.8939 45.4238 55.8952 45.6309C55.8944 45.8263 55.82 45.9863 55.6721 46.111ZM57.8733 45.4516C57.8088 45.3658 57.6852 45.2908 57.5027 45.2267C57.332 45.1604 57.2423 45.1036 57.2336 45.0564C57.225 45.0092 57.1825 44.9437 57.1062 44.8601C57.0395 44.7625 56.9782 44.6945 56.9224 44.6559C56.8504 44.5959 56.8367 44.4215 56.8814 44.1327C56.9239 43.8321 57.0029 43.4639 57.1182 43.028C57.2336 42.592 57.3655 42.147 57.5141 41.6928C57.5913 41.5811 57.663 41.4398 57.7293 41.2691C57.7956 41.0983 57.8481 40.985 57.8866 40.9292C57.878 40.8819 57.8881 40.8374 57.917 40.7955C57.9438 40.7418 57.9808 40.7106 58.028 40.702L58.1178 40.3927C58.1327 40.3412 58.1862 40.2338 58.2783 40.0705C58.3822 39.9051 58.5076 39.7235 58.6543 39.5259C58.799 39.3164 58.9457 39.1187 59.0947 38.9328C59.2554 38.7448 59.3883 38.6045 59.4934 38.5121C59.711 38.3014 59.9507 38.1782 60.2126 38.1424C60.4862 38.1045 60.7315 38.145 60.9485 38.2638C60.9904 38.2928 61.0801 38.3495 61.2176 38.4341C61.3669 38.5166 61.5301 38.6087 61.7074 38.7104C61.8964 38.81 62.0597 38.9021 62.1972 38.9867L62.9593 39.4509L62.8205 40.3913C62.7535 40.8916 62.7879 41.3123 62.9236 41.6534C63.0593 41.9946 63.2276 42.2809 63.4286 42.5125C63.5114 42.6315 63.6065 42.7178 63.7139 42.7713C63.8331 42.8227 63.9775 42.845 64.1471 42.8384C64.2437 42.8329 64.3387 42.8521 64.4322 42.8959C64.5256 42.9398 64.5842 43.0267 64.608 43.1565C64.6599 43.4398 64.6446 43.6561 64.5622 43.8054C64.4893 43.9407 64.3961 44.031 64.2824 44.0762C63.9015 44.1948 63.5221 44.2216 63.1442 44.1566C62.7663 44.0917 62.386 43.8136 62.0033 43.3226C61.9431 43.2604 61.8544 43.1425 61.7372 42.9687C61.6296 42.781 61.5645 42.6588 61.5419 42.6019C61.5055 42.6696 61.4546 42.7582 61.3893 42.8678C61.3336 42.9634 61.2768 43.0531 61.219 43.1369C60.5366 44.1402 59.9182 44.8269 59.3638 45.1968C58.819 45.5528 58.3222 45.6377 57.8733 45.4516ZM58.5779 43.8037C58.6627 43.8003 58.7849 43.7352 58.9447 43.6084C59.1023 43.4697 59.307 43.2553 59.5589 42.9652C59.8975 42.5493 60.1761 42.2055 60.3947 41.9337C60.6133 41.6618 60.8141 41.3262 60.9971 40.9267L61.2698 40.2179C61.1021 39.968 60.9634 39.8105 60.8538 39.7451C60.7443 39.6798 60.6423 39.6558 60.5479 39.6731C60.3944 39.7012 60.2298 39.835 60.0541 40.0746C59.8763 40.3024 59.6862 40.63 59.4839 41.0575C59.2912 41.4709 59.0805 41.9853 58.8516 42.6006C58.7457 42.8884 58.6742 43.1638 58.637 43.4268C58.5976 43.678 58.5779 43.8037 58.5779 43.8037ZM65.667 43.9141C65.5457 43.8509 65.4082 43.7663 65.2545 43.6603C65.1127 43.552 65.0379 43.3767 65.0301 43.1341C65.0049 42.7971 64.9992 42.4993 65.0128 42.2406C65.0242 41.9701 65.041 41.662 65.0631 41.3164C65.0607 41.1704 65.0754 40.9176 65.1071 40.558C65.1507 40.1963 65.2065 39.8018 65.2746 39.3745C65.3428 38.9472 65.4211 38.5425 65.5097 38.1603C65.5961 37.7662 65.6821 37.4699 65.7677 37.2712C65.8759 37.1294 66.054 37.0358 66.3019 36.9904C66.5615 36.9428 66.7472 36.9576 66.859 37.0347C67.0083 37.1172 67.0842 37.2985 67.0867 37.5786C67.087 37.8469 66.9964 38.2844 66.8147 38.8911C66.7817 39.0435 66.733 39.211 66.6689 39.3936C66.6144 39.5622 66.5791 39.7028 66.5632 39.8155C66.5451 39.9164 66.5644 39.9556 66.6213 39.933C66.6683 39.7902 66.7711 39.6188 66.9297 39.419C67.0862 39.2073 67.2555 38.9994 67.4377 38.7953C67.6199 38.5911 67.7935 38.4068 67.9586 38.2424C68.1236 38.0779 68.2383 37.9715 68.3027 37.9231C68.3863 37.8468 68.4839 37.7801 68.5954 37.7231C68.7166 37.6521 68.7987 37.6005 68.8415 37.5682C69.0892 37.3887 69.3757 37.2874 69.7009 37.2644C70.0357 37.2275 70.2547 37.291 70.358 37.4551C70.3871 37.5474 70.4355 37.6117 70.5031 37.6481C70.5826 37.6824 70.6223 37.6995 70.6223 37.6995C70.6696 37.6908 70.6964 37.7042 70.7029 37.7396C70.7212 37.7729 70.7303 37.7895 70.7303 37.7895C70.7455 37.8721 70.6845 38.0053 70.5473 38.189C70.422 38.3706 70.266 38.4846 70.0793 38.531C69.928 38.5709 69.7977 38.6252 69.6883 38.6941C69.5789 38.7629 69.448 38.8479 69.2958 38.949C68.8948 39.2908 68.5297 39.5956 68.2006 39.8633C67.8832 40.1288 67.5735 40.5027 67.2715 40.985C67.2062 41.0946 67.1339 41.1994 67.0546 41.2993C66.9753 41.3992 66.9025 41.5345 66.8362 41.7053C66.788 41.7751 66.7527 41.9158 66.7305 42.1272C66.7082 42.3387 66.6908 42.5432 66.6781 42.7407C66.6752 42.9242 66.6769 43.0337 66.6834 43.0691C66.6834 43.0691 66.6765 43.1314 66.6627 43.2559C66.6468 43.3686 66.6072 43.4857 66.5441 43.607C66.437 43.8218 66.317 43.9658 66.184 44.039C66.0628 44.11 65.8905 44.0684 65.667 43.9141ZM72.48 35.2182C72.3641 35.2516 72.2166 35.2786 72.0373 35.2992C71.8699 35.3177 71.7491 35.224 71.6747 35.018C71.6478 34.9375 71.6455 34.8586 71.668 34.7813C71.6904 34.704 71.7236 34.6186 71.7675 34.5252C71.8658 34.2632 71.9776 33.9743 72.1028 33.6586C72.2398 33.3407 72.3215 33.0878 72.3481 32.9C72.3395 32.8528 72.3378 32.8104 72.3431 32.7728C72.1489 32.845 71.9294 32.812 71.6845 32.6739C71.4213 32.5025 71.3056 32.237 71.3373 31.8774C71.3787 31.5038 71.5333 31.1827 71.8013 30.914C71.99 30.7452 72.1777 30.6377 72.3644 30.5913C72.5511 30.5449 72.7593 30.5494 72.9891 30.6049C73.2113 30.6862 73.4101 30.8389 73.5854 31.063C73.7584 31.2753 73.8295 31.4635 73.7986 31.6278C73.8129 31.9058 73.7945 32.1714 73.7433 32.4248C73.7039 32.676 73.6694 32.9202 73.6396 33.1575C73.6164 33.4301 73.5197 33.7345 73.3495 34.0707C73.1889 34.3929 73.0299 34.6904 72.8725 34.9633C72.8929 35.0083 72.8629 35.0443 72.7825 35.0713C72.702 35.0982 72.6012 35.1472 72.48 35.2182ZM74.8311 42.8393C74.3995 42.7475 74.073 42.6304 73.8517 42.488C73.6401 42.3316 73.539 42.1793 73.5484 42.0311C73.5591 41.956 73.5885 41.8835 73.6367 41.8137C73.6849 41.7439 73.8104 41.6965 74.0133 41.6715C74.2257 41.6326 74.56 41.6262 75.0162 41.6525C75.1461 41.6287 75.2748 41.599 75.4025 41.5634C75.5302 41.5278 75.645 41.4885 75.7469 41.4454C75.8606 41.4002 75.9496 41.3534 76.014 41.305C76.0687 41.2706 76.081 41.2378 76.0509 41.2068C76.0186 41.1639 75.9686 41.1242 75.901 41.0878C75.8429 41.0374 75.7833 41.0118 75.7222 41.0108C75.6588 40.998 75.6035 40.9959 75.5563 41.0046C75.5219 40.9499 75.458 40.9006 75.3645 40.8567C75.2829 40.8106 75.1825 40.7619 75.0633 40.7106C74.7647 40.5457 74.494 40.4001 74.2513 40.2737C74.0086 40.1474 73.9032 40.0386 73.9353 39.9473C73.9267 39.9001 73.9223 39.8765 73.9223 39.8765C73.9202 39.8647 73.9191 39.8588 73.9191 39.8588C73.8365 39.8739 73.7392 39.7759 73.6273 39.5646C73.5132 39.3415 73.4389 39.1355 73.4043 38.9466C73.3611 38.7106 73.365 38.4658 73.4162 38.2125C73.4792 37.9569 73.568 37.7089 73.6825 37.4683C73.8088 37.2256 73.9395 37.0065 74.0744 36.8109C74.2598 36.5574 74.458 36.3076 74.6691 36.0615C74.8899 35.8015 75.1327 35.5618 75.3975 35.3425C75.6741 35.121 75.9867 34.9296 76.3354 34.7681C76.4941 34.7024 76.6797 34.6501 76.8922 34.6112C77.1047 34.5723 77.2635 34.5737 77.3688 34.6154C77.4524 34.5391 77.5737 34.5352 77.7326 34.6037C77.8894 34.6603 78.0526 34.7524 78.2224 34.8799C78.3921 35.0074 78.5265 35.1414 78.6254 35.2819C78.6514 35.4235 78.6779 35.6017 78.705 35.8163C78.7418 36.0169 78.7624 36.1962 78.7669 36.3539C78.7714 36.5117 78.7323 36.5982 78.6497 36.6133C78.6497 36.6133 78.6331 36.6224 78.5998 36.6407C78.5762 36.6451 78.5698 36.6767 78.5806 36.7357C78.6023 36.8538 78.5386 37.0057 78.3897 37.1916C78.1935 37.3861 78.0037 37.549 77.8204 37.6802C77.637 37.8114 77.4847 37.8454 77.3633 37.7822C77.2838 37.748 77.2102 37.7127 77.1426 37.6763C77.0749 37.6399 77.011 37.5906 76.9508 37.5284C76.9508 37.5284 76.9288 37.508 76.8847 37.4673C76.8503 37.4126 76.8288 37.3617 76.8201 37.3144C76.8115 37.2672 76.8216 37.2227 76.8505 37.1808C76.8773 37.1271 76.8907 37.1002 76.8907 37.1002C77.0278 36.9165 77.1258 36.7522 77.1846 36.6072C77.2553 36.46 77.2997 36.336 77.3178 36.2351C77.3337 36.1224 77.3363 36.0365 77.3255 35.9775C77.3125 35.9067 77.2872 35.8686 77.2497 35.8633C77.2217 35.844 77.1605 35.843 77.0661 35.8603C77.0071 35.8711 76.8859 35.9421 76.7025 36.0733C76.531 36.2023 76.3519 36.3571 76.1654 36.5377C75.9768 36.7064 75.8331 36.8548 75.7345 36.9826C75.7025 37.0739 75.6768 37.1335 75.6575 37.1614C75.65 37.1872 75.6227 37.2044 75.5755 37.213C75.5668 37.1658 75.5384 37.1771 75.4902 37.247C75.442 37.3168 75.3863 37.4124 75.3231 37.5338C75.26 37.6551 75.1979 37.7824 75.1369 37.9156C75.0759 38.0487 75.0282 38.1551 74.994 38.2345C75.0017 38.3429 74.9905 38.4487 74.9606 38.5517C74.9403 38.6409 74.9448 38.7315 74.9739 38.8238C75.0073 38.9397 75.0868 39.041 75.2125 39.1278C75.3382 39.2146 75.5165 39.3222 75.7475 39.4507C76.2168 39.6819 76.568 39.8676 76.8011 40.0079C77.046 40.1461 77.2195 40.2607 77.3216 40.3518C77.4237 40.4429 77.4963 40.5394 77.5393 40.6413C77.807 40.9705 77.889 41.2848 77.7853 41.5844C77.6794 41.8722 77.4801 42.1161 77.1874 42.3161C77.0801 42.3968 76.8833 42.4877 76.5969 42.589C76.3126 42.7021 76.0041 42.783 75.6714 42.8317C75.3527 42.8901 75.0726 42.8926 74.8311 42.8393ZM85.9878 40.4295C85.8408 40.4931 85.6359 40.5062 85.3728 40.469C85.1077 40.42 84.8452 40.3522 84.5853 40.2656C84.3351 40.165 84.1611 40.081 84.0633 40.0135C83.9634 39.9342 83.9247 39.8559 83.9471 39.7786C83.9674 39.6895 84.0188 39.6373 84.1015 39.6222C84.1487 39.6136 84.2167 39.5523 84.3057 39.4384C84.3925 39.3127 84.4228 39.112 84.3967 38.8362C84.39 38.6666 84.3936 38.5195 84.4073 38.395C84.4308 38.2565 84.4382 38.1637 84.4295 38.1165C84.4348 38.0789 84.4293 37.9823 84.413 37.8267C84.4064 37.6571 84.4158 37.509 84.4414 37.3823C84.4497 37.1612 84.4708 36.8767 84.5047 36.5289C84.5364 36.1693 84.5703 35.8215 84.6063 35.4855C84.652 35.1356 84.6882 34.8667 84.7148 34.6788C84.7146 34.5446 84.7374 34.3696 84.7833 34.1539C84.8292 33.9381 84.8708 33.7657 84.9082 33.6369C84.9657 33.2848 85.0515 32.8542 85.1657 32.3453C85.2917 31.8343 85.4235 31.3221 85.5613 30.8089C85.6969 30.2839 85.8171 29.841 85.9218 29.4802C86.0362 29.1055 86.1104 28.8784 86.1447 28.7989C86.2218 28.6872 86.3688 28.6237 86.5856 28.6083C86.8024 28.593 86.9876 28.6384 87.1412 28.7445C87.2712 28.8548 87.3964 28.9722 87.5168 29.0965C87.6372 29.2209 87.6417 29.3787 87.5303 29.5699C87.4982 29.6611 87.4453 29.805 87.3715 30.0015C87.2955 30.1862 87.2356 30.3253 87.1917 30.4188C87.1492 30.7193 87.0819 31.0183 86.99 31.3158C86.9099 31.611 86.8245 31.9439 86.7338 32.3143C86.6409 32.6729 86.5513 33.1163 86.465 33.6445C86.3999 33.8882 86.3524 34.1287 86.3227 34.3659C86.2908 34.5914 86.2567 34.7379 86.2202 34.8056C86.197 35.0783 86.156 35.2871 86.0971 35.432C86.0501 35.5749 86.0289 35.7922 86.0336 36.0842C86.0336 36.0842 86.0818 36.0143 86.1782 35.8747C86.2864 35.7329 86.4128 35.5572 86.5574 35.3477C86.927 34.7676 87.2709 34.3142 87.5893 33.9875C87.9076 33.6608 88.2191 33.4635 88.5239 33.3954C88.6869 33.3534 88.8716 33.3622 89.0777 33.4221C89.2957 33.4797 89.5003 33.5643 89.6915 33.6756C89.8805 33.7752 90.0186 33.8963 90.1057 34.0389C90.2391 34.2341 90.3371 34.5028 90.3998 34.8452C90.4603 35.1757 90.4699 35.5277 90.4286 35.9013C90.399 36.2727 90.3028 36.6136 90.1401 36.924C90.0514 37.172 89.932 37.4196 89.7821 37.6666C89.6418 37.8997 89.5154 38.0754 89.4028 38.1936C89.3042 38.3215 89.2057 38.4493 89.1071 38.5772C89.0181 38.6911 88.9437 38.784 88.8837 38.856C88.7497 38.9903 88.6409 39.0957 88.5573 39.172C88.4715 39.2365 88.3514 39.3134 88.1969 39.4027C87.9815 39.6251 87.663 39.8177 87.2414 39.9803C86.8198 40.1429 86.4019 40.2927 85.9878 40.4295ZM86.1839 39.0028C86.2666 38.9877 86.4109 38.943 86.6168 38.8686C86.8346 38.7921 87.025 38.6658 87.1879 38.4895C87.6908 38.1046 88.0761 37.7108 88.3439 37.3079C88.6235 36.9029 88.8028 36.5163 88.8817 36.148C88.9606 35.7798 88.9634 35.4621 88.8901 35.1949C88.8168 34.9277 88.6541 34.8721 88.4021 35.0281C88.1597 35.1701 87.8119 35.5693 87.3588 36.2257C87.1423 36.5093 86.9591 36.7747 86.8092 37.0217C86.6593 37.2688 86.5056 37.5288 86.3482 37.8016C86.2893 37.9466 86.2262 38.0679 86.1587 38.1657C86.1008 38.2495 86.0747 38.3397 86.0802 38.4363C86.0667 38.8291 86.1013 39.018 86.1839 39.0028ZM93.009 38.4663C92.9917 38.3718 92.9637 38.2855 92.925 38.2072C92.8862 38.1289 92.8861 38.0618 92.9247 38.0059L93.0728 38.0154C93.0278 38.0358 92.9344 38.059 92.7928 38.085C92.6608 38.097 92.5336 38.102 92.4112 38.1C92.2985 38.084 92.2341 38.0653 92.218 38.0439C92.193 37.8411 92.1767 37.6855 92.169 37.5771C92.1732 37.4665 92.1865 37.3726 92.2089 37.2953C92.1895 37.189 92.2 37.0468 92.2406 36.8686C92.2811 36.6904 92.3088 36.5084 92.3236 36.3227C92.334 36.1134 92.3379 35.8016 92.3352 35.3873C92.3443 34.9708 92.3921 34.5656 92.4785 34.1716C92.5167 33.8474 92.5645 33.4421 92.6218 32.9559C92.6769 32.4578 92.7413 32.0434 92.8149 31.7127C92.8571 31.1438 92.907 30.6833 92.9644 30.3311C93.0316 29.9651 93.1052 29.6344 93.1853 29.3391C93.2751 29.0299 93.3701 28.6831 93.4705 28.2987C93.5004 28.1956 93.526 28.0689 93.5473 27.9186C93.5664 27.7565 93.5839 27.6191 93.5999 27.5064C93.6715 27.2981 93.7974 27.153 93.9776 27.0712C94.1696 26.9873 94.3495 27.0031 94.517 27.1188C94.6707 27.2249 94.7926 27.3245 94.8829 27.4178C94.971 27.4992 95.0179 27.6553 95.0236 27.8861C95.0389 28.1029 94.9916 28.4775 94.8818 29.01C94.8208 29.1432 94.7631 29.3612 94.7088 29.6639C94.6641 29.9527 94.6199 30.2109 94.5762 30.4385C94.4748 30.8841 94.398 31.2641 94.3458 31.5787C94.2937 31.8932 94.2485 32.2126 94.2103 32.5368C94.1882 32.8824 94.1414 33.2265 94.0699 33.5689C93.9963 33.8996 93.934 34.2587 93.883 34.6463L93.6159 34.7867C93.6791 34.6653 93.7567 34.523 93.8488 34.3597C93.9527 34.1943 94.047 34.0428 94.1316 33.9054C94.228 33.7657 94.2907 33.6749 94.3196 33.633C94.5885 33.3032 94.8994 33.0022 95.2522 32.7302C95.6049 32.4582 95.9449 32.2495 96.2721 32.1042C96.6089 31.9449 96.8723 31.8844 97.0623 31.9228C97.2878 31.9547 97.5224 32.0703 97.7663 32.2696C98.0081 32.4572 98.1957 32.7156 98.3292 33.0449C98.4583 33.2165 98.4919 33.4665 98.43 33.795C98.38 34.1214 98.2807 34.5117 98.1321 34.9659C97.9985 35.3685 97.8332 35.7648 97.6362 36.1547C97.4371 36.5327 97.24 36.8555 97.045 37.123C96.9711 37.1854 96.88 37.2875 96.7718 37.4293C96.6732 37.5572 96.5864 37.6829 96.5114 37.8064C96.3046 38.0761 96.028 38.2975 95.6816 38.4708C95.3448 38.6301 94.9934 38.7432 94.6275 38.8103C94.2594 38.8655 93.924 38.8659 93.6213 38.8116C93.3303 38.7551 93.1262 38.64 93.009 38.4663ZM93.404 37.6253C93.4651 37.6263 93.5263 37.6273 93.5875 37.6283C93.6465 37.6175 93.7114 37.6056 93.7823 37.5926C94.0354 37.5097 94.2398 37.46 94.3955 37.4437C94.5607 37.4134 94.7168 37.3665 94.8638 37.303C95.0225 37.2373 95.1963 37.1201 95.3849 36.9514C95.6486 36.6591 95.8559 36.3588 96.0068 36.0506C96.1695 35.7402 96.3371 35.4228 96.5095 35.0984C96.6626 34.802 96.7743 34.5131 96.8448 34.2318C96.9131 33.9387 96.9289 33.6918 96.8921 33.4912C96.8727 33.3849 96.8334 33.3372 96.7744 33.348C96.7508 33.3524 96.6511 33.4072 96.4752 33.5126C96.2971 33.6063 96.1164 33.7187 95.9331 33.8498C95.7593 33.9671 95.6484 34.0606 95.6002 34.1304C95.6088 34.1776 95.581 34.2254 95.5166 34.2738C95.4501 34.3104 95.4169 34.3287 95.4169 34.3287C95.1007 34.6672 94.8681 34.9294 94.7192 35.1153C94.5799 35.2872 94.4556 35.4746 94.3464 35.6776C94.2854 35.8108 94.2367 35.9112 94.2003 35.9789C94.1618 36.0348 94.1291 36.0895 94.1023 36.1432C94.0734 36.1851 94.0333 36.2657 93.9819 36.3849C93.9305 36.5041 93.8546 36.6888 93.754 36.939C93.6995 37.1076 93.6439 37.2703 93.5872 37.4271C93.5306 37.5839 93.4749 37.6795 93.4202 37.7139L93.404 37.6253ZM108.079 39.1643C107.497 39.1855 106.973 39.0193 106.505 38.6657C106.04 38.3239 105.678 37.9144 105.42 37.4371C105.105 36.9824 104.881 36.3586 104.748 35.5656C104.613 34.7608 104.582 33.9247 104.654 33.0574C104.672 32.8223 104.683 32.5824 104.687 32.3377C104.691 32.093 104.692 31.9282 104.688 31.8434C104.702 31.7189 104.743 31.5101 104.811 31.217C104.88 30.9239 104.959 30.5921 105.05 30.2217C105.139 29.8395 105.222 29.4643 105.301 29.096C105.39 28.7138 105.462 28.3772 105.519 28.0863C105.595 27.7674 105.72 27.3846 105.894 26.9379C106.08 26.489 106.272 26.039 106.47 25.588C106.68 25.1347 106.87 24.74 107.04 24.4039C107.222 24.0655 107.354 23.8523 107.435 23.7642C107.484 23.6944 107.552 23.6025 107.641 23.4886C107.73 23.3747 107.815 23.3043 107.895 23.2774C107.919 23.1389 107.994 23.0153 108.12 22.9068C108.247 22.7982 108.363 22.7342 108.469 22.7147C108.715 22.5234 108.996 22.4291 109.314 22.4319C109.632 22.4347 109.87 22.6045 110.03 22.9413C110.095 23.1 110.115 23.2063 110.088 23.26C110.073 23.3115 109.957 23.412 109.741 23.5615C109.631 23.6303 109.497 23.7282 109.337 23.8551C109.175 23.9701 109.061 24.0824 108.996 24.192C108.914 24.3413 108.819 24.4927 108.713 24.6464C108.607 24.8 108.523 24.9069 108.461 24.9671C108.264 25.0886 108.175 25.2025 108.194 25.3088C108.194 25.3088 108.159 25.4188 108.09 25.6389C108.032 25.8569 107.917 26.1281 107.745 26.4524C107.644 26.7026 107.53 27.0103 107.402 27.3754C107.273 27.7405 107.171 28.0154 107.095 28.2001C107.024 28.4084 106.964 28.584 106.917 28.7268C106.88 28.8556 106.814 28.9958 106.72 29.1473C106.726 29.1827 106.724 29.2685 106.712 29.4049C106.7 29.5412 106.657 29.7017 106.581 29.8864C106.557 30.1591 106.479 30.5332 106.347 31.0089C106.299 31.2129 106.244 31.4791 106.182 31.8076C106.132 32.134 106.092 32.4464 106.061 32.7448C106.042 33.0411 106.044 33.2482 106.065 33.3663C106.042 33.3706 106.024 33.4103 106.014 33.4855C106.013 33.5466 106.015 33.6926 106.021 33.9234C106.036 34.1402 106.053 34.497 106.071 34.9939C106.156 35.5273 106.248 35.9618 106.346 36.2976C106.456 36.6313 106.597 36.9043 106.77 37.1166C106.946 37.3406 107.161 37.5513 107.417 37.7484C107.568 37.8427 107.714 37.9074 107.855 37.9426C107.996 37.9779 108.156 37.9852 108.335 37.9645L109.005 38.2261C108.984 38.5105 108.872 38.7323 108.669 38.8914C108.481 39.0602 108.284 39.1512 108.079 39.1643ZM118.391 34.3109C118.304 34.3024 118.16 34.2494 117.959 34.152C117.758 34.0546 117.563 33.8891 117.374 33.6553C117.196 33.4194 117.076 33.0938 117.012 32.6786C116.959 32.3223 116.937 32.0701 116.946 31.922C116.966 31.7599 116.933 31.6805 116.848 31.6838C116.787 31.6828 116.678 31.7576 116.523 31.908C116.368 32.0585 116.172 32.2895 115.936 32.6011C115.701 32.9127 115.421 33.3177 115.097 33.8161C114.977 33.9601 114.845 34.1368 114.701 34.3463C114.566 34.5418 114.417 34.6971 114.255 34.8122C114.105 34.9251 113.954 34.9344 113.803 34.8402L113.597 34.7132C113.501 34.6576 113.413 34.5761 113.332 34.4689C113.252 34.3617 113.215 34.2646 113.224 34.1776L113.467 32.7058C113.552 32.3729 113.605 32.1314 113.627 31.9811C113.66 31.8286 113.667 31.7358 113.649 31.7025C113.642 31.6671 113.611 31.6607 113.554 31.6833C113.485 31.7081 113.397 31.7914 113.289 31.9332C113.178 32.0633 113.106 32.168 113.072 32.2475C113.024 32.2561 112.968 32.3152 112.903 32.4248C112.849 32.5322 112.794 32.6278 112.736 32.7116C112.678 32.7954 112.579 32.9538 112.439 33.1869C112.296 33.4082 112.144 33.6435 111.982 33.8927C111.855 34.0624 111.712 34.2837 111.555 34.5566C111.398 34.8294 111.259 35.0743 111.141 35.2913C111.022 35.5082 110.945 35.6199 110.909 35.6264C110.694 35.6536 110.487 35.6184 110.286 35.521C110.097 35.4214 109.956 35.2826 109.862 35.1046C109.767 34.9877 109.718 34.7527 109.715 34.3996C109.709 34.0347 109.718 33.4535 109.743 32.656C109.758 32.4703 109.771 32.3093 109.782 32.1729C109.806 32.0344 109.829 31.896 109.853 31.7575C109.876 31.619 109.902 31.4617 109.931 31.2856C109.972 31.1074 110.023 30.8905 110.086 30.635C110.115 30.4589 110.111 30.3012 110.073 30.1617C110.033 30.0104 109.998 29.8886 109.969 29.7964C109.937 29.6193 109.964 29.4679 110.051 29.3422C110.149 29.2144 110.266 29.1198 110.401 29.0584C110.534 28.9853 110.644 28.9529 110.731 28.9614C111.068 28.9363 111.314 29.0132 111.469 29.1923C111.624 29.3713 111.724 29.5542 111.771 29.7409C111.815 29.9157 111.821 30.0794 111.787 30.2319C111.754 30.3843 111.729 30.511 111.711 30.6119L111.604 31.1256C111.535 31.4188 111.483 31.6356 111.448 31.7763C111.423 31.903 111.408 31.991 111.405 32.0404C111.412 32.0758 111.418 32.1112 111.425 32.1466C111.443 32.1799 111.493 32.1524 111.574 32.0643C111.656 31.9762 111.75 31.8612 111.859 31.7194C111.977 31.5636 112.086 31.4277 112.187 31.3116C112.367 31.0957 112.558 30.8775 112.762 30.6572C112.975 30.423 113.187 30.2134 113.397 30.0285C113.607 29.8436 113.785 29.7135 113.93 29.6382C114.137 29.6368 114.338 29.7036 114.534 29.8386C114.741 29.9714 114.879 30.0925 114.948 30.2019C115.039 30.3682 115.074 30.5264 115.053 30.6767C115.044 30.8249 115.038 30.9601 115.036 31.0825C115.033 31.1318 115.025 31.2247 115.014 31.361C115.002 31.4974 114.989 31.6278 114.976 31.7523C114.96 31.865 114.952 31.9214 114.952 31.9214C114.952 31.9214 114.981 31.8795 115.038 31.7957C115.096 31.7119 115.176 31.612 115.276 31.4959C115.375 31.3681 115.476 31.252 115.579 31.1478C116.087 30.5911 116.501 30.2224 116.822 30.0417C117.152 29.847 117.471 29.8922 117.78 30.1773C117.945 30.2812 118.066 30.442 118.143 30.6598C118.231 30.8754 118.31 31.1721 118.379 31.5498C118.419 31.7011 118.462 31.87 118.508 32.0567C118.566 32.2413 118.62 32.4022 118.67 32.5395C118.731 32.6747 118.777 32.7578 118.807 32.7889C118.851 32.8296 118.925 32.8649 119.028 32.8948C119.129 32.913 119.223 32.9263 119.31 32.9347C119.49 32.9871 119.607 33.1243 119.66 33.3464C119.722 33.5546 119.67 33.7349 119.502 33.8876C119.345 34.0262 119.168 34.1258 118.972 34.1861C118.787 34.2443 118.593 34.2859 118.391 34.3109ZM123.65 33.4206C123.333 33.6861 122.977 33.8733 122.582 33.9822C122.197 34.0772 121.821 34.0911 121.455 34.024C121.087 33.945 120.772 33.7893 120.509 33.5567C120.363 33.4249 120.207 33.2035 120.04 32.8924C119.871 32.5696 119.769 32.1125 119.734 31.5211C119.705 30.9652 119.77 30.3861 119.928 29.7837C120.098 29.1792 120.339 28.6288 120.65 28.1325C120.962 27.6363 121.334 27.2692 121.766 27.0315C121.921 26.9422 122.078 26.8706 122.239 26.8167C122.41 26.7489 122.639 26.7008 122.926 26.6725C123.204 26.6582 123.459 26.6847 123.691 26.752C123.921 26.8075 124.094 26.8856 124.21 26.9864C124.434 27.1406 124.591 27.3009 124.682 27.4671C124.774 27.6334 124.829 27.8002 124.847 27.9676C124.857 28.3561 124.761 28.7947 124.558 29.2833C124.366 29.7698 124.042 30.1647 123.585 30.468C123.4 30.5873 123.173 30.6837 122.906 30.757C122.639 30.8304 122.261 30.8631 121.771 30.8551C121.477 30.848 121.294 30.9121 121.221 31.0474C121.16 31.1806 121.167 31.4173 121.241 31.7574C121.304 31.9656 121.385 32.1458 121.487 32.298C121.597 32.4364 121.764 32.5156 121.988 32.5357C122.268 32.5331 122.464 32.5034 122.575 32.4463C122.684 32.3775 122.82 32.2855 122.982 32.1705C123.066 32.0942 123.142 32.013 123.212 31.9271C123.293 31.839 123.369 31.7519 123.439 31.666C123.52 31.5778 123.587 31.5107 123.64 31.4645C123.69 31.4064 123.744 31.3661 123.8 31.3435C123.857 31.3209 123.915 31.3042 123.974 31.2934C124.106 31.2814 124.243 31.3295 124.385 31.4377C124.527 31.5459 124.626 31.6558 124.683 31.7674C124.701 31.8618 124.666 32.0083 124.581 32.207C124.493 32.3939 124.366 32.6001 124.2 32.8257C124.044 33.0374 123.86 33.2357 123.65 33.4206ZM122.697 29.5144C122.773 29.4639 122.876 29.3596 123.006 29.2017C123.147 29.0416 123.27 28.8788 123.374 28.7134C123.475 28.5361 123.519 28.4062 123.503 28.3236C123.48 28.1937 123.371 28.0978 123.176 28.0358C122.994 27.9717 122.772 27.994 122.511 28.1027C122.421 28.1436 122.321 28.2291 122.211 28.3591C122.1 28.4891 121.993 28.6368 121.889 28.8023C121.783 28.9559 121.695 29.1063 121.624 29.2534C121.551 29.3887 121.504 29.4951 121.481 29.5724C121.539 29.6227 121.642 29.6527 121.791 29.6621C121.939 29.6716 122.095 29.6612 122.261 29.6309C122.438 29.5985 122.583 29.5596 122.697 29.5144ZM126.587 32.5715C126.543 32.5308 126.455 32.4858 126.324 32.4366C126.193 32.3874 126.124 32.3392 126.115 32.292C126.111 32.2684 126.099 32.2399 126.081 32.2067C126.075 32.1713 126.048 32.1579 126 32.1665C125.959 32.1376 125.952 32.0045 125.982 31.7673C126.024 31.5279 126.081 31.2429 126.155 30.9122C126.24 30.5793 126.334 30.2572 126.435 29.9458C126.535 29.6226 126.621 29.3628 126.695 29.1663C126.748 29.12 126.775 29.0663 126.776 29.0052C126.786 28.93 126.78 28.8946 126.756 28.8989C126.756 28.8989 126.776 28.8404 126.815 28.7234C126.865 28.5923 126.904 28.5059 126.933 28.464C126.997 28.2814 127.037 28.1032 127.054 27.9293C127.069 27.7436 127.054 27.5939 127.009 27.4802C126.951 27.4298 126.894 27.4219 126.839 27.4563C126.785 27.4907 126.757 27.5079 126.757 27.5079C126.712 27.5284 126.646 27.5649 126.558 27.6176C126.48 27.6564 126.409 27.7059 126.347 27.766C126.11 28.0046 125.927 28.1358 125.797 28.1596C125.679 28.1812 125.535 28.0612 125.365 27.7995C125.294 27.6783 125.254 27.5577 125.244 27.4375C125.234 27.3173 125.264 27.2142 125.334 27.1282C125.413 27.0283 125.516 26.9241 125.642 26.8155C125.767 26.6951 125.849 26.6129 125.89 26.5688C126.005 26.4624 126.171 26.3404 126.39 26.2027C126.609 26.065 126.741 25.986 126.786 25.9655C127.076 25.8149 127.335 25.7673 127.565 25.8228C127.793 25.8665 127.982 26.0026 128.134 26.231C128.336 26.4014 128.457 26.5987 128.499 26.823C128.54 27.0472 128.508 27.3398 128.403 27.7005L128.275 27.9985C128.237 28.1274 128.236 28.1886 128.272 28.1821C128.319 28.1734 128.364 28.1224 128.408 28.029C128.435 27.9753 128.493 27.8915 128.582 27.7776C128.671 27.6637 128.733 27.6035 128.768 27.597C128.768 27.597 128.779 27.5889 128.801 27.5728C128.834 27.5545 128.843 27.5041 128.828 27.4214C128.857 27.3795 128.886 27.3377 128.915 27.2958C128.955 27.2517 128.976 27.2297 128.976 27.2297C129.023 27.221 129.078 27.1866 129.14 27.1264C129.212 27.0523 129.328 26.9212 129.489 26.7331C129.601 26.6149 129.71 26.5461 129.817 26.5266C130.073 26.3942 130.308 26.4428 130.52 26.6722C130.745 26.8994 130.895 27.2196 130.971 27.6327L130.774 28.6569L131.269 27.7611C131.322 27.6537 131.378 27.5581 131.436 27.4743C131.506 27.3884 131.566 27.3164 131.616 27.2584C131.624 27.1714 131.651 27.1177 131.696 27.0973C131.741 27.0768 131.764 27.0666 131.764 27.0666C131.764 27.0666 131.776 27.0644 131.799 27.0601C131.821 27.044 131.828 27.0182 131.822 26.9828C131.872 26.9248 131.929 26.8716 131.994 26.8232C132.056 26.763 132.095 26.7071 132.109 26.6556C132.295 26.5362 132.535 26.4801 132.829 26.4872C133.121 26.4825 133.349 26.5933 133.512 26.8196C133.621 26.9461 133.72 27.056 133.81 27.1492C133.901 27.2425 133.965 27.3953 134.004 27.6078C134.013 27.7892 134.012 27.9174 134.001 27.9926C134.003 28.0656 134.005 28.1445 134.008 28.2292C134.009 28.3022 134.015 28.4353 134.026 28.6285C133.996 28.7316 133.985 28.8373 133.993 28.9457C134.012 29.0519 134.031 29.1523 134.048 29.2467C134.076 29.4001 134.102 29.5053 134.124 29.5621C134.145 29.6072 134.196 29.6222 134.279 29.607C134.438 29.5413 134.564 29.4634 134.657 29.3731C134.76 29.2688 134.87 29.1388 134.988 28.983C135.135 28.7853 135.284 28.7336 135.435 28.8279C135.596 28.9082 135.708 29.0159 135.769 29.151C135.801 29.1939 135.797 29.3045 135.757 29.4827C135.716 29.6609 135.663 29.8354 135.596 30.0062C135.53 30.1769 135.467 30.2677 135.408 30.2785C135.373 30.285 135.311 30.3452 135.222 30.4591C135.133 30.5729 135.062 30.653 135.01 30.6992C134.942 30.797 134.873 30.8888 134.804 30.9748C134.746 31.0586 134.67 31.1091 134.575 31.1264C134.528 31.1351 134.472 31.1636 134.408 31.212C134.353 31.2464 134.285 31.2712 134.202 31.2863C134.091 31.3434 133.904 31.3592 133.644 31.3337C133.394 31.3062 133.211 31.169 133.092 30.9223C133.021 30.8011 132.92 30.6489 132.789 30.4655C132.67 30.28 132.607 30.0353 132.6 29.7316C132.608 29.5105 132.602 29.3103 132.581 29.1311C132.561 28.9519 132.562 28.8236 132.584 28.7463C132.577 28.7109 132.562 28.6283 132.539 28.4984C132.513 28.3568 132.482 28.2892 132.447 28.2957C132.399 28.3044 132.322 28.3796 132.213 28.5214C132.105 28.6632 131.981 28.8507 131.841 29.0838C131.698 29.3051 131.553 29.5452 131.405 29.804C131.269 30.0607 131.151 30.3142 131.05 30.5644C130.968 30.7137 130.903 30.8903 130.855 31.0943C130.807 31.2983 130.767 31.4154 130.736 31.4455C130.671 31.555 130.531 31.5928 130.318 31.5587C130.116 31.5225 129.954 31.4363 129.831 31.3001C129.783 31.2358 129.734 31.2021 129.684 31.1989C129.633 31.184 129.585 31.1561 129.541 31.1154C129.507 31.0607 129.486 30.9486 129.479 30.779C129.485 30.6072 129.513 30.3276 129.564 29.9401C129.62 29.515 129.666 29.1344 129.702 28.7984C129.748 28.4485 129.771 28.2735 129.771 28.2735C129.762 28.2263 129.682 28.2897 129.531 28.4638C129.378 28.6261 129.202 28.8291 129.002 29.073C128.92 29.2223 128.808 29.4135 128.668 29.6466C128.54 29.8776 128.388 30.1493 128.214 30.4619C128.051 30.7723 127.867 31.1353 127.663 31.551C127.409 32.0976 127.203 32.4403 127.046 32.5789C126.9 32.7154 126.747 32.713 126.587 32.5715ZM138.899 31.3226C138.25 31.4415 137.714 31.3446 137.29 31.0317C136.879 30.7167 136.602 30.1697 136.459 29.3906C136.381 28.9657 136.372 28.4854 136.433 27.9497C136.505 27.4119 136.627 26.8773 136.798 26.3457C136.981 25.8121 137.199 25.339 137.453 24.9265C137.705 24.5022 137.977 24.19 138.269 23.99C138.377 23.9094 138.493 23.8454 138.619 23.798C138.754 23.7366 138.886 23.694 139.016 23.6703C139.158 23.6443 139.313 23.628 139.483 23.6213C139.662 23.6007 139.834 23.6058 139.998 23.6368C140.285 23.6696 140.55 23.7858 140.794 23.9851C141.05 24.1822 141.219 24.5051 141.301 24.9536C141.322 25.0716 141.334 25.2036 141.337 25.3496C141.337 25.4838 141.319 25.6212 141.284 25.7618C141.202 26.1795 141.034 26.5945 140.78 27.007C140.538 27.4173 140.259 27.7247 139.943 27.929C139.857 27.9935 139.769 28.0462 139.679 28.0871C139.598 28.1141 139.511 28.1362 139.416 28.1535C139.169 28.1989 138.938 28.2046 138.724 28.1705C138.522 28.1343 138.328 28.0723 138.141 27.9845L137.977 27.8865L137.921 28.0798C137.879 28.3192 137.855 28.5189 137.847 28.6788C137.852 28.8366 137.861 28.9509 137.874 29.0217C137.9 29.1633 137.933 29.3098 137.972 29.4611C138.01 29.6006 138.067 29.7121 138.144 29.7957C138.202 29.8461 138.269 29.8825 138.347 29.9049C138.436 29.9252 138.539 29.9245 138.657 29.9029C138.728 29.8899 138.793 29.8781 138.852 29.8672C138.921 29.8425 138.978 29.8199 139.023 29.7994C139.226 29.7133 139.383 29.6052 139.494 29.4752C139.614 29.3312 139.743 29.2038 139.881 29.0931L139.946 29.0447L139.918 28.9948C140.099 28.8518 140.223 28.7621 140.29 28.7255C140.354 28.6771 140.402 28.6379 140.433 28.6078C140.472 28.5519 140.52 28.5186 140.579 28.5078C140.74 28.4539 140.908 28.4719 141.083 28.5618C141.268 28.6378 141.376 28.7584 141.406 28.9236C141.419 28.9945 141.386 29.1163 141.308 29.2892C141.242 29.46 141.146 29.6361 141.021 29.8177C140.905 29.9853 140.778 30.1244 140.64 30.2352C140.606 30.2535 140.574 30.2777 140.543 30.3077C140.51 30.326 140.478 30.3502 140.447 30.3803L140.464 30.3771C140.384 30.5382 140.291 30.6285 140.184 30.6479L140.043 30.6739C140.011 30.7651 139.874 30.8818 139.631 31.0238C139.391 31.1776 139.147 31.2772 138.899 31.3226ZM139.038 26.8869C139.144 26.8675 139.235 26.8325 139.312 26.7819C139.4 26.7292 139.48 26.6717 139.554 26.6093C139.801 26.3568 139.936 26.0636 139.961 25.7298C139.985 25.3959 139.911 25.1594 139.739 25.0201C139.709 24.989 139.675 24.9708 139.638 24.9655C139.598 24.9483 139.554 24.9441 139.507 24.9527C139.377 24.9765 139.237 25.0449 139.087 25.1578C138.949 25.2685 138.817 25.4146 138.692 25.5962C138.566 25.7778 138.458 25.9867 138.367 26.2229L138.205 26.6369C138.227 26.6208 138.243 26.6116 138.255 26.6095C138.277 26.5933 138.293 26.5842 138.305 26.582C138.411 26.5626 138.489 26.585 138.537 26.6493C138.585 26.7137 138.64 26.7769 138.7 26.8391C138.772 26.8991 138.885 26.9151 139.038 26.8869ZM143.776 29.4776C143.729 29.4863 143.609 29.4655 143.417 29.4153C143.223 29.3533 143.098 29.303 143.042 29.2645C142.942 29.1852 142.87 29.0946 142.827 28.9927C142.782 28.8789 142.729 28.6568 142.669 28.3263C142.599 27.9486 142.598 27.5096 142.665 27.0094C142.73 26.4973 142.872 25.8065 143.091 24.9368L143.547 23.3343C143.591 23.2408 143.631 23.1603 143.668 23.0926C143.702 23.0131 143.743 22.9385 143.792 22.8687C143.815 22.8643 143.845 22.8589 143.88 22.8524C143.927 22.8438 143.964 22.8432 143.99 22.8507C144.098 22.843 144.275 22.8777 144.521 22.9546C144.779 23.0294 144.953 23.1805 145.043 23.408C145.071 23.5614 145.081 23.7487 145.073 23.9698C145.062 24.1791 144.969 24.4706 144.794 24.8444C144.721 24.9797 144.658 25.1682 144.605 25.4097C144.563 25.6491 144.525 25.8757 144.491 26.0893C144.484 26.1151 144.459 26.1806 144.417 26.2858C144.385 26.3771 144.354 26.4742 144.324 26.5773C144.292 26.6686 144.279 26.726 144.283 26.7496L144.241 26.922L144.866 26.0389C145.3 25.4104 145.68 24.9505 146.004 24.6592C146.329 24.3679 146.619 24.2173 146.873 24.2073C147.139 24.1951 147.373 24.3048 147.574 24.5364C147.678 24.6393 147.761 24.7583 147.822 24.8935C147.882 25.0169 147.933 25.166 147.977 25.3409C148.022 25.5158 148.057 25.7411 148.083 26.0169L148.268 27.0261C148.481 26.926 148.644 26.8475 148.755 26.7904C148.865 26.7216 148.975 26.6587 149.087 26.6016C149.177 26.5607 149.267 26.5198 149.357 26.4789C149.459 26.4358 149.586 26.3943 149.737 26.3544C149.753 26.51 149.723 26.7108 149.646 26.9567C149.569 27.2026 149.463 27.4539 149.327 27.7106C149.202 27.9651 149.054 28.1875 148.881 28.3777C148.721 28.5657 148.558 28.6749 148.392 28.7052C148.239 28.7333 148.053 28.7185 147.835 28.6608C147.615 28.5913 147.407 28.422 147.212 28.1529C147.136 28.0081 147.057 27.8397 146.973 27.6477C146.889 27.4557 146.826 27.2475 146.785 27.0233L146.642 26.2442C146.629 26.1734 146.615 26.1273 146.599 26.1058C146.592 26.0704 146.583 26.0538 146.571 26.0559C146.524 26.0646 146.393 26.2166 146.179 26.5121C145.977 26.8054 145.77 27.1115 145.56 27.4306C145.121 28.0966 144.744 28.5989 144.427 28.9374C144.123 29.2738 143.906 29.4538 143.776 29.4776ZM152.353 28.547C152.218 28.5472 152.063 28.4964 151.885 28.3947C151.706 28.2812 151.536 28.1537 151.376 28.0122C151.226 27.8568 151.122 27.7233 151.065 27.6117C151.061 27.5881 151.037 27.5619 150.996 27.5329C150.965 27.5018 150.95 27.4863 150.95 27.4863C150.897 27.4595 150.839 27.3115 150.778 27.0422C150.726 26.7589 150.686 26.4429 150.659 26.0941C150.632 25.7453 150.623 25.4662 150.634 25.2569C150.658 25.0572 150.7 24.7872 150.76 24.4469C150.817 24.0948 150.863 23.7813 150.898 23.5065L151.188 22.392L150.445 22.327C150.358 22.3185 150.278 22.2843 150.206 22.2243C150.146 22.1621 150.112 22.1074 150.103 22.0602C150.086 21.9658 150.114 21.8203 150.188 21.6238C150.261 21.4273 150.322 21.3247 150.369 21.3161C150.43 21.317 150.538 21.3035 150.691 21.2754C150.856 21.2451 151.015 21.21 151.166 21.1701C151.317 21.1302 151.409 21.1011 151.443 21.0828C151.486 21.0505 151.527 21.0124 151.568 20.9683C151.607 20.9125 151.63 20.8411 151.639 20.7541C151.674 20.6135 151.709 20.5034 151.743 20.4239C151.777 20.3444 151.823 20.2263 151.879 20.0695C151.934 19.901 151.975 19.7592 152.003 19.6444C152.042 19.5273 152.104 19.3635 152.187 19.1531C152.231 19.0596 152.278 18.9474 152.327 18.8164C152.376 18.6854 152.446 18.5688 152.537 18.4668C152.626 18.3529 152.785 18.2566 153.015 18.1779C153.254 18.0853 153.476 18.0995 153.682 18.2205C153.798 18.3213 153.871 18.4237 153.903 18.5277C153.934 18.6318 153.911 18.7762 153.836 18.9609C153.778 19.1789 153.699 19.3824 153.6 19.5714C153.51 19.7465 153.43 19.9441 153.361 20.1642C153.219 20.4585 153.211 20.6125 153.335 20.6263C153.46 20.6401 153.786 20.5559 154.314 20.3738C154.645 20.2521 154.9 20.2421 155.077 20.3438C155.254 20.4456 155.373 20.5946 155.433 20.7909C155.521 21.0677 155.523 21.2443 155.439 21.3206C155.355 21.3969 155.089 21.4762 154.641 21.5583C154.366 21.6574 154.13 21.7313 153.931 21.7798C153.73 21.8166 153.583 21.8436 153.488 21.8609C153.337 21.9008 153.238 21.9251 153.191 21.9338C153.143 21.9424 153.075 21.9672 152.985 22.0081C152.895 22.049 152.831 22.1033 152.795 22.171C152.768 22.2247 152.74 22.303 152.71 22.4061C152.671 22.462 152.623 22.5989 152.566 22.8169C152.508 23.0348 152.43 23.2748 152.331 23.5368C152.257 24.0628 152.203 24.5668 152.169 25.0488C152.145 25.5168 152.133 25.9826 152.132 26.4463C152.138 26.6771 152.174 26.8412 152.241 26.9388C152.317 27.0224 152.481 27.0533 152.734 27.0315C152.866 27.0196 153.055 26.985 153.3 26.9278C153.544 26.8587 153.744 26.7855 153.9 26.708C154.02 26.6252 154.144 26.5413 154.275 26.4564C154.404 26.3596 154.521 26.265 154.626 26.1725C154.721 26.0941 154.817 26.0156 154.912 25.9371C155.005 25.8468 155.052 25.8017 155.052 25.8017C155.094 25.6964 155.18 25.699 155.31 25.8094C155.449 25.9058 155.556 26.0205 155.629 26.1535C155.655 26.2951 155.657 26.4717 155.634 26.6832C155.61 26.8828 155.428 27.1235 155.09 27.4052C154.619 27.833 154.125 28.1309 153.606 28.299C153.088 28.4672 152.67 28.5498 152.353 28.547ZM158.718 27.5274C158.567 27.5673 158.44 27.5723 158.336 27.5424C158.236 27.5243 158.107 27.4869 157.95 27.4302C157.653 27.2771 157.39 27.0692 157.159 26.8066C156.939 26.5417 156.817 26.3079 156.792 26.1051C156.796 25.9945 156.779 25.9001 156.74 25.8218C156.713 25.7413 156.7 25.7011 156.7 25.7011C156.618 25.6551 156.588 25.624 156.61 25.6079C156.629 25.5799 156.64 25.5413 156.643 25.4919C156.733 25.451 156.733 25.3839 156.643 25.2906C156.59 25.2027 156.569 24.987 156.579 24.6435C156.599 24.2861 156.647 23.9479 156.723 23.629C156.758 23.4884 156.809 23.3021 156.877 23.0702C156.956 22.8361 157.047 22.5998 157.149 22.3614C157.25 22.1112 157.347 21.9104 157.442 21.7589C157.647 21.4163 157.833 21.1321 157.999 20.9065C158.177 20.6787 158.387 20.4938 158.63 20.3518C158.848 20.2142 159.077 20.1296 159.315 20.0982C159.565 20.0646 159.799 20.1072 160.016 20.226C160.314 20.2568 160.592 20.3401 160.848 20.4761C161.103 20.6003 161.3 20.8082 161.438 21.1C161.596 21.425 161.7 21.8268 161.751 22.3054C161.811 22.7701 161.72 23.4029 161.476 24.204C161.336 24.7054 161.18 25.1183 161.008 25.4426C160.847 25.7649 160.637 26.0839 160.378 26.3998C160.188 26.6297 159.929 26.848 159.601 27.0545C159.273 27.261 158.979 27.4186 158.718 27.5274ZM159.769 24.5717C159.883 24.3311 159.963 24.1029 160.009 23.8871C160.067 23.6692 160.105 23.3756 160.122 23.0063C160.134 22.87 160.122 22.7074 160.088 22.5185C160.065 22.3275 160.028 22.1575 159.976 22.0083C159.934 21.8452 159.877 21.7643 159.804 21.7655C159.639 21.7346 159.48 21.7637 159.325 21.853C159.181 21.9284 159.024 22.1035 158.854 22.3785C158.705 22.6256 158.588 22.8543 158.504 23.0648C158.431 23.2613 158.37 23.4981 158.323 23.775C158.286 24.0381 158.251 24.38 158.218 24.8007C158.195 25.2076 158.247 25.5214 158.373 25.7424C158.51 25.9611 158.699 25.9936 158.94 25.8398C159.18 25.686 159.456 25.2633 159.769 24.5717ZM163.31 28.9918C163.075 28.9739 162.833 28.8841 162.584 28.7223C162.337 28.5724 162.191 28.41 162.147 28.2351C162.152 28.1975 162.145 28.1256 162.126 28.0194C162.106 27.9131 162.113 27.8144 162.145 27.7231C162.145 27.7231 162.183 27.7343 162.261 27.7568C162.35 27.777 162.485 27.7463 162.665 27.6645C162.903 27.633 163.076 27.577 163.183 27.4963C163.29 27.4157 163.414 27.2588 163.554 27.0257C163.652 26.8249 163.766 26.6149 163.896 26.3958C164.037 26.1627 164.122 25.964 164.153 25.7998C164.318 25.6353 164.432 25.4924 164.495 25.371C164.556 25.2379 164.612 25.1058 164.661 24.9748C164.65 24.9158 164.648 24.8063 164.656 24.6463C164.661 24.4746 164.714 24.2636 164.814 24.0134C164.89 23.6945 164.968 23.424 165.05 23.2017C165.129 22.9676 165.163 22.821 165.152 22.762C165.152 22.762 165.162 22.7175 165.183 22.6284C165.203 22.5392 165.196 22.4368 165.163 22.3209C165.227 22.2725 165.272 22.185 165.298 22.0583C165.333 21.9176 165.333 21.7835 165.297 21.6558C165.291 21.6204 165.319 21.4749 165.382 21.2194C165.443 20.952 165.456 20.6933 165.423 20.4433C165.475 19.9946 165.5 19.5996 165.498 19.2583C165.507 18.903 165.492 18.5215 165.453 18.1136C165.415 17.7058 165.357 17.1859 165.278 16.5538C165.204 16.0183 165.149 15.6197 165.113 15.3578C165.075 15.0842 165.032 14.8787 164.982 14.7414C164.944 14.6019 164.865 14.47 164.745 14.3456C164.558 13.9895 164.423 13.8191 164.34 13.8342C164.305 13.8407 164.262 13.7753 164.213 13.638C164.163 13.5006 164.147 13.345 164.164 13.1711C164.143 13.1261 164.216 13.0578 164.382 12.9664C164.561 12.8728 164.704 12.8221 164.812 12.8145C164.895 12.7993 164.99 12.8185 165.097 12.8721C165.214 12.9116 165.295 12.9518 165.339 12.9925C165.377 12.9366 165.462 13.0004 165.593 13.1837C165.736 13.3649 165.898 13.6159 166.079 13.9366C166.18 14.0888 166.259 14.2207 166.316 14.3323C166.371 14.432 166.417 14.5517 166.455 14.6911C166.491 14.8188 166.525 15.0077 166.559 15.2577C166.59 15.4959 166.633 15.8297 166.687 16.2589C166.763 16.6721 166.817 17.1319 166.849 17.6385C166.89 18.1311 166.919 18.6199 166.934 19.105C166.948 19.5784 166.948 20.0114 166.934 20.4043C166.908 20.7263 166.864 21.1187 166.802 21.5813C166.739 22.0322 166.658 22.4922 166.561 22.9614C166.476 23.4284 166.388 23.8471 166.297 24.2175C166.218 24.5858 166.144 24.8494 166.076 25.0083C166.1 25.004 166.077 25.0813 166.009 25.2402C165.952 25.397 165.867 25.6016 165.755 25.854C165.652 26.0924 165.545 26.3378 165.432 26.5902C165.322 26.8543 165.229 27.0788 165.153 27.2635C165.022 27.5438 164.841 27.821 164.61 28.095C164.38 28.369 164.146 28.5888 163.907 28.7544C163.683 28.9296 163.484 29.0088 163.31 28.9918Z" fill="#1C1C1C"/>
<g clip-path="url(#clip0_49_1351)">
<path d="M145.997 98.9954C145.998 105.522 144.063 111.902 140.438 117.329C136.813 122.756 131.659 126.986 125.63 129.484C119.6 131.983 112.965 132.637 106.564 131.364C100.163 130.091 94.2825 126.949 89.6671 122.335C85.0517 117.72 81.9084 111.84 80.6345 105.439C79.3607 99.0382 80.0136 92.4032 82.5107 86.3732C85.0079 80.3432 89.237 75.1892 94.6634 71.5628C100.09 67.9364 106.47 66.0005 112.996 66C121.747 66.0007 130.14 69.477 136.329 75.6645C142.517 81.852 145.995 90.2441 145.997 98.9954Z" fill="#F25A26"/>
<path d="M145.44 93.0963C143.825 91.218 141.846 89.6857 139.624 88.5916C137.401 87.4974 134.98 86.864 132.506 86.7293C118.248 85.7258 115.455 83.5761 112.227 81.086C111.891 80.8212 111.545 80.5523 111.135 80.2455C114.627 77.6604 122.406 72.6028 129.809 72.6028C130.636 72.6042 131.462 72.6762 132.277 72.818L132.461 72.391C131.789 71.8968 131.097 71.4285 130.385 70.9858C130.194 70.9791 130.001 70.9615 129.809 70.9615C121.705 70.9766 113.359 76.5293 109.833 79.19C108.906 78.4428 108.152 77.5028 107.625 76.4353C107.098 75.3677 106.809 74.1982 106.779 73.0079C106.885 70.6867 107.698 68.4536 109.11 66.6081L109.404 66.2031C108.662 66.2872 107.929 66.4099 107.201 66.5393C105.927 68.4634 105.213 70.704 105.14 73.0104C105.166 74.3803 105.48 75.7294 106.062 76.9697C106.645 78.2099 107.482 79.3135 108.519 80.2085C108.082 80.5615 107.723 80.8632 107.461 81.0994C106.049 82.3701 104.767 83.6113 103.538 84.8308C96.5687 78.7462 92.1616 75.9342 90.4589 74.9442C90.0555 75.3266 89.653 75.7089 89.2639 76.1115L89.3538 76.1636C93.6534 78.8126 97.7084 81.8395 101.471 85.2082L102.378 85.9915C100.827 87.5782 99.3715 89.1639 98.0537 90.717C95.8774 89.0238 93.2192 88.0661 90.4631 87.9823C88.8587 88.0279 87.2802 88.3978 85.8226 89.0698C84.365 89.7417 83.0584 90.7017 81.9817 91.892L80.5841 92.9441C80.4412 93.7005 80.3194 94.4628 80.2345 95.2376L80.6396 94.9275L83.1121 93.0526C84.043 92.0144 85.1739 91.1748 86.437 90.5842C87.7002 89.9935 89.0696 89.6639 90.4631 89.6152C92.833 89.6952 95.1183 90.5162 96.9973 91.9626C88.2428 102.657 86.3888 110.752 86.3888 115.675C86.3973 116.768 86.5173 117.859 86.7468 118.928C87.2628 119.6 87.799 120.264 88.3705 120.903L88.8529 120.743C88.2785 119.116 87.9982 117.4 88.0251 115.675C88.0251 111.015 89.8152 103.305 98.2941 92.966C98.3336 93.0003 98.3748 93.0325 98.4176 93.0626L99.1857 94.0426C101.859 97.4185 103.976 100.086 105.505 114.862C105.717 118.513 107.122 126.65 110.883 131.892C111.585 131.94 112.289 132.002 113.002 132.002H113.016L112.741 131.654C109.01 126.999 107.327 118.821 107.135 114.733C105.595 99.4557 103.167 96.4116 100.358 92.8752L99.6152 91.9508C99.5211 91.8718 99.4337 91.8011 99.3404 91.7289C100.637 90.2161 102.073 88.6546 103.609 87.0805C113.637 95.9889 124.645 107.808 136.333 122.218L136.382 122.28C136.777 121.889 137.131 121.464 137.5 121.053C125.795 106.639 114.783 94.8233 104.769 85.9049C105.955 84.7401 107.192 83.545 108.551 82.3205C108.842 82.0558 109.266 81.7011 109.785 81.291L109.874 81.365C110.318 81.6852 110.73 82.007 111.143 82.3205C114.512 84.9174 117.691 87.3739 132.448 88.3714C135.024 88.5068 137.533 89.2406 139.776 90.5144C142.019 91.7882 143.934 93.5671 145.37 95.7099L145.818 95.5562C145.733 94.7191 145.59 93.9081 145.44 93.0963Z" fill="#B52D08"/>
</g>
<path d="M335.552 126.035H335.581C335.581 130.576 331.89 134.268 327.349 134.268H321.738C319.644 134.268 317.666 133.359 316.304 131.763C316.201 131.646 316.113 131.528 316.011 131.397H312.041C309.946 131.397 307.969 130.488 306.606 128.892C305.244 127.295 304.658 125.186 304.995 123.106C305.493 119.941 308.188 117.495 311.396 117.158L311.382 111.563L296.118 92.4317L266.675 96.2842C266.675 103.286 266.66 117.891 266.66 117.891V123.164C266.66 127.705 262.969 131.397 258.428 131.397H256.479C254.971 133.14 252.744 134.253 250.254 134.253H244.658C242.563 134.253 240.586 133.33 239.224 131.748C237.861 130.151 237.275 128.042 237.612 125.962C238.11 122.798 240.806 120.352 244.014 120.015V95.6983C237.773 92.9004 232.969 87.5977 230.698 80.8887C230.684 80.8301 222.012 53.086 222.012 53.086C212.197 52.251 204.478 44.0039 204.478 33.9844C204.478 32.5196 205.664 31.333 207.129 31.333H219.58L227.769 24.6973C227.871 23.6719 228.149 22.6465 228.633 21.6358C230.156 18.3838 233.335 16.2012 236.909 15.9668C237.729 15.9082 238.521 16.2891 239.004 16.9629C239.282 17.3438 239.531 17.7539 239.751 18.1788C240.981 17.6514 242.314 17.3584 243.677 17.3584C244.6 17.3584 245.449 17.8125 245.933 18.5889C247.896 21.6944 248.027 25.6348 246.255 28.8721C246.108 29.1358 245.962 29.3848 245.801 29.6338L261.021 48.6329C261.021 48.6329 318.472 57.8614 318.633 57.8907C319.717 58.0811 320.771 57.627 321.299 56.7481C326.733 47.71 328.125 38.9795 328.096 35.6397C328.081 34.2188 329.194 33.0469 330.615 32.959C332.021 32.8858 333.267 33.9405 333.398 35.3467C333.472 36.1084 335.186 53.9942 331.113 64.4532C330.308 66.5186 329.971 68.5987 330.103 70.6641C330.117 70.9571 330.132 95.3174 330.132 95.3174L335.376 107.754C335.508 108.076 335.581 108.428 335.581 108.779C335.596 108.779 335.581 125.903 335.552 126.035Z" fill="#663333"/>
<path d="M330.308 126.035H330.278C330.278 127.646 328.96 128.965 327.349 128.965H321.738C321.196 128.965 320.698 128.73 320.347 128.32C320.142 128.071 319.819 127.559 319.937 126.812C320.068 125.947 320.903 125.288 321.87 125.288L323.789 125.259C325.239 125.229 326.396 124.058 326.396 122.607V112.148V112.104C326.382 111.563 326.206 111.006 325.854 110.537L311.499 91.7725C311.499 91.7578 311.484 91.7578 311.484 91.7432C308.555 88.0078 303.794 86.0742 299.092 86.6895L255.513 92.4023C254.18 92.5781 253.198 93.7207 253.198 95.0391C253.198 99.7852 253.184 120.454 253.184 120.762V126.035C253.184 127.646 251.865 128.965 250.254 128.965H244.658C244.116 128.965 243.604 128.73 243.267 128.32C243.062 128.071 242.739 127.559 242.856 126.812C242.988 125.947 243.823 125.288 244.79 125.288L246.709 125.259C248.159 125.229 249.316 124.058 249.316 122.607V93.8965C249.316 92.7393 248.584 91.7578 247.559 91.3916C241.963 89.3994 237.642 84.9023 235.693 79.0576C235.679 79.0283 235.679 78.999 235.664 78.9844L226.523 49.7021C226.172 48.5889 225.146 47.8418 223.989 47.8418H223.638C216.914 47.8418 211.289 43.0225 210.059 36.6504H220.547C221.162 36.6504 221.748 36.4453 222.217 36.0645L231.313 28.6963H234.507C236.646 28.8135 238.652 27.5244 239.429 25.5029C239.502 25.3125 239.546 25.2246 239.546 25.2246C240.117 24.1699 241.04 23.3936 242.124 22.9834C242.373 24.1113 242.212 25.3125 241.655 26.3525C241.538 26.5576 241.421 26.7334 241.304 26.9092C240.044 28.623 240.103 30.9668 241.436 32.6367L257.563 52.7783C257.974 53.291 258.56 53.6426 259.219 53.7451C259.219 53.7451 317.681 63.1348 317.783 63.1494C321.035 63.7061 324.229 62.2705 325.898 59.502C326.616 58.3154 327.261 57.1582 327.847 56.0156C327.495 58.3887 326.968 60.6299 326.221 62.5488C325.137 65.332 324.683 68.1738 324.858 71.001C324.873 71.1768 324.873 95.8594 324.873 95.8594C324.873 96.2109 324.946 96.5625 325.078 96.8848L330.322 109.321C330.278 109.321 330.293 125.903 330.308 126.035Z" fill="#B88D5B"/>
<path d="M321.094 113.042V120.015C317.871 120.366 315.19 122.798 314.692 125.962C314.692 126.006 314.678 126.035 314.678 126.079H312.056C311.514 126.079 311.016 125.845 310.664 125.435C310.459 125.186 310.137 124.673 310.254 123.926C310.386 123.062 311.221 122.402 312.188 122.402L314.106 122.373C315.557 122.344 316.714 121.172 316.714 119.722L316.699 110.625C316.699 110.024 316.494 109.453 316.128 108.984L302.651 92.0947C304.453 92.5049 306.108 93.5156 307.295 95.0098L321.094 113.042ZM258.501 97.3535L261.372 96.9727C261.372 104.238 261.357 117.891 261.357 117.891V123.164C261.357 124.761 260.083 126.05 258.486 126.079V120.747V111.724C258.501 106.772 258.501 100.928 258.501 97.3535Z" fill="#B88D5B"/>
<path d="M251.704 79.7752C253.081 80.2732 253.799 81.782 253.315 83.1736C252.935 84.2576 251.909 84.9314 250.811 84.9314C250.518 84.9314 250.21 84.8875 249.917 84.7703C246.357 83.4959 243.604 80.6101 242.344 76.8308L242.329 76.8015C242.329 76.7869 242.314 76.7722 242.314 76.7576L239.883 68.9646C239.443 67.5584 240.22 66.0789 241.626 65.6394C243.032 65.2 244.512 65.9763 244.951 67.3826L247.383 75.1609C248.13 77.3875 249.697 79.072 251.704 79.7752Z" fill="#663333"/>
<path d="M235.796 21.0645L235.84 21.1963C235.474 21.665 235.137 22.1631 234.844 22.6904C234.727 22.8955 234.624 23.1299 234.521 23.3789H233.115C233.716 22.2949 234.668 21.4746 235.796 21.0645Z" fill="#B88D5B"/>
<path d="M227.197 34.8779C228.647 34.8779 229.819 36.0498 229.819 37.5C229.819 38.9502 228.647 40.1221 227.197 40.1221C225.747 40.1221 224.575 38.9502 224.575 37.5C224.575 36.0498 225.747 34.8779 227.197 34.8779Z" fill="#663333"/>
<line y1="133" x2="340" y2="133" stroke="#333333" stroke-width="8"/>
<defs>
<clipPath id="clip0_49_1351">
<rect width="66" height="66" fill="white" transform="translate(80 66)"/>
</clipPath>
</defs>
</svg>
