<svg width="387" height="181" viewBox="0 0 387 181" fill="none" xmlns="http://www.w3.org/2000/svg">
<g clip-path="url(#clip0_4_1080)">
<path d="M287.13 172.999C287.13 172.999 346.968 169.188 358.826 86.7266C358.826 86.7266 287.13 93.7115 287.13 172.999Z" fill="#8CC153"/>
<path d="M294.339 43.2498C294.339 35.3039 300.804 28.8364 308.754 28.8364C316.705 28.8364 323.173 35.3039 323.173 43.2498H330.379C330.379 31.3075 320.697 21.625 308.754 21.625C296.812 21.625 287.13 31.3075 287.13 43.2498C287.13 49.6592 289.914 55.4088 294.339 59.3681V43.2498Z" fill="#8CC153"/>
<path d="M272.714 64.875C260.769 64.875 251.089 74.5575 251.089 86.4998H258.298C258.298 78.5539 264.763 72.0864 272.714 72.0864C280.663 72.0864 287.13 78.5539 287.13 86.4998V102.618C291.554 98.6585 294.339 92.9089 294.339 86.4998C294.339 74.5575 284.656 64.875 272.714 64.875Z" fill="#8CC153"/>
<path d="M272.714 0C260.769 0 251.089 9.6825 251.089 21.6248H258.298C258.298 13.6789 264.763 7.21143 272.714 7.21143C280.663 7.21143 287.13 13.6789 287.13 21.6248V37.7431V173H294.339V21.6252C294.339 9.68284 284.656 0 272.714 0Z" fill="#A0D468"/>
<path d="M272.463 34.1694C272.284 30.4474 272.102 26.6037 269.737 23.3779C267.06 19.7245 262.493 18.0244 255.363 18.0244H255.236H255.099C247.972 18.0244 243.405 19.7245 240.728 23.3779C238.363 26.6037 238.178 30.4474 238.001 34.1694C237.774 38.9263 237.487 41.9463 234.58 44.0158L230.175 47.1571L234.77 50.0135C235.298 50.3407 240.058 53.2234 244.337 53.2234C244.667 53.2234 244.992 53.2075 245.306 53.1758C247.138 55.3139 250.303 58.4393 253.996 59.6274L255.104 59.9863L255.231 59.9441L255.358 59.9863L256.469 59.6274C260.16 58.4393 263.328 55.3139 265.159 53.1758C265.474 53.2075 265.796 53.2234 266.128 53.2234C270.41 53.2234 275.167 50.3407 275.695 50.0135L280.291 47.1571L275.882 44.0158C272.975 41.9463 272.69 38.9263 272.463 34.1694Z" fill="#AC92EB"/>
<path d="M346.889 65.6408C343.98 63.5712 343.695 60.5513 343.468 55.7944C343.288 52.0724 343.103 48.2287 340.738 45.0029C338.067 41.3495 333.495 39.6494 326.367 39.6494H326.24H326.103C318.976 39.6494 314.409 41.3495 311.732 45.0029C309.367 48.2287 309.188 52.0724 309.008 55.7944C308.775 60.5513 308.491 63.5712 305.587 65.6408L301.178 68.7821L305.776 71.6385C306.304 71.9657 311.061 74.8484 315.343 74.8484C315.67 74.8484 315.998 74.8325 316.309 74.8008C318.141 76.9389 321.309 80.0643 324.999 81.2524L326.113 81.6113L326.234 81.5691L326.361 81.6113L327.475 81.2524C331.166 80.0643 334.328 76.9389 336.166 74.8008C336.477 74.8325 336.799 74.8484 337.131 74.8484C341.413 74.8484 346.17 71.9657 346.698 71.6385L351.296 68.7821L346.889 65.6408Z" fill="#967ADC"/>
<path d="M272.463 99.0444C272.284 95.3224 272.102 91.479 269.737 88.2529C267.06 84.5995 262.493 82.8994 255.363 82.8994H255.236H255.099C247.972 82.8994 243.405 84.5995 240.728 88.2529C238.363 91.479 238.178 95.3224 238.001 99.0444C237.774 103.801 237.487 106.822 234.58 108.891L230.175 112.032L234.77 114.888C235.298 115.216 240.058 118.098 244.337 118.098C244.667 118.098 244.992 118.083 245.306 118.051C247.138 120.189 250.303 123.314 253.996 124.502L255.104 124.861L255.231 124.819L255.358 124.861L256.469 124.502C260.16 123.314 263.328 120.189 265.159 118.051C265.474 118.083 265.796 118.098 266.128 118.098C270.41 118.098 275.167 115.216 275.695 114.888L280.291 112.032L275.882 108.891C272.975 106.822 272.69 103.802 272.463 99.0444Z" fill="#967ADC"/>
</g>
<path d="M186.617 145.579L185.216 142.394C185.088 142.45 182.056 143.795 178.712 145.854C173.784 148.891 170.798 151.827 169.59 154.829L176.047 157.422C177.173 154.625 183.855 150.599 188.018 148.764L186.617 145.579Z" fill="#8CC153"/>
<path d="M176.083 128.852C174.88 125.851 171.894 122.915 166.966 119.877C163.623 117.818 160.59 116.473 160.463 116.417L157.66 122.787C161.818 124.617 168.5 128.638 169.631 131.446L176.083 128.852Z" fill="#8CC153"/>
<path d="M176.338 78.0537H169.376V177H176.338V78.0537Z" fill="#A0D468"/>
<path d="M172.857 10C149.807 10 131.057 25.6102 131.057 44.793C131.057 63.9755 149.807 79.5857 172.857 79.5857C195.908 79.5857 214.657 63.9755 214.657 44.793C214.657 25.6102 195.908 10 172.857 10Z" fill="#AC92EB"/>
<path d="M214.657 44.7932C214.642 44.7932 214.622 44.7932 214.607 44.7932C210.769 44.7932 207.65 41.6741 207.65 37.8366C207.65 37.6787 207.655 37.5208 207.666 37.3677C209.597 36.8581 211.361 35.9407 212.869 34.7175C212.038 32.4346 210.932 30.2483 209.582 28.1892C208.308 29.8251 206.325 30.8747 204.093 30.8747C200.49 30.8747 197.519 28.1227 197.172 24.6062C197.182 24.3817 197.188 24.1474 197.188 23.9184C197.188 23.7654 197.182 23.6176 197.177 23.4646C199.272 22.9194 201.178 21.8949 202.768 20.5138C200.924 18.9389 198.9 17.5122 196.724 16.2482C195.796 16.702 194.757 16.9617 193.656 16.9617C190.537 16.9617 187.892 14.8926 187.01 12.0593C184.681 11.3562 182.256 10.826 179.754 10.4795C179.759 10.5506 179.754 10.6221 179.759 10.6932C179.412 14.2048 176.441 16.9617 172.838 16.9617C169.163 16.9617 166.146 14.0978 165.897 10.4896C163.359 10.841 160.902 11.3865 158.543 12.105C157.651 14.918 155.016 16.9617 151.907 16.9617C150.842 16.9617 149.828 16.7174 148.926 16.289C146.744 17.5582 144.721 18.995 142.871 20.58C144.451 21.9308 146.342 22.9347 148.411 23.4695C148.421 23.6173 148.431 23.7703 148.431 23.9181C148.431 27.7556 145.307 30.8744 141.469 30.8744C139.288 30.8744 137.341 29.8652 136.067 28.2904C134.727 30.3498 133.636 32.5305 132.816 34.8088C134.334 36.0219 136.108 36.9188 138.05 37.4082C138.06 37.5511 138.065 37.6934 138.065 37.8363C138.065 41.6741 134.946 44.7929 131.108 44.7929C131.093 44.7929 131.073 44.7929 131.058 44.7929C131.058 59.9441 142.754 72.8636 159.026 77.6234C160.285 76.8743 161.411 75.9314 162.375 74.8358C164.923 77.7406 168.654 79.5804 172.822 79.5856C172.822 79.5856 172.832 79.5856 172.843 79.5856C176.981 79.5804 180.701 77.7712 183.249 74.8972C184.208 75.9827 185.334 76.9154 186.587 77.6541C202.911 72.9148 214.657 59.9751 214.657 44.7932ZM193.686 33.1478C195.505 35.2017 197.926 36.71 200.673 37.4085C200.683 37.5462 200.688 37.6885 200.688 37.8366C200.688 41.6745 197.569 44.7932 193.732 44.7932C190.129 44.7932 187.157 42.0409 186.806 38.5247C186.821 38.2953 186.826 38.066 186.826 37.8366C186.826 37.6836 186.821 37.5309 186.816 37.3782C189.512 36.6692 191.887 35.1713 193.686 33.1478ZM176.333 23.4698C179.044 22.7667 181.439 21.2681 183.248 19.2348C185.058 21.2734 187.463 22.7768 190.19 23.4802C190.185 23.6231 190.18 23.7709 190.18 23.9187C190.18 24.1478 190.185 24.3823 190.195 24.6065C189.849 28.123 186.877 30.875 183.274 30.875C179.436 30.875 176.312 27.7559 176.312 23.9187C176.312 23.7706 176.323 23.6176 176.333 23.4698ZM172.812 33.0868C174.631 35.1661 177.067 36.695 179.824 37.3984C179.819 37.5462 179.814 37.6888 179.814 37.8366C179.814 38.066 179.824 38.2953 179.834 38.5247C179.488 42.0409 176.511 44.7932 172.908 44.7932C169.07 44.7932 165.951 41.6741 165.951 37.8366C165.951 37.6735 165.957 37.5159 165.972 37.3576C168.658 36.6284 171.028 35.1253 172.812 33.0868ZM155.402 23.4698C158.144 22.7615 160.56 21.2375 162.374 19.1735C164.173 21.2274 166.568 22.7412 169.285 23.4597C169.295 23.6127 169.305 23.7657 169.305 23.9184C169.305 27.7559 166.181 30.8747 162.344 30.8747C158.511 30.8747 155.387 27.7556 155.387 23.9184C155.387 23.7706 155.397 23.6176 155.402 23.4698ZM145.041 37.3677C147.738 36.6539 150.117 35.1508 151.906 33.1175C153.736 35.1867 156.167 36.7051 158.924 37.4085C158.934 37.5462 158.939 37.6885 158.939 37.8366C158.939 41.6745 155.82 44.7932 151.983 44.7932C148.145 44.7932 145.026 41.6741 145.026 37.8366C145.026 37.6783 145.031 37.5208 145.041 37.3677ZM134.512 51.7496C134.512 51.6067 134.517 51.4641 134.527 51.3215C137.29 50.6233 139.721 49.1048 141.545 47.0357C143.339 49.069 145.714 50.5672 148.41 51.2856C148.42 51.4386 148.43 51.5965 148.43 51.7496C148.43 55.5871 145.306 58.7111 141.469 58.7111C137.636 58.7111 134.512 55.5871 134.512 51.7496ZM151.906 72.6244C148.074 72.6244 144.95 69.5053 144.95 65.6681C144.95 65.5203 144.96 65.3673 144.965 65.2195C147.697 64.5111 150.097 63.0025 151.906 60.9539C153.716 63.0025 156.121 64.5111 158.847 65.2195C158.857 65.3673 158.868 65.5203 158.868 65.6681C158.868 69.5053 155.744 72.6244 151.906 72.6244ZM162.344 58.7111C158.511 58.7111 155.387 55.5871 155.387 51.7496C155.387 51.6067 155.392 51.4641 155.402 51.3215C158.175 50.6184 160.616 49.0895 162.445 47.0053C164.229 49.0386 166.594 50.5469 169.285 51.2706C169.295 51.4285 169.305 51.5916 169.305 51.7499C169.305 55.5871 166.181 58.7111 162.344 58.7111ZM172.837 72.6244C168.999 72.6244 165.875 69.5053 165.875 65.6681C165.875 65.5151 165.885 65.362 165.895 65.2093C168.612 64.4909 171.007 62.977 172.811 60.9232C174.615 62.9823 177.02 64.501 179.752 65.2142C179.747 65.3673 179.742 65.5151 179.742 65.6681C179.742 65.8971 179.747 66.1317 179.757 66.3558C179.411 69.8723 176.44 72.6244 172.837 72.6244ZM183.274 58.7111C179.436 58.7111 176.312 55.5871 176.312 51.7496C176.312 51.6067 176.323 51.4641 176.328 51.3215C179.075 50.6285 181.495 49.1202 183.32 47.0663C185.114 49.0895 187.494 50.5825 190.19 51.2908C190.185 51.4438 190.18 51.5969 190.18 51.7496C190.18 51.9841 190.185 52.2135 190.195 52.4425C189.849 55.9542 186.877 58.7111 183.274 58.7111ZM193.655 72.6244C190.052 72.6244 187.081 69.8723 186.735 66.3558C186.745 66.1314 186.75 65.8971 186.75 65.6681C186.75 65.5203 186.745 65.3725 186.74 65.2296C189.466 64.5265 191.872 63.0227 193.686 60.9842C195.49 63.0175 197.885 64.516 200.597 65.2191C200.607 65.3669 200.617 65.5199 200.617 65.6677C200.617 69.5053 197.493 72.6244 193.655 72.6244ZM197.172 52.4425C197.182 52.2135 197.187 51.9841 197.187 51.7496C197.187 51.6067 197.182 51.4589 197.177 51.3163C199.924 50.6132 202.35 49.0996 204.169 47.0357C205.963 49.069 208.338 50.5672 211.034 51.2856C211.044 51.4386 211.055 51.5965 211.055 51.7496C211.055 55.5871 207.93 58.7111 204.093 58.7111C200.49 58.7111 197.518 55.9542 197.172 52.4425Z" fill="#967ADC"/>
<path d="M228.413 112.355C228.413 112.355 166.808 103.936 183.626 148.254C223.219 174.317 228.413 112.355 228.413 112.355Z" fill="#A0D468"/>
<path d="M126.587 92.7596C126.587 92.7596 177.439 85.8078 163.556 122.395C130.874 143.907 126.587 92.7596 126.587 92.7596Z" fill="#A0D468"/>
<path d="M50.0864 144.544C50.0864 144.544 46.968 151.262 40.8384 153.622C34.7088 155.982 27.8902 153.09 27.8902 153.09C27.8902 153.09 31.0085 146.372 37.1381 144.012C43.2675 141.652 50.0864 144.544 50.0864 144.544Z" fill="#3EAC92"/>
<path d="M47.3801 143.698C46.1658 145.749 43.2926 149.819 38.7984 151.55C35.0777 152.983 31.1058 152.479 28.5565 151.863C28.1147 152.609 27.8904 153.09 27.8904 153.09C27.8904 153.09 34.7095 155.982 40.8387 153.622C46.9678 151.262 50.0864 144.544 50.0864 144.544C50.0864 144.544 49.0306 144.097 47.3801 143.698Z" fill="#328777"/>
<path d="M90.7957 133.633C90.7957 133.633 85.0681 138.329 78.5222 137.792C71.9761 137.255 67.0908 131.688 67.0908 131.688C67.0908 131.688 72.8184 126.991 79.3643 127.528C85.9104 128.065 90.7957 133.633 90.7957 133.633Z" fill="#3EAC92"/>
<path d="M88.9753 131.903C86.774 133.252 82.8248 135.161 78.5217 134.808C74.3805 134.468 70.9062 132.116 68.9107 130.433C67.7632 131.136 67.0905 131.687 67.0905 131.687C67.0905 131.687 71.9758 137.255 78.5219 137.792C85.068 138.329 90.7957 133.633 90.7957 133.633C90.7957 133.633 90.1343 132.88 88.9753 131.903Z" fill="#328777"/>
<path d="M54.1772 177C53.1682 177 52.35 176.183 52.35 175.173C52.35 139.939 35.4928 113.367 35.3224 113.103C34.7759 112.255 35.0205 111.124 35.8687 110.578C36.7167 110.031 37.8476 110.276 38.3941 111.124C38.5751 111.405 42.8756 118.131 47.2226 129.419C51.2287 139.821 56.0039 156.203 56.0039 175.173C56.0044 176.183 55.1862 177 54.1772 177Z" fill="#328777"/>
<path d="M59.3456 177C58.3366 177 57.5184 176.182 57.5184 175.173C57.5184 154.964 64.0516 133.096 69.532 118.309C75.4554 102.328 81.4706 90.9222 81.5306 90.8088C82.0029 89.917 83.1087 89.5776 84.0002 90.0499C84.8918 90.5222 85.2316 91.6282 84.7594 92.5197C84.7001 92.6313 78.7795 103.863 72.9391 119.63C67.571 134.122 61.1721 155.522 61.1721 175.173C61.1728 176.182 60.3548 177 59.3456 177Z" fill="#328777"/>
<path d="M61.3791 105.33C61.3791 103.237 55.2607 101.54 47.7138 101.54C45.2039 101.54 42.8538 101.96 40.8324 102.52C42.6572 101.486 44.6161 100.121 46.3908 98.3465C51.7273 93.01 54.8538 87.4839 53.374 86.0041C51.8941 84.5243 46.3683 87.6506 41.0316 92.9873C39.2566 94.7622 37.8919 96.7209 36.8583 98.5457C37.4177 96.5243 37.8377 94.1744 37.8377 91.6643C37.8377 84.1169 36.1413 77.999 34.0481 77.999C31.9549 77.999 30.2585 84.1169 30.2585 91.6643C30.2585 94.1742 30.6785 96.5243 31.238 98.5455C30.2044 96.7207 28.8396 94.7618 27.0647 92.9871C21.7282 87.6504 16.2021 84.5238 14.7223 86.0039C13.2424 87.4837 16.3688 93.0096 21.7055 98.3463C23.4804 100.121 25.4391 101.486 27.2639 102.52C25.2424 101.96 22.8926 101.54 20.3824 101.54C12.8353 101.54 6.71719 103.237 6.71719 105.33C6.71719 107.422 12.8356 109.119 20.3824 109.119C22.8923 109.119 25.2424 108.699 27.2637 108.14C25.4388 109.173 23.4802 110.538 21.7052 112.313C16.3688 117.65 13.2422 123.176 14.722 124.656C16.2019 126.135 21.7277 123.009 27.0645 117.673C28.8394 115.898 30.2039 113.939 31.2377 112.114C30.6783 114.136 30.2583 116.486 30.2583 118.996C30.2583 126.543 31.9549 132.661 34.0479 132.661C36.1409 132.661 37.8375 126.543 37.8375 118.996C37.8375 116.486 37.4175 114.136 36.8581 112.114C37.8916 113.939 39.2564 115.898 41.0313 117.673C46.3678 123.009 51.8939 126.136 53.3738 124.656C54.8536 123.176 51.7273 117.65 46.3906 112.313C44.6156 110.538 42.657 109.174 40.8321 108.14C42.8536 108.699 45.2034 109.119 47.7134 109.119C55.2609 109.119 61.3791 107.423 61.3791 105.33Z" fill="#EAC9F1"/>
<path d="M34.0495 111.661C37.5463 111.661 40.3809 108.826 40.3809 105.329C40.3809 101.833 37.5463 98.998 34.0495 98.998C30.5528 98.998 27.7181 101.833 27.7181 105.329C27.7181 108.826 30.5528 111.661 34.0495 111.661Z" fill="#C141C8"/>
<path d="M113.283 84.3305C113.283 82.2377 107.164 80.5409 99.6173 80.5409C97.1074 80.5409 94.7573 80.9609 92.7359 81.5203C94.5607 80.4867 96.5196 79.122 98.2943 77.347C103.631 72.0105 106.757 66.4845 105.277 65.0046C103.798 63.5248 98.2718 66.6511 92.9351 71.9878C91.1602 73.7627 89.7954 75.7214 88.7618 77.5463C89.3213 75.5248 89.7413 73.1749 89.7413 70.6648C89.7415 63.1179 88.0448 57 85.9519 57C83.8589 57 82.1623 63.1179 82.1623 70.6652C82.1623 73.1752 82.5823 75.5252 83.1417 77.5465C82.1081 75.7216 80.7434 73.7627 78.9684 71.988C73.632 66.6513 68.1059 63.5248 66.626 65.0048C65.1462 66.4849 68.2725 72.0105 73.6092 77.3473C75.3841 79.1222 77.3428 80.4867 79.1677 81.5205C77.1462 80.9611 74.7963 80.5411 72.2862 80.5411C64.7391 80.5411 58.6209 82.2375 58.6209 84.3307C58.6209 86.4234 64.7393 88.1203 72.2862 88.1203C74.7961 88.1203 77.1462 87.7003 79.1674 87.1409C77.3426 88.1745 75.3839 89.5392 73.609 91.3141C68.2725 96.6509 65.1459 102.177 66.6258 103.657C68.1056 105.136 73.6315 102.01 78.9682 96.6736C80.7431 94.8987 82.1077 92.94 83.1415 91.1152C82.582 93.1366 82.162 95.4865 82.162 97.9966C82.162 105.544 83.8587 111.662 85.9516 111.662C88.0446 111.662 89.7413 105.544 89.7413 97.9966C89.7413 95.4865 89.3213 93.1366 88.7618 91.1152C89.7954 92.94 91.1602 94.8989 92.9351 96.6736C98.2716 102.01 103.798 105.137 105.277 103.657C106.757 102.177 103.631 96.6509 98.2943 91.3141C96.5194 89.5395 94.5607 88.1747 92.7359 87.1409C94.7573 87.7005 97.1072 88.1203 99.6171 88.1203C107.164 88.1198 113.283 86.4234 113.283 84.3305Z" fill="#EAC9F1"/>
<path d="M85.9528 90.6618C89.4495 90.6618 92.2842 87.8272 92.2842 84.3304C92.2842 80.8337 89.4495 77.999 85.9528 77.999C82.4561 77.999 79.6214 80.8337 79.6214 84.3304C79.6214 87.8272 82.4561 90.6618 85.9528 90.6618Z" fill="#C141C8"/>
<path opacity="0.2" d="M86.2842 91.5564C89.781 91.5564 92.6156 88.7217 92.6156 85.225C92.6156 81.7282 89.781 78.8936 86.2842 78.8936C82.7875 78.8936 79.9528 81.7282 79.9528 85.225C79.9528 88.7217 82.7875 91.5564 86.2842 91.5564Z" fill="#C141C8"/>
<path opacity="0.2" d="M34.5441 112.531C38.0408 112.531 40.8755 109.696 40.8755 106.2C40.8755 102.703 38.0408 99.8682 34.5441 99.8682C31.0473 99.8682 28.2127 102.703 28.2127 106.2C28.2127 109.696 31.0473 112.531 34.5441 112.531Z" fill="#C141C8"/>
<g clip-path="url(#clip1_4_1080)">
<path d="M352.188 106.914C352.188 106.914 325.122 140.393 330.959 173.17C330.959 173.17 358.959 155.101 352.188 106.914Z" fill="#8CC153"/>
<path d="M317.178 104.051C316.618 101.985 314.238 95.8003 310.803 94.5221C309.429 94.0093 307.898 94.3427 306.122 95.5403L303.328 91.3875C307.276 88.7289 310.528 89.0768 312.56 89.8348C319.021 92.2482 321.727 101.678 322.012 102.747L317.178 104.047L319.595 103.396L317.178 104.051Z" fill="#8CC153"/>
<path d="M331.102 177H336.313C334.376 170.379 328.926 150.885 325.382 129.821C322.84 114.715 321.763 101.802 322.188 91.4347C322.697 78.9286 325.352 70.3005 330.087 65.7853C332.299 63.6759 334.932 62.4784 338.137 62.1194C341.718 61.7167 346.01 62.4087 350.885 64.1739L352.588 59.4646C341.462 55.4398 332.732 56.348 326.634 62.1635C316.505 71.8241 314.425 94.8663 320.445 130.653C323.807 150.615 328.861 169.2 331.102 177Z" fill="#A0D468"/>
<path d="M306.485 91.1852C306.485 91.1852 304.266 89.7607 299.985 89.7607C295.356 89.7607 288.317 91.427 279.063 98.3558C275.144 101.293 271.23 101.802 268.992 101.802C267.802 101.802 267.084 101.659 267.084 101.659C269.018 108.361 273.57 109.005 275.577 109.005C276.056 109.005 276.39 108.969 276.507 108.969C276.536 108.969 276.551 108.969 276.554 108.976C276.631 109.064 275.837 116.575 278.466 119.205C280.158 120.896 283.875 121.171 286.332 121.171C287.504 121.171 288.39 121.109 288.632 121.109C288.669 121.109 288.691 121.109 288.695 121.116C288.808 121.207 287.347 128.085 296.011 130.586C296.011 130.586 294.818 124.61 299.315 118.607C312.652 100.795 306.485 91.1852 306.485 91.1852Z" fill="#4A89DC"/>
<path d="M385.396 71.8387C383.301 71.8387 379.335 71.359 375.421 68.2828C366.357 61.1563 359.443 59.5049 354.979 59.5049C351.123 59.5049 349.101 60.739 349.101 60.739C349.101 60.739 342.927 69.8832 355.407 87.3809C359.615 93.2805 358.326 99.0264 358.326 99.0264C366.752 96.8071 365.492 90.1312 365.606 90.0433C365.61 90.0395 365.624 90.0395 365.647 90.0395C365.877 90.0395 367.075 90.1605 368.594 90.1605C370.927 90.1605 374.014 89.875 375.527 88.4319C378.127 85.9489 377.53 78.6796 377.603 78.5917C377.607 78.588 377.618 78.588 377.64 78.588C377.761 78.588 378.167 78.6466 378.757 78.6466C380.785 78.6466 384.968 77.9472 386.916 71.7398C386.916 71.7398 386.352 71.8387 385.396 71.8387Z" fill="#5D9CEC"/>
</g>
<path d="M237.559 175.968C255.289 179.909 285.044 101.536 285.044 101.536C262.203 108.802 227.233 173.672 237.559 175.968Z" fill="#8CC153"/>
<path d="M238.343 180.824C220.611 184.765 200.199 121.15 200.199 121.15C223.043 128.419 248.668 178.528 238.343 180.824Z" fill="#8CC153"/>
<path d="M236.64 61.3776C206.648 57.939 192.08 79.0546 195.427 81.3728C231.997 106.678 236.64 141.354 236.64 141.354C261.629 94.6515 266.627 64.8127 236.64 61.3776Z" fill="#FFCE54"/>
<path d="M240.699 128.475H235.7V180.967H240.699V128.475Z" fill="#A0D468"/>
<path d="M236.64 61.3776C206.648 57.939 192.08 79.0546 195.427 81.3728C197.295 82.6655 199.078 83.9803 200.781 85.3169C212.69 88.2465 233.875 91.5057 247.299 89.8689C251.536 89.3489 257.358 83.9214 257.285 82.3396C256.754 70.6685 250.331 62.9451 236.64 61.3776Z" fill="#F6BB42"/>
<path d="M228.027 117.474C234.278 129.178 236.161 138.505 236.552 140.805L236.908 140.849C241.416 132.4 245.259 124.509 248.357 117.229C243.878 118.151 235.501 119.352 228.027 117.474Z" fill="#A0D468"/>
<path d="M257.153 80.1244C256.59 78.0223 255.048 76.1913 252.656 74.8693C246.907 71.6904 236.629 71.7894 231.477 76.682C230.477 77.6341 230.437 79.2161 231.389 80.2158C232.337 81.2157 233.919 81.2595 234.923 80.3075C236.442 78.8609 239.09 77.9234 242.185 77.7403C245.197 77.5607 248.211 78.1213 250.239 79.2454C252.722 80.6186 252.429 82.0651 252.334 82.5413C252.231 83.0467 251.924 84.5884 248.756 85.8812C243.177 88.1663 231.887 88.2946 217.777 86.2291C207.64 84.746 198.803 82.5084 195.185 81.1315C195.251 81.2267 195.332 81.3074 195.427 81.3733C199.016 83.8563 202.297 86.4307 205.3 89.0563C208.958 89.8435 212.99 90.5797 217.055 91.1766C223.742 92.1542 230.085 92.6817 235.395 92.6963C235.479 92.6963 235.56 92.6963 235.644 92.6963C242.056 92.6963 247.104 91.9601 250.653 90.5101C254.396 88.9756 256.611 86.6281 257.234 83.5264C257.259 83.4092 257.278 83.292 257.296 83.1747C257.292 82.1239 257.245 81.1057 257.153 80.1244Z" fill="#FFCE54"/>
<line x1="32" y1="178.5" x2="352" y2="178.5" stroke="#333333" stroke-width="5"/>
<path d="M134.5 176C134.5 176 158.774 168.5 171.489 125.997C171.489 125.997 146.997 131.779 134.5 176Z" fill="#8CC153"/>
<path d="M140.502 171C140.502 171 139.188 159.435 109.609 130.999C109.609 130.999 110.828 168.657 140.502 171Z" fill="#8CC153"/>
<path d="M139.499 108.768H134.501V176H139.499V108.768Z" fill="#A0D468"/>
<path d="M136.382 93.6354C153.09 102.56 162.502 58.9588 157.924 56.3184C153.347 53.6743 119.672 84.7109 136.382 93.6354Z" fill="#E6E9ED"/>
<path d="M137.88 93.4815C153.962 83.473 120.913 53.5205 116.336 56.1645C111.758 58.8049 121.796 103.494 137.88 93.4815Z" fill="#CCD1D9"/>
<path d="M138.499 92.108C137.872 73.175 95.4067 86.8235 95.4067 92.108C95.4067 97.3924 139.125 111.041 138.499 92.108Z" fill="#E6E9ED"/>
<path d="M137.616 90.8849C120.906 81.9602 111.494 125.562 116.072 128.205C120.65 130.846 154.328 99.8096 137.616 90.8849Z" fill="#CCD1D9"/>
<path d="M136.118 91.0385C120.034 101.047 153.083 130.999 157.661 128.355C162.238 125.715 152.197 81.0264 136.118 91.0385Z" fill="#E6E9ED"/>
<path d="M135.5 92.4118C136.126 111.345 178.593 97.6962 178.593 92.4118C178.593 87.1274 134.873 73.4785 135.5 92.4118Z" fill="#CCD1D9"/>
<path d="M137.001 99.7625C132.863 99.7625 129.497 96.397 129.497 92.2588C129.497 88.1243 132.863 84.7588 137.001 84.7588C141.137 84.7588 144.499 88.1243 144.499 92.2588C144.499 96.397 141.137 99.7625 137.001 99.7625Z" fill="#FFCE54"/>
<path d="M137.001 82.2607C131.475 82.2607 127 86.7359 127 92.2585C127 97.7847 131.475 102.26 137.001 102.26C142.521 102.26 146.996 97.7847 146.996 92.2585C146.997 86.7361 142.521 82.2607 137.001 82.2607ZM137.001 97.2609C134.243 97.2609 131.999 95.0158 131.999 92.2585C131.999 89.5045 134.243 87.2596 137.001 87.2596C139.755 87.2596 142.002 89.5045 142.002 92.2585C142.002 95.0161 139.755 97.2609 137.001 97.2609Z" fill="#F6BB42"/>
<defs>
<clipPath id="clip0_4_1080">
<rect width="173" height="173" fill="white" transform="translate(208)"/>
</clipPath>
<clipPath id="clip1_4_1080">
<rect width="120" height="120" fill="white" transform="translate(267 57)"/>
</clipPath>
</defs>
</svg>
