<svg width="382" height="280" viewBox="0 0 382 280" fill="none" xmlns="http://www.w3.org/2000/svg">
<g clip-path="url(#clip0_4_755)">
<path d="M0 264.444H383V280H0V264.444Z" fill="#939598"/>
<path d="M53.1945 249.386L383 248.881V46.6665H180.861C117.028 46.6665 106.389 69.9998 106.389 69.9998C106.389 69.9998 53.1945 171.103 53.1945 186.659V249.386Z" fill="#D1D3D4"/>
<path d="M148.944 233.333C148.944 235.396 147.824 237.374 145.828 238.833C143.833 240.292 141.127 241.111 138.306 241.111H53.1944C50.3728 241.111 47.6668 240.292 45.6716 238.833C43.6764 237.374 42.5556 235.396 42.5556 233.333V217.778C42.5556 215.715 43.6764 213.737 45.6716 212.278C47.6668 210.819 50.3728 210 53.1944 210H138.306C141.127 210 143.833 210.819 145.828 212.278C147.824 213.737 148.944 215.715 148.944 217.778V233.333Z" fill="#D1D3D4"/>
<path d="M383 272.222H48.1622C42.513 272.222 36.0765 267.003 33.7678 260.556L25.4376 237.222C23.1396 230.775 31.9167 225.556 42.5556 225.556H383V272.222Z" fill="#FF00FF"/>
<path d="M383 77.7778H234.13C212.991 77.7778 192.564 91.7078 188.532 108.889L177.542 155.556C173.499 172.737 189.276 186.667 212.778 186.667H383V77.7778Z" fill="#414042"/>
<path d="M383 93.3335H245.705C223.417 93.3335 216.012 103.281 213.129 115.555L205.288 148.89C202.394 161.163 206.629 171.111 223.417 171.111H383V93.3335Z" fill="#3B88C3"/>
<path d="M180.861 46.6665C117.028 46.6665 106.389 69.9998 106.389 69.9998C106.389 69.9998 53.2796 170.955 53.1945 186.628C79.2385 186.348 96.9735 183.952 106.389 163.333C117.028 140 127.667 108.889 138.306 93.3332C148.944 77.7776 159.583 69.9998 191.5 69.9998C218.023 69.9998 229.715 59.2276 232.949 46.6665H180.861Z" fill="#414042"/>
<path d="M95.75 140C105.793 117.973 134.72 82.1176 102.133 78.1743C93.186 95.4565 72.27 136.414 60.8864 163.333H63.8333C63.8333 163.333 85.1111 163.333 95.75 140Z" fill="#55ACEE"/>
<path d="M95.75 202.222C95.75 204.285 94.6291 206.263 92.6339 207.722C90.6388 209.18 87.9327 210 85.1111 210H63.8333C61.0117 210 58.3057 209.18 56.3105 207.722C54.3153 206.263 53.1945 204.285 53.1945 202.222C53.1945 200.159 54.3153 198.181 56.3105 196.722C58.3057 195.264 61.0117 194.444 63.8333 194.444H85.1111C87.9327 194.444 90.6388 195.264 92.6339 196.722C94.6291 198.181 95.75 200.159 95.75 202.222Z" fill="#DD2E44"/>
</g>
<defs>
<clipPath id="clip0_4_755">
<rect width="383" height="280" fill="white"/>
</clipPath>
</defs>
</svg>
