<svg width="246" height="246" viewBox="0 0 246 246" fill="none" xmlns="http://www.w3.org/2000/svg">
<g clip-path="url(#clip0_4_843)">
<path d="M163.756 17.1774C164.351 19.4003 166.638 20.7207 168.855 20.1267L172.882 19.0477C175.104 18.4521 176.425 16.1651 175.829 13.9422C175.234 11.7194 172.948 10.4051 170.726 11.0007L166.699 12.0797C164.482 12.6737 163.16 14.9546 163.756 17.1774Z" fill="#AAB2BC"/>
<path d="M31.2234 134.651C31.819 136.873 34.106 138.194 36.3228 137.6L52.4176 133.288C54.6461 132.69 55.9668 130.403 55.3711 128.18C54.7755 125.957 52.4885 124.637 50.2596 125.234L34.1648 129.546C31.948 130.14 30.6278 132.428 31.2234 134.651Z" fill="#F6BB42"/>
<path d="M26.9093 118.551L33.3797 142.698C33.9753 144.921 36.2622 146.242 38.4791 145.648C40.7076 145.051 42.0165 142.766 41.421 140.544L34.9506 116.396C34.355 114.173 32.0809 112.855 29.8524 113.453C27.6356 114.047 26.3137 116.328 26.9093 118.551Z" fill="#FFCE54"/>
<path d="M162.678 13.1565L167.31 30.4421C167.906 32.6649 170.191 33.9796 172.408 33.3856C174.636 32.7885 175.953 30.5083 175.357 28.2858L170.726 11.0002C170.13 8.77733 167.848 7.45516 165.62 8.0523C163.403 8.64629 162.083 10.9336 162.678 13.1565Z" fill="#CCD1D9"/>
<path d="M95.5084 117.426C97.8866 126.301 92.5939 135.46 83.7149 137.839C79.5409 138.958 71.5939 139.391 64.8418 138.859C54.3615 138.043 48.6349 135.255 47.3174 130.338C45.9998 125.421 49.5651 120.144 58.233 114.194C63.8154 110.361 70.9134 106.76 75.0875 105.641C83.9665 103.262 93.1294 108.547 95.5084 117.426Z" fill="#434A54"/>
<path d="M174.895 19.2033C175.8 18.196 177.133 17.7 178.477 17.8579C178.954 17.9135 190.135 19.3853 193.739 32.8387C194.138 34.3247 194.426 35.9212 194.601 37.5872C195.658 47.7114 184.793 57.0423 172.207 67.8456C162.658 76.0473 152.779 84.5269 148.475 93.1547C145.704 98.7059 140.998 114.184 134.308 156.427C130.272 181.937 127.44 205.279 127.402 205.514C127.202 207.22 125.962 208.63 124.293 209.052C122.624 209.474 120.871 208.825 119.874 207.417C96.6604 174.644 81.596 145.731 75.0978 121.479L75.0962 121.473C68.2955 96.0927 70.6541 75.2278 82.1248 59.4598C96.8011 39.2747 126.157 27.7825 169.394 25.2962L174.895 19.2033Z" fill="#656D78"/>
<path d="M88.5137 135.562L116.912 188.345C117.401 189.275 117.539 190.354 117.268 191.374L107.561 228.485C107.077 230.356 105.362 231.644 103.428 231.596C101.57 231.547 99.9804 230.283 99.5057 228.511C99.4852 228.435 99.4647 228.358 99.4559 228.278L80.7648 138.383C80.3478 136.356 81.4734 134.33 83.4195 133.622C85.3656 132.914 87.5328 133.739 88.5137 135.562Z" fill="#656D78"/>
<path d="M107.726 39.6531C132.723 42.1241 141.805 56.9409 145.019 68.9385C149.231 84.6563 145.251 101.45 144.084 105.75C144.079 106.061 144.031 106.377 143.95 106.689C135.503 139.071 127.49 204.853 127.402 205.515C127.202 207.221 125.962 208.63 124.293 209.052C122.624 209.474 120.871 208.826 119.874 207.418C96.6596 174.641 81.5952 145.729 75.0994 121.486C69.9781 102.373 70.0536 85.7214 75.3227 71.9936C80.4842 58.5734 90.6013 47.844 105.389 40.1027C106.104 39.7276 106.921 39.572 107.726 39.6531Z" fill="#AAB2BC"/>
<path d="M177.196 35.1487C174.973 35.7443 173.651 38.0261 174.247 40.2486C174.842 42.4711 177.129 43.7917 179.352 43.1961C181.575 42.6006 182.895 40.3132 182.3 38.0907C181.704 35.8678 179.418 34.5533 177.196 35.1487Z" fill="#434A54"/>
</g>
<defs>
<clipPath id="clip0_4_843">
<rect width="200" height="200" fill="white" transform="matrix(-0.258819 -0.965926 -0.965926 0.258819 245.474 193.711)"/>
</clipPath>
</defs>
</svg>
