<svg width="430" height="102" viewBox="0 0 430 102" fill="none" xmlns="http://www.w3.org/2000/svg">
<path d="M55.8434 98.467V50.6144L169.53 51.0833V98.467H55.8434Z" stroke="#333333" stroke-width="5" stroke-linecap="round" stroke-linejoin="round"/>
<path d="M88.3253 98.467V50.6144L202.012 51.0833V98.467H88.3253Z" stroke="#333333" stroke-width="5" stroke-linecap="round" stroke-linejoin="round"/>
<path d="M88.3253 69.1658V50.6144L202.012 50.7976V69.1658H88.3253Z" fill="#BD5F55" stroke="#333333" stroke-width="5" stroke-linecap="round" stroke-linejoin="round"/>
<path d="M55.8434 50.8525L35.5422 3L149.229 3.46884L169.53 50.8525H55.8434Z" fill="#BD5F55" stroke="#333333" stroke-width="5" stroke-linecap="round" stroke-linejoin="round"/>
<path d="M336 98.771H-0.999982" stroke="#333333" stroke-width="5" stroke-miterlimit="10"/>
<path d="M383.157 98.467V50.6144L269.47 51.0833V98.467H383.157Z" stroke="#333333" stroke-width="5" stroke-linecap="round" stroke-linejoin="round"/>
<path d="M350.675 98.467V50.6144L236.988 51.0833V98.467H350.675Z" stroke="#333333" stroke-width="5" stroke-linecap="round" stroke-linejoin="round"/>
<path d="M350.675 69.1658V50.6144L236.988 50.7976V69.1658H350.675Z" fill="#BD5F55" stroke="#333333" stroke-width="5" stroke-linecap="round" stroke-linejoin="round"/>
<path d="M383.157 50.8525L403.458 3L289.771 3.46884L269.47 50.8525H383.157Z" fill="#BD5F55" stroke="#333333" stroke-width="5" stroke-linecap="round" stroke-linejoin="round"/>
<path d="M103 98.771H440" stroke="#333333" stroke-width="5" stroke-miterlimit="10"/>
</svg>
