<svg width="78" height="61" viewBox="0 0 78 61" fill="none" xmlns="http://www.w3.org/2000/svg">
<path d="M39.217 32.2307C38.3114 32.2307 37.4525 31.7481 36.9901 30.9325C32.3094 22.6713 14.5677 17.7763 8.1264 16.5875C6.73632 16.3312 5.81696 14.9961 6.07264 13.6064C6.32896 12.2157 7.6608 11.2883 9.05312 11.5526C9.94112 11.7158 27.9318 15.1139 37.4282 23.5801C37.8195 21.6425 38.4077 19.3881 39.2918 17.0502C42.6374 8.2035 48.6144 2.41662 56.577 0.315824C57.9395 -0.0480157 59.3437 0.770225 59.705 2.13758C60.0662 3.5043 59.2499 4.90495 57.8832 5.26559C42.4838 9.32991 41.7821 29.5337 41.777 29.7369C41.7469 30.887 40.9539 31.8758 39.8381 32.1545C39.6314 32.2057 39.423 32.2307 39.217 32.2307Z" fill="#333333"/>
<path d="M75.1514 60.3907C74.4262 60.3907 73.7062 60.0845 73.2 59.4896C68.8 54.3171 63.8989 51.6083 58.6314 51.4397C48.9795 51.1261 41.0726 59.2048 40.9933 59.2864C40.5184 59.7776 39.8669 60.0582 39.1846 60.0665C39.1741 60.0665 39.1642 60.0665 39.1539 60.0665C38.4819 60.0665 37.8365 59.8022 37.3571 59.3296C32.1872 54.2352 26.7104 51.7152 21.1238 51.8653C12.0144 52.0941 5.42208 59.1657 5.35648 59.2371C4.40096 60.2803 2.7808 60.3485 1.73952 59.3926C0.697599 58.4365 0.628159 56.8169 1.584 55.7757C1.91136 55.4182 9.736 47.0294 20.9952 46.7469C27.3782 46.5686 33.4758 49.0342 39.1728 54.0281C42.4902 51.2361 49.9053 46.0589 58.7958 46.3219C65.567 46.5395 71.7251 49.8531 77.1002 56.1718C78.0163 57.2486 77.8858 58.8643 76.809 59.7805C76.3267 60.1901 75.7376 60.3907 75.1514 60.3907Z" fill="#333333"/>
</svg>
