<svg width="134" height="134" viewBox="0 0 134 134" fill="none" xmlns="http://www.w3.org/2000/svg">
<path d="M87.7098 7.60069C87.0189 7.60069 86.2769 7.60019 85.5092 7.08841C84.9002 7.08841 84.3168 7.60069 83.7282 7.60069H83.2216H82.3925C81.9012 8.11246 81.4099 8.11221 80.9391 8.62398H80.5245C80.1561 8.62398 79.8695 9.13551 79.5215 9.64728C79.2093 9.64728 78.8664 9.64778 78.5747 10.1596H78.5133C78.242 10.6713 77.9759 10.6711 77.7149 11.1829C77.3976 11.1829 77.0035 11.1827 76.7118 11.6945C76.0414 12.718 75.4119 13.2298 74.849 14.2534C74.762 14.2534 74.6135 14.765 74.5265 14.765C73.677 15.7886 72.981 17.3241 72.3771 18.8595C71.7323 20.3948 71.3075 21.9302 70.8571 23.4656C70.8162 23.4656 70.7189 23.9772 70.6831 23.9772C70.6473 23.9772 70.6882 24.4889 70.6524 24.4889C69.7568 28.0713 68.984 31.6537 68.2675 34.7243C68.2061 35.2361 68.1857 35.2365 68.1242 35.7483C67.6892 37.7953 67.2082 39.8422 66.5787 41.8893C66.0925 43.4246 65.6063 45.4717 65.1201 47.007C64.4037 44.9599 63.636 42.4008 62.9195 40.3537C59.7721 31.1418 59.4497 21.4185 54.0285 13.2301C51.1272 9.13588 46.1139 5.04132 40.7515 7.08841C39.3093 7.60019 38.1154 8.62423 37.3508 10.1596C34.1133 16.8126 36.601 24.4892 40.0939 30.6305C45.1917 38.3071 49.7843 45.9836 54.3744 54.172C49.9322 51.6131 45.469 49.0542 41.0934 46.4954H40.557C40.142 45.9836 39.6906 45.9832 39.2766 45.4715C36.7039 43.9361 34.1322 42.4013 31.473 40.866H31.0268C28.1695 39.3307 25.2622 38.3067 22.0411 37.2832H21.3875H18.5651H17.1398H14.7954C14.3721 37.795 13.9253 37.7948 13.519 37.7948H13.1045C12.6065 38.3066 12.1091 38.3071 11.652 38.3071C11.3747 38.8189 11.0947 38.8188 10.8219 38.8188C10.1842 39.3305 9.64302 39.8419 9.16687 40.3537C9.13524 40.3537 9.13908 40.3542 9.10807 40.866C8.67859 41.3778 8.26292 41.8892 8.04788 42.4009C7.79588 42.9127 7.63974 43.9364 7.58262 44.4482H7.52407C7.4837 45.4717 7.5796 45.9836 7.68124 46.4954C7.71082 46.4954 7.6121 47.007 7.65386 47.007C7.75463 47.007 7.89665 47.5187 8.0143 47.5187C8.18165 48.0305 8.40049 48.5425 8.64512 49.0542C8.71753 49.566 8.74916 49.5659 8.82536 49.5659C9.03632 50.0777 9.38202 50.0774 9.63207 50.5892C9.85643 51.101 10.0436 51.1013 10.2901 51.6131C10.8685 52.1249 11.4407 52.6368 12.1111 53.6603C12.78 54.1721 13.5993 54.6835 14.347 55.1953C14.5205 55.1953 14.7109 55.7069 14.8834 55.7069C20.3716 59.2894 26.733 60.3134 33.057 61.3369C33.5227 61.3369 33.9905 61.8486 34.4552 61.8486C37.0017 62.3604 39.5637 62.8718 42.0069 63.3835C44.6011 64.4071 47.2024 64.919 49.7981 65.4308C41.0304 68.5014 32.2392 71.0603 23.3133 73.1074C16.6311 75.1545 9.4898 79.2487 7.31066 85.9017C6.97996 87.437 7.07341 89.4843 7.77771 90.5078C10.1955 96.1373 16.9656 96.1374 21.8761 95.1139C31.2543 93.0668 38.2702 85.9016 46.6086 81.2956C48.7319 80.2721 50.9069 79.2488 53.0354 77.7135C52.1526 79.7606 51.2703 81.2959 50.3865 82.8312C49.3762 84.8783 48.3916 86.4135 47.3547 88.4606C45.3742 91.5312 43.3654 95.1138 41.5522 98.1844C41.4642 98.1844 41.3158 98.6961 41.2273 98.6961C41.1551 98.6961 41.1229 99.2077 41.0517 99.2077C39.5712 101.767 38.2851 104.838 37.6801 107.908C37.6535 108.42 37.6766 108.42 37.6525 108.42C37.4908 109.443 37.3009 110.979 37.282 111.49C37.2728 112.514 37.4662 113.026 37.5604 114.049C37.61 114.561 37.6602 115.073 37.7451 115.585C37.8316 115.585 37.8035 116.096 37.9294 116.608C37.9708 116.608 38.0635 117.12 38.1095 117.12C38.284 117.632 38.4964 118.144 38.7405 118.655C38.8649 118.655 38.9565 119.167 39.1008 119.167C39.5051 120.191 40.0793 120.702 40.6827 121.214C41.2339 121.214 41.9299 121.726 42.6484 122.238C43.2907 122.238 43.9888 122.238 44.6996 122.75C45.3614 122.75 45.9924 122.749 46.6295 122.238C46.7938 122.238 46.9745 122.749 47.1347 122.238C47.9366 122.238 48.6986 121.726 49.4167 121.726C49.5456 121.214 49.7043 121.214 49.8317 121.214C50.2027 121.214 50.4883 120.703 50.8373 120.703C51.4883 120.191 52.0579 119.679 52.6413 119.167C52.952 118.655 53.3578 118.656 53.6475 118.144C54.3706 117.632 54.9367 116.608 55.5063 115.585C55.603 115.585 55.7371 115.585 55.8307 115.073C59.6951 108.932 60.6624 101.767 62.0902 95.1139C62.6225 92.555 63.2059 90.5078 63.7791 87.9489C64.2653 86.4136 64.7463 84.3665 65.2376 82.8312C65.9541 84.8783 66.7218 87.4373 67.4383 89.9962C70.5806 98.6963 70.903 108.42 76.3278 116.608C79.2295 120.702 84.2449 125.309 89.6032 122.75C91.0464 122.238 92.2439 121.214 93.0065 120.191C96.246 113.538 93.7537 105.349 90.2634 99.2077C85.1661 92.0429 80.5704 83.8545 75.9849 76.1779C78.3544 77.2014 80.6983 78.7371 83.0678 79.7607C85.1917 80.7842 87.2388 81.8075 89.2654 83.3429C89.8693 83.3429 90.4783 83.855 91.0822 84.3668C93.5131 85.9021 95.9952 87.437 98.4978 88.4606C98.6411 88.4606 98.7435 88.9722 98.8817 88.9722H99.332C100.806 89.9958 102.27 90.5077 103.825 91.0195C105.279 91.5312 106.758 92.0433 108.314 92.555H108.969C110.033 92.555 111.236 93.0667 112.295 93.0667C113.421 93.0667 114.47 92.555 115.56 92.555H116.277C116.599 92.0433 116.942 92.0434 117.254 92.0434C117.572 92.0434 117.915 92.0429 118.232 91.5311H118.703C118.984 91.0193 119.26 91.0195 119.537 91.0195C119.675 91.0195 119.726 90.5078 119.859 90.5078C120.335 90.5078 120.801 89.9963 121.19 89.4845H121.251C121.661 88.9727 122.029 87.9491 122.311 87.4373C122.613 86.9255 122.7 85.9018 122.776 85.3901C122.833 84.8783 122.787 84.3664 122.674 83.3429C122.648 83.3429 122.746 83.343 122.705 82.8312C122.602 82.8312 122.459 82.3196 122.341 82.3196C122.137 81.8078 121.968 81.2958 121.712 80.784C121.645 80.784 121.604 80.2723 121.533 80.2723C121.43 80.2723 121.308 79.7607 121.205 79.7607C120.867 79.2489 120.473 78.7369 120.069 78.2251H119.921C119.68 78.2251 119.455 77.7135 119.204 77.7135C118.984 77.2017 118.861 77.2019 118.636 76.6902C118.508 76.6902 118.375 76.6897 118.247 76.1779C117.408 75.6661 116.43 75.1548 115.473 74.1313C114.138 73.6195 112.766 72.5958 111.333 72.0841C109.808 71.5723 108.206 71.0603 106.604 70.5485H106.159H105.652C102.899 69.525 100.115 69.0131 97.3003 68.5013C96.6145 68.5013 95.9338 67.9896 95.2481 67.9896C90.3555 66.9661 85.422 65.431 80.5602 64.4075C89.3268 61.8486 98.1191 58.778 107.044 56.7309C113.728 54.6838 120.867 50.5896 123.048 43.9365C123.375 42.4012 123.283 40.8657 122.582 39.3304C120.161 34.2127 113.39 33.7008 108.483 34.7243C99.1017 36.7714 92.0853 43.9366 83.7485 48.5426C81.6246 49.5661 79.4496 50.5894 77.3206 52.1248C78.206 50.5894 79.0862 48.5423 79.9716 47.007C81.1129 44.9599 82.2695 42.9131 83.4466 40.866C85.3043 37.7953 87.1211 34.7245 88.8048 31.6538C88.9584 31.142 89.158 31.1423 89.3064 30.6305C90.0689 29.0952 90.8519 28.0714 91.42 26.5361C91.9574 25.0007 92.3821 23.4653 92.679 21.93C92.7097 21.4182 92.6738 21.4183 92.7045 21.4183C92.853 20.3948 93.0628 19.3714 93.073 18.3478C93.0833 17.836 92.9144 17.324 92.8888 16.8122C92.8478 16.3005 92.7711 15.2768 92.6124 14.765C92.5305 14.2532 92.5459 13.7418 92.4282 13.2301C92.3821 13.2301 92.2951 13.2302 92.2491 12.7184C92.0853 12.2067 91.8345 11.6946 91.6145 11.1829C91.4916 11.1829 91.3995 10.6712 91.2562 10.6712C91.1692 10.6712 90.9696 10.1596 90.8673 10.1596C90.509 9.64778 90.1457 9.13563 89.6748 9.13563H89.5264C89.0044 8.62386 88.3751 8.11246 87.7098 7.60069Z" fill="#C0392B"/>
<path d="M67.0035 5.55368C66.2409 5.50122 65.4988 5.65188 64.7619 5.87354C64.1836 6.06007 63.6769 6.36254 63.1652 6.67318C63.0219 6.76111 62.8172 6.73536 62.6841 6.83311C62.4487 7.03383 62.2644 7.26055 62.0444 7.47283C61.6503 7.8083 61.2716 8.19331 60.9236 8.59234C60.8315 8.70754 60.6984 8.79459 60.6063 8.91219C60.3402 9.24387 60.202 9.67008 59.9666 10.0317C59.7567 10.3552 59.5111 10.6539 59.3269 10.9913C59.3013 11.0332 59.3473 11.109 59.3269 11.1515C59.158 11.4682 58.9942 11.783 58.8458 12.1105C58.6615 12.5107 58.3647 12.8214 58.2061 13.2303C57.8581 14.1643 57.6226 15.282 57.4077 16.2692C57.3719 16.4263 57.2798 16.5937 57.249 16.7487C56.9471 18.3035 56.8038 19.8363 56.768 21.3869C56.7291 23.0451 56.9164 24.6899 57.0853 26.3445C57.1058 26.498 57.0699 26.6715 57.0853 26.824C57.116 26.9893 57.2183 27.1393 57.249 27.3041C57.6738 30.8194 58.2317 34.3512 58.8458 37.8594C58.8867 38.1291 58.9686 38.3896 59.0096 38.6593C59.3576 40.7315 59.6646 42.8226 59.8079 44.8963C60.0177 46.7627 60.2327 48.6282 60.4476 50.4936C58.9174 48.5739 57.3361 46.6558 55.8084 44.7361C49.6364 37.6593 45.6922 28.5359 37.7361 23.1459C33.5381 20.4074 27.2043 18.0133 23.0226 22.0267C21.8691 23.0318 21.1772 24.5318 20.9438 26.0246C20.3747 33.407 25.5508 39.7494 31.0196 44.0964C38.557 49.3144 45.75 55.0361 52.9297 60.728C47.9281 60.1548 42.8784 59.5151 37.8963 58.8089C37.6809 58.773 37.4721 58.6912 37.2566 58.6502C36.7837 58.5837 36.2899 58.5581 35.817 58.4916C32.8333 57.9389 29.8517 57.3861 26.8609 57.0484C26.7084 57.033 26.5349 57.0688 26.3814 57.0484C23.1803 56.7219 20.0037 56.5924 16.7856 57.2121C16.5835 57.2531 16.3517 57.3196 16.1459 57.3708C15.2641 57.5704 14.2667 57.8672 13.4269 58.1692C12.9688 58.3432 12.5952 58.6042 12.1474 58.8089C11.4253 59.1415 10.7355 59.4998 10.0686 59.9297C9.70699 60.1651 9.28079 60.3033 8.94911 60.5694C8.8315 60.6615 8.74445 60.7946 8.62925 60.8867C8.23022 61.2347 7.84521 61.6134 7.50974 62.0075C7.29751 62.2275 7.07074 62.4118 6.87002 62.6472C6.42478 63.2613 6.1321 63.9931 5.91045 64.725C5.89525 64.7762 5.92474 64.8376 5.91045 64.8887C5.72062 65.5745 5.54181 66.2552 5.59059 66.9665C5.6055 67.6933 5.72073 68.4098 5.91045 69.0444C5.92474 69.0955 5.89493 69.1518 5.91045 69.2081C6.09698 69.7864 6.39945 70.2931 6.7101 70.8049C6.79802 70.9481 6.77228 71.1529 6.87002 71.2859C7.07074 71.5213 7.29751 71.7056 7.50974 71.9256C7.84521 72.3197 8.23022 72.6984 8.62925 73.0464C8.74445 73.1385 8.8315 73.2716 8.94911 73.3637C9.28079 73.6298 9.70699 73.768 10.0686 74.0034C10.3922 74.2133 10.6908 74.4589 11.0282 74.6432C11.8219 75.0782 12.5824 75.4466 13.4269 75.7639C14.2667 76.0659 15.2641 76.3627 16.1459 76.5623C16.3517 76.6135 16.5835 76.68 16.7856 76.721C23.1695 77.9492 29.4822 76.6186 35.817 75.4415C36.2899 75.375 36.7837 75.3494 37.2566 75.2829C39.8129 74.8223 42.3754 74.3361 44.9332 74.1621C47.6011 73.8601 50.2603 73.5121 52.9297 73.2051C45.75 78.896 38.557 84.6176 31.0196 89.8377C25.5508 94.1827 20.3747 100.529 20.9438 107.908C21.1772 109.403 21.8691 110.902 23.0226 111.905C27.2043 115.918 33.5381 113.528 37.7361 110.785C45.6922 105.396 49.6364 96.2758 55.8084 89.198C57.3361 87.2789 58.9174 85.3597 60.4476 83.4405C60.2327 85.3034 60.0177 87.1714 59.8079 89.0342C59.5367 91.1069 59.3064 93.2103 59.0096 95.2728C58.3698 99.0497 57.7045 102.847 57.249 106.629C57.2183 106.793 57.116 106.946 57.0853 107.11C57.0699 107.264 57.1058 107.433 57.0853 107.591C56.7588 110.79 56.6293 113.968 57.249 117.182C57.2798 117.34 57.3719 117.509 57.4077 117.663C57.6226 118.651 57.8581 119.766 58.2061 120.703C58.4927 121.455 58.9481 122.074 59.3269 122.781C59.5316 123.164 59.7312 123.538 59.9666 123.901C60.202 124.265 60.3402 124.69 60.6063 125.022C60.6984 125.14 60.8315 125.227 60.9236 125.339C61.2716 125.739 61.6503 126.122 62.0444 126.46C62.2644 126.67 62.4487 126.9 62.6841 127.1C63.2982 127.545 64.0301 127.837 64.7619 128.062C65.4426 128.277 66.2256 128.364 67.0035 128.379C67.7148 128.431 68.3955 128.251 69.0813 128.062C69.721 127.868 70.289 127.596 70.8418 127.259C70.9851 127.172 71.1898 127.197 71.3228 127.1C71.9677 126.547 72.5613 125.974 73.0833 125.339C73.1755 125.232 73.3085 125.135 73.4006 125.022C73.6668 124.679 73.8101 124.265 74.0404 123.901C74.4754 123.231 74.8234 122.555 75.1611 121.824C75.3403 121.43 75.6473 121.107 75.8009 120.703C76.1796 119.7 76.374 118.64 76.5992 117.663C76.635 117.494 76.7272 117.356 76.7579 117.182C78.1192 110.109 76.3945 103.098 75.1611 96.0762C74.8131 93.7426 74.5061 91.373 74.199 89.0342C73.9892 87.1714 73.7742 85.3034 73.5593 83.4405C75.0895 85.3597 76.6709 87.2789 78.2011 89.198C84.3731 96.2758 88.3137 105.396 96.2718 110.785C100.468 113.528 106.804 115.918 110.985 111.905C112.137 110.902 112.828 109.403 113.063 107.908C113.631 100.529 108.457 94.1827 102.986 89.8377C95.4479 84.6176 88.2574 78.896 81.0772 73.2051C83.7487 73.5121 86.4048 73.8601 89.0712 74.1621C91.4151 74.3259 93.7692 74.7097 96.1132 75.1242C96.7989 75.2215 97.5052 75.3392 98.191 75.4415C101.011 75.9635 103.841 76.3832 106.666 76.721C106.83 76.7517 106.983 76.854 107.147 76.8847C107.306 76.9001 107.469 76.8643 107.628 76.8847C109.281 77.0536 110.924 77.243 112.582 77.202C114.133 77.1662 115.668 77.0229 117.219 76.721C117.423 76.68 117.654 76.6135 117.864 76.5623C118.913 76.3269 120.074 75.9942 121.057 75.6053C122.101 75.1856 123.007 74.6124 123.938 74.0034C124.138 73.8755 124.384 73.8192 124.578 73.681C124.849 73.4865 125.126 73.2614 125.376 73.0464C125.637 72.8315 125.929 72.637 126.175 72.4016C126.313 72.2634 126.374 72.0689 126.497 71.9256C126.707 71.7056 126.937 71.5213 127.137 71.2859C127.234 71.1529 127.209 70.9481 127.296 70.8049C127.608 70.2931 127.91 69.7864 128.099 69.2081C128.114 69.1518 128.084 69.0955 128.099 69.0444C128.288 68.4098 128.401 67.6933 128.416 66.9665C128.468 66.2552 128.288 65.5745 128.099 64.8887C127.905 64.249 127.633 63.681 127.296 63.1282C127.209 62.9849 127.234 62.7802 127.137 62.6472C126.937 62.4118 126.707 62.2275 126.497 62.0075C126.124 61.6287 125.781 61.2193 125.376 60.8867C125.269 60.7946 125.172 60.6615 125.059 60.5694C124.906 60.4517 124.737 60.3595 124.578 60.2521C124.071 59.8785 123.534 59.597 122.981 59.2899C122.935 59.2643 122.864 59.3104 122.818 59.2899C122.495 59.1159 122.193 58.9624 121.861 58.8089C121.574 58.6809 121.349 58.4455 121.057 58.3278C120.898 58.2664 120.74 58.2306 120.581 58.1692C119.527 57.7853 118.34 57.4271 117.219 57.2121C115.668 56.9102 114.133 56.7669 112.582 56.7311C110.924 56.6922 109.281 56.8795 107.628 57.0484C107.469 57.0688 107.306 57.033 107.147 57.0484C106.983 57.0791 106.83 57.1814 106.666 57.2121C103.841 57.5499 101.011 57.9696 98.191 58.4916C97.5001 58.6195 96.7989 58.6912 96.1132 58.8089C91.1285 59.5151 86.0773 60.1548 81.0772 60.728C88.2574 55.0356 95.4479 49.3144 102.986 44.0964C108.457 39.7494 113.631 33.407 113.063 26.0246C112.828 24.5318 112.137 23.0318 110.985 22.0267C106.804 18.0133 100.468 20.4074 96.2718 23.1459C88.3137 28.5359 84.3731 37.6593 78.2011 44.7361C76.6709 46.6563 75.0895 48.5739 73.5593 50.4936C73.7742 48.6282 73.9892 46.7627 74.199 44.8963C74.5061 42.5575 74.8131 40.19 75.1611 37.8594C75.7753 34.3512 76.3331 30.8194 76.7579 27.3041C76.7988 26.9822 76.8858 26.6664 76.9216 26.3445C77.0905 24.6899 77.2799 23.0451 77.2389 21.3869C77.2031 19.8363 77.0598 18.3035 76.7579 16.7487C76.7272 16.5778 76.635 16.4391 76.5992 16.2692C76.374 15.2912 76.1796 14.2323 75.8009 13.2303C75.6473 12.8239 75.3403 12.5036 75.1611 12.1105C74.8234 11.3756 74.4754 10.7006 74.0404 10.0317C73.8101 9.67039 73.6668 9.25421 73.4006 8.91219C73.3085 8.79791 73.1755 8.70247 73.0833 8.59234C72.7507 8.18849 72.3413 7.84428 71.9625 7.47283C71.7425 7.2606 71.5582 7.03383 71.3228 6.83311C71.1898 6.73536 70.9851 6.76111 70.8418 6.67318C70.33 6.36254 69.8233 6.06008 69.245 5.87354C69.1887 5.85802 69.1324 5.88783 69.0813 5.87354C68.4467 5.68382 67.7302 5.56858 67.0035 5.55368Z" fill="#E74C3C"/>
<path d="M89.3333 67.0002C89.3333 72.9234 86.9804 78.604 82.792 82.7923C78.6037 86.9806 72.9232 89.3336 67 89.3336C61.0768 89.3336 55.3962 86.9806 51.2079 82.7923C47.0196 78.604 44.6667 72.9234 44.6667 67.0002C44.6667 61.0771 47.0196 55.3965 51.2079 51.2082C55.3962 47.0199 61.0768 44.6669 67 44.6669C72.9232 44.6669 78.6037 47.0199 82.792 51.2082C86.9804 55.3965 89.3333 61.0771 89.3333 67.0002Z" fill="#C0392B"/>
<path d="M78.1667 66.9998C78.1667 69.9614 76.9902 72.8017 74.896 74.8958C72.8019 76.99 69.9616 78.1665 67 78.1665C64.0384 78.1665 61.1981 76.99 59.104 74.8958C57.0098 72.8017 55.8333 69.9614 55.8333 66.9998C55.8333 64.0382 57.0098 61.1979 59.104 59.1038C61.1981 57.0096 64.0384 55.8331 67 55.8331C69.9616 55.8331 72.8019 57.0096 74.896 59.1038C76.9902 61.1979 78.1667 64.0382 78.1667 66.9998Z" fill="#E67E22"/>
</svg>
