<svg width="198" height="198" viewBox="0 0 198 198" fill="none" xmlns="http://www.w3.org/2000/svg">
<path d="M147.773 99C147.773 125.94 125.934 147.773 99 147.773C72.0598 147.773 50.2268 125.94 50.2268 99C50.2268 72.0597 72.0598 50.2217 99 50.2217C125.934 50.2217 147.773 72.0597 147.773 99Z" fill="#FFDB7D"/>
<path d="M99 151.324C70.1494 151.324 46.6764 127.851 46.6764 99C46.6764 70.1461 70.1494 46.6712 99 46.6712C127.851 46.6712 151.324 70.1461 151.324 99C151.324 127.851 127.851 151.324 99 151.324ZM99 53.7722C74.0634 53.7722 53.7739 74.0616 53.7739 99C53.7739 123.937 74.0634 144.226 99 144.226C123.937 144.226 144.226 123.937 144.226 99C144.226 74.0616 123.937 53.7722 99 53.7722Z" fill="#333333"/>
<path d="M99 39.4253C97.2365 39.4253 95.803 37.9951 95.803 36.2298V29.6223C95.803 27.857 97.2365 26.4268 99 26.4268C100.764 26.4268 102.197 27.857 102.197 29.6223V36.2298C102.197 37.9951 100.764 39.4253 99 39.4253Z" fill="#333333"/>
<path d="M99 22.908C97.2365 22.908 95.803 21.4778 95.803 19.7143V3.19368C95.803 1.43019 97.2365 0 99 0C100.764 0 102.197 1.43019 102.197 3.19368V19.7143C102.197 21.4778 100.764 22.908 99 22.908Z" fill="#333333"/>
<path d="M99 171.57C97.2365 171.57 95.803 170.14 95.803 168.376V161.768C95.803 160.005 97.2365 158.575 99 158.575C100.764 158.575 102.197 160.005 102.197 161.768V168.376C102.197 170.14 100.764 171.57 99 171.57Z" fill="#333333"/>
<path d="M99 198C97.2365 198 95.803 196.57 95.803 194.806V178.284C95.803 176.52 97.2365 175.09 99 175.09C100.764 175.09 102.197 176.52 102.197 178.284V194.806C102.197 196.57 100.764 198 99 198Z" fill="#333333"/>
<path d="M168.383 102.194H161.775C160.008 102.194 158.578 100.765 158.578 99C158.578 97.2347 160.008 95.8062 161.775 95.8062H168.383C170.146 95.8062 171.576 97.2347 171.576 99C171.576 100.765 170.146 102.194 168.383 102.194Z" fill="#333333"/>
<path d="M194.806 102.194H178.287C176.52 102.194 175.09 100.765 175.09 99C175.09 97.2347 176.52 95.8062 178.287 95.8062H194.806C196.57 95.8062 198 97.2347 198 99C198 100.765 196.57 102.194 194.806 102.194Z" fill="#333333"/>
<path d="M36.2249 102.194H29.624C27.8604 102.194 26.4303 100.765 26.4303 99C26.4303 97.2347 27.8604 95.8062 29.624 95.8062H36.2249C37.9919 95.8062 39.422 97.2347 39.422 99C39.422 100.765 37.9919 102.194 36.2249 102.194Z" fill="#333333"/>
<path d="M19.7127 102.194H3.19378C1.43029 102.194 0 100.765 0 99C0 97.2347 1.43029 95.8062 3.19378 95.8062H19.7127C21.4796 95.8062 22.9098 97.2347 22.9098 99C22.9098 100.765 21.4796 102.194 19.7127 102.194Z" fill="#333333"/>
<path d="M143.386 57.8094C142.566 57.8094 141.752 57.4993 141.129 56.876C139.882 55.6308 139.879 53.6072 141.126 52.357L145.793 47.6814C147.04 46.4295 149.06 46.4312 150.31 47.6764C151.557 48.9215 151.56 50.9451 150.314 52.1936L145.646 56.8709C145.023 57.4977 144.203 57.8094 143.386 57.8094Z" fill="#333333"/>
<path d="M155.068 46.1295C154.251 46.1295 153.434 45.8178 152.807 45.1927C151.56 43.9475 151.56 41.9223 152.807 40.6754L164.492 28.9922C165.739 27.7454 167.763 27.7454 169.013 28.9922C170.26 30.239 170.26 32.2643 169.013 33.5095L157.328 45.1927C156.705 45.8178 155.888 46.1295 155.068 46.1295Z" fill="#333333"/>
<path d="M49.9401 151.257C49.1233 151.257 48.3099 150.947 47.6832 150.324C46.4363 149.073 46.433 147.053 47.6797 145.803L52.3538 141.126C53.6006 139.879 55.6242 139.879 56.871 141.126C58.1179 142.373 58.1212 144.396 56.8744 145.646L52.2004 150.32C51.577 150.947 50.7602 151.257 49.9401 151.257Z" fill="#333333"/>
<path d="M31.2542 169.943C30.4374 169.943 29.6173 169.629 28.9972 169.009C27.7504 167.763 27.7471 165.736 28.9939 164.489L40.6722 152.807C41.919 151.56 43.946 151.56 45.1894 152.807C46.4363 154.054 46.4396 156.074 45.1928 157.324L33.5145 169.009C32.8912 169.629 32.0743 169.943 31.2542 169.943Z" fill="#333333"/>
<path d="M148.053 151.257C147.233 151.257 146.416 150.947 145.793 150.32L141.126 145.643C139.879 144.393 139.882 142.369 141.129 141.126C142.379 139.875 144.403 139.879 145.646 141.129L150.314 145.806C151.56 147.053 151.557 149.08 150.31 150.324C149.684 150.947 148.867 151.257 148.053 151.257Z" fill="#333333"/>
<path d="M166.752 169.943C165.932 169.943 165.116 169.629 164.492 169.009L152.807 157.324C151.56 156.078 151.56 154.054 152.807 152.807C154.057 151.56 156.081 151.56 157.328 152.807L169.013 164.489C170.26 165.736 170.26 167.763 169.013 169.009C168.389 169.629 167.569 169.943 166.752 169.943Z" fill="#333333"/>
<path d="M54.6141 57.8094C53.7973 57.8094 52.9771 57.4977 52.3538 56.8726L47.6797 52.197C46.433 50.9485 46.4363 48.9249 47.6832 47.6764C48.9333 46.4329 50.9535 46.4312 52.2004 47.6797L56.8744 52.3554C58.1212 53.6038 58.1179 55.6275 56.871 56.8743C56.2476 57.4977 55.4341 57.8094 54.6141 57.8094Z" fill="#333333"/>
<path d="M42.9325 46.1295C42.1123 46.1295 41.2956 45.8178 40.6722 45.1927L28.9939 33.5095C27.7471 32.2627 27.7504 30.239 28.9972 28.9905C30.2408 27.7471 32.2677 27.7453 33.5145 28.9922L45.1928 40.6754C46.4396 41.9239 46.4363 43.9475 45.1894 45.1944C44.5661 45.8178 43.7492 46.1295 42.9325 46.1295Z" fill="#333333"/>
<path d="M123.527 44.4192C123.113 44.4192 122.69 44.3376 122.28 44.1642C120.656 43.4758 119.899 41.6006 120.583 39.9753L123.166 33.8912C123.853 32.2659 125.734 31.5109 127.354 32.196C128.977 32.8844 129.738 34.7597 129.051 36.3849L126.467 42.469C125.954 43.6875 124.77 44.4192 123.527 44.4192Z" fill="#333333"/>
<path d="M129.978 29.2056C129.557 29.2056 129.134 29.1222 128.727 28.9489C127.1 28.2604 126.347 26.3835 127.037 24.7599L133.498 9.55463C134.188 7.92774 136.082 7.17928 137.685 7.86436C139.312 8.55442 140.069 10.4297 139.379 12.0549L132.914 27.2603C132.398 28.4771 131.218 29.2056 129.978 29.2056Z" fill="#333333"/>
<path d="M71.893 166.059C71.4764 166.059 71.053 165.976 70.6462 165.802C69.0227 165.116 68.2626 163.242 68.9493 161.615L71.533 155.531C72.2197 153.904 74.0901 153.154 75.7202 153.834C77.3438 154.524 78.1039 156.401 77.4172 158.025L74.8334 164.109C74.3201 165.329 73.1332 166.059 71.893 166.059Z" fill="#333333"/>
<path d="M61.5617 190.389C61.1416 190.389 60.7182 190.306 60.3148 190.132C58.6879 189.445 57.9311 187.569 58.6213 185.945L65.0788 170.736C65.7689 169.109 67.6591 168.363 69.266 169.043C70.8896 169.73 71.6464 171.606 70.9563 173.23L64.502 188.439C63.9853 189.659 62.8018 190.389 61.5617 190.389Z" fill="#333333"/>
<path d="M162.862 129.304C162.442 129.304 162.019 129.221 161.615 129.051L155.531 126.464C153.904 125.777 153.147 123.9 153.838 122.276C154.527 120.65 156.418 119.903 158.025 120.583L164.109 123.163C165.736 123.857 166.492 125.73 165.802 127.357C165.286 128.571 164.102 129.304 162.862 129.304Z" fill="#333333"/>
<path d="M187.192 139.632C186.772 139.632 186.348 139.552 185.945 139.379L170.74 132.918C169.113 132.231 168.356 130.354 169.046 128.731C169.74 127.104 171.633 126.36 173.233 127.037L188.439 133.498C190.066 134.185 190.822 136.065 190.132 137.689C189.616 138.905 188.432 139.632 187.192 139.632Z" fill="#333333"/>
<path d="M41.2189 77.6687C40.7988 77.6687 40.3755 77.5854 39.9721 77.4137L33.8913 74.8317C32.2644 74.1416 31.5076 72.263 32.1977 70.6394C32.8877 69.0143 34.7848 68.2658 36.3849 68.9475L42.4657 71.5313C44.0926 72.2197 44.8494 74.0983 44.1593 75.7218C43.6426 76.937 42.459 77.6687 41.2189 77.6687Z" fill="#333333"/>
<path d="M26.0135 71.2163C25.5935 71.2163 25.17 71.1329 24.7667 70.9629L9.56134 64.502C7.93443 63.8136 7.17766 61.9367 7.86782 60.3115C8.55778 58.6862 10.4515 57.9395 12.055 58.6196L27.2604 65.0804C28.8873 65.7688 29.644 67.6457 28.9539 69.271C28.4372 70.4861 27.2537 71.2163 26.0135 71.2163Z" fill="#333333"/>
<path d="M157.198 78.1505C155.934 78.1505 154.738 77.3954 154.234 76.1502C153.574 74.5133 154.364 72.6531 156.001 71.9913L162.132 69.516C163.762 68.8626 165.629 69.646 166.293 71.2829C166.949 72.9197 166.159 74.78 164.522 75.4418L158.395 77.9171C158.001 78.0738 157.595 78.1505 157.198 78.1505Z" fill="#333333"/>
<path d="M172.507 71.963C171.246 71.963 170.046 71.2062 169.543 69.9627C168.883 68.3242 169.676 66.4622 171.31 65.8038L186.635 59.6213C188.265 58.9645 190.132 59.7514 190.796 61.3882C191.453 63.0268 190.662 64.8887 189.025 65.5471L173.703 71.728C173.31 71.8863 172.907 71.963 172.507 71.963Z" fill="#333333"/>
<path d="M34.678 127.657C33.4145 127.657 32.2177 126.9 31.7176 125.657C31.0543 124.023 31.8444 122.156 33.4812 121.496L39.6053 119.023C41.239 118.363 43.1025 119.149 43.7626 120.786C44.4259 122.423 43.6358 124.287 41.999 124.947L35.8715 127.424C35.4814 127.58 35.0748 127.657 34.678 127.657Z" fill="#333333"/>
<path d="M10.168 137.552C8.90459 137.552 7.70441 136.795 7.201 135.551C6.54425 133.915 7.33435 132.051 8.9713 131.391L24.2967 125.207C25.9335 124.55 27.7938 125.337 28.4571 126.974C29.1172 128.611 28.3272 130.471 26.6903 131.131L11.3615 137.318C10.9715 137.475 10.5648 137.552 10.168 137.552Z" fill="#333333"/>
<path d="M124.984 165.992C123.717 165.992 122.523 165.236 122.02 163.989L119.549 157.861C118.889 156.224 119.679 154.364 121.316 153.704C122.95 153.037 124.813 153.834 125.477 155.474L127.947 161.602C128.607 163.239 127.817 165.102 126.18 165.759C125.787 165.919 125.384 165.992 124.984 165.992Z" fill="#333333"/>
<path d="M134.892 190.496C133.631 190.496 132.435 189.739 131.931 188.499L125.74 173.183C125.077 171.543 125.867 169.683 127.504 169.023C129.137 168.363 130.998 169.153 131.661 170.786L137.852 186.102C138.515 187.739 137.725 189.599 136.088 190.262C135.695 190.419 135.291 190.496 134.892 190.496Z" fill="#333333"/>
<path d="M75.4836 43.4658C74.2234 43.4658 73.0232 42.7091 72.5198 41.4655L70.0495 35.3464C69.3894 33.7111 70.1795 31.8476 71.8164 31.1875C73.4466 30.5324 75.3168 31.3175 75.9769 32.9544L78.4472 39.0719C79.1073 40.7071 78.3173 42.5707 76.6804 43.2307C76.2903 43.3892 75.8836 43.4658 75.4836 43.4658Z" fill="#333333"/>
<path d="M69.2993 28.1521C68.0392 28.1521 66.8391 27.397 66.3357 26.1519L60.1482 10.8281C59.4881 9.1929 60.2782 7.33099 61.915 6.67089C63.5486 6.01241 65.4121 6.79753 66.0756 8.43611L72.2631 23.7598C72.9232 25.3967 72.1331 27.257 70.4962 27.9187C70.1028 28.0754 69.6995 28.1521 69.2993 28.1521Z" fill="#333333"/>
</svg>
