<svg width="430" height="408" viewBox="0 0 430 408" fill="none" xmlns="http://www.w3.org/2000/svg">
<path d="M155.563 327.834C176.732 321.187 188.954 338.843 216.797 317.791C244.64 296.739 249.053 259.731 245.319 248.522C237.849 219.323 218.153 210.492 216.833 191.76C215.477 172.801 235.475 165.675 226.17 137.072C214.211 100.313 196.563 109.17 193.846 105.096C191.129 101.022 200.773 92.8882 184.88 61.0932C173.676 38.6847 166.206 44.8158 158.737 36.6455C151.267 28.4752 156.702 24.2747 148.889 19.0117C137.346 11.2031 140.402 20.7073 121.724 14.9424C105.767 9.97326 95.567 -4.42767 79.6242 1.34174C42.4712 14.7796 54.426 40.9952 46.9565 49.1429C39.487 57.2906 27.3378 55.6674 20.5465 63.1595C13.7553 70.6516 6.98208 91.0028 6.98208 97.794C6.98208 104.585 8.33853 121.563 6.98208 125.637C5.62563 129.711 -4.83255 124.688 -12.9848 132.836C-21.137 140.983 -15.4354 146.282 -22.8959 157.148C-30.3563 168.013 -48.8492 171.114 -48.9984 198.971C-49.1793 233.267 -33.8921 235.867 -36.9306 249.264C-40.3488 264.329 -52.801 287.244 -39.8967 311.023C-26.9923 334.801 -5.26209 351.074 21.2202 350.396C47.7026 349.718 38.854 341.565 55.1766 341.565C71.4991 341.565 88.4502 352.417 118.333 346.317C148.215 340.218 142.446 331.962 155.563 327.834Z" fill="#00757F"/>
<path d="M159.32 244.457C161.725 244.457 166.789 245.136 167.459 253.74C167.684 256.211 167.388 258.702 166.588 261.052C165.789 263.401 164.505 265.556 162.82 267.377C162.82 267.377 158.633 262.792 157.728 258.266C156.358 251.163 159.772 247.514 159.32 244.457ZM208.152 282.203C206.909 280.146 204.865 275.461 211.873 270.447C213.871 268.974 216.156 267.938 218.58 267.405C221.004 266.872 223.513 266.855 225.944 267.354C225.944 267.354 224.19 273.309 220.785 276.429C215.418 281.262 210.535 280.231 208.152 282.203ZM47.3454 239.244C49.6061 240.121 54.0553 242.599 51.5504 250.855C50.8597 253.239 49.6756 255.451 48.0749 257.348C46.4742 259.245 44.4926 260.784 42.2587 261.865C42.2587 261.865 40.0296 256.069 40.8345 251.525C42.1592 244.417 46.6536 242.255 47.3454 239.244ZM17.1283 213.11C19.5021 212.717 24.6068 212.558 26.6822 220.937C27.308 223.338 27.4221 225.844 27.017 228.292C26.612 230.74 25.6969 233.076 24.331 235.148C24.331 235.148 19.4524 231.309 17.8156 227.009C15.3197 220.222 18.0733 216.053 17.1283 213.11ZM-20.4497 292.792C-18.076 292.399 -12.9712 292.241 -10.8958 300.619C-10.2701 303.02 -10.156 305.526 -10.561 307.974C-10.9661 310.422 -11.8812 312.758 -13.247 314.83C-13.247 314.83 -18.1257 310.991 -19.7625 306.691C-22.2583 299.886 -19.5048 295.731 -20.4497 292.792ZM77.6755 165.544C80.0674 165.797 85.032 167.004 84.8014 175.631C84.7658 178.113 84.2089 180.56 83.1667 182.813C82.1244 185.065 80.6202 187.074 78.7516 188.708C78.7516 188.708 75.0711 183.707 74.6461 179.113C74.0448 171.901 77.8066 168.632 77.6755 165.544ZM39.3424 119.366C41.7342 119.619 46.6988 120.827 46.4682 129.454C46.4304 131.936 45.871 134.382 44.8264 136.634C43.7818 138.886 42.2754 140.893 40.4049 142.525C40.4049 142.525 36.7244 137.524 36.2994 132.931C35.7071 125.723 39.469 122.454 39.3424 119.366ZM84.9687 72.0397C87.3741 72.0849 92.4246 72.8626 92.94 81.476C93.1206 83.9544 92.7776 86.4429 91.9331 88.7799C91.0887 91.1169 89.7618 93.25 88.0387 95.0405C88.0387 95.0405 83.9378 90.3788 83.1194 85.8347C81.8986 78.6998 85.362 75.0827 84.9687 72.0397ZM110.488 96.9305C112.875 96.6275 117.985 96.6637 119.739 105.114C120.273 107.538 120.292 110.046 119.794 112.477C119.296 114.908 118.293 117.208 116.85 119.226C116.85 119.226 112.12 115.206 110.651 110.825C108.422 103.952 111.329 99.9056 110.488 96.9305ZM145.254 52.1633C147.645 52.4119 152.615 53.6101 152.402 62.2326C152.372 64.7147 151.82 67.1627 150.782 69.4178C149.745 71.6728 148.245 73.6845 146.379 75.3223C146.379 75.3223 142.685 70.3487 142.251 65.7368C141.636 58.5295 145.389 55.2469 145.254 52.1633ZM167.911 75.3223C170.303 75.571 175.272 76.7692 175.059 85.3916C175.029 87.8738 174.477 90.3218 173.44 92.5768C172.402 94.8319 170.902 96.8436 169.037 98.4813C169.037 98.4813 165.343 93.5077 164.909 88.8958C164.294 81.6885 168.024 78.4059 167.911 75.3223ZM183.139 116.472C185.54 116.31 190.636 116.649 191.888 125.19C192.279 127.64 192.149 130.146 191.509 132.543C190.869 134.941 189.732 137.177 188.172 139.107C188.172 139.107 183.686 134.811 182.479 130.358C180.652 123.359 183.795 119.488 183.139 116.472ZM155.291 127.586C157.425 126.474 162.232 124.738 166.808 132.053C168.149 134.141 169.037 136.487 169.413 138.94C169.789 141.393 169.645 143.898 168.991 146.292C168.991 146.292 163.159 144.162 160.265 140.563C155.78 134.893 157.104 130.091 155.291 127.586ZM174.422 175.31C176.456 175.442 180.702 176.292 180.811 183.603C180.87 185.709 180.485 187.804 179.681 189.752C178.877 191.699 177.672 193.456 176.144 194.907C176.144 194.907 172.853 190.801 172.333 186.926C171.569 180.822 174.639 177.919 174.422 175.31ZM200.429 139.69C202.315 138.922 206.506 137.832 209.793 144.365C210.764 146.235 211.33 148.289 211.455 150.392C211.58 152.496 211.26 154.602 210.517 156.573C210.517 156.573 205.765 154.313 203.603 151.057C200.267 145.894 201.763 141.942 200.429 139.69ZM89.2867 119.637C91.1721 118.869 95.3636 117.779 98.6507 124.313C99.6216 126.183 100.188 128.236 100.312 130.34C100.437 132.443 100.117 134.549 99.3741 136.521C99.3741 136.521 94.622 134.26 92.4608 131.004C89.1239 125.841 90.6205 121.889 89.2867 119.637ZM-15.4264 195.001C-17.3661 194.373 -21.2681 192.501 -19.5681 185.389C-19.1034 183.338 -18.2129 181.407 -16.9541 179.722C-15.6954 178.037 -14.0966 176.636 -12.2613 175.609C-12.2613 175.609 -10.0865 180.397 -10.5387 184.286C-11.2983 190.381 -14.9923 192.42 -15.4264 195.001ZM-22.2493 235.143C-23.7052 234.212 -26.5131 231.843 -23.6057 226.367C-22.7859 224.783 -21.6421 223.388 -20.2486 222.274C-18.855 221.16 -17.2429 220.352 -15.5168 219.901C-15.5168 219.901 -14.7527 224.301 -15.969 227.393C-17.8725 232.227 -21.3405 233.122 -22.2493 235.143ZM1.34833 243.639C-0.107592 242.708 -2.91543 240.338 -0.00811934 234.863C0.811754 233.278 1.95555 231.884 3.34906 230.77C4.74258 229.656 6.3547 228.848 8.08082 228.397C8.08082 228.397 8.84495 232.797 7.62867 235.889C5.72513 240.714 2.25714 241.613 1.34833 243.639ZM17.3453 125.755C16.2602 124.398 14.3566 121.265 18.8646 117.006C20.1466 115.764 21.6755 114.807 23.3518 114.194C25.0281 113.582 26.8144 113.329 28.5948 113.452C28.5948 113.452 27.9166 117.865 25.7915 120.411C22.4184 124.367 18.8465 124.127 17.3453 125.755ZM32.6189 93.0736C31.5338 91.7172 29.6302 88.5838 34.1381 84.3246C35.4202 83.0832 36.949 82.1252 38.6253 81.513C40.3017 80.9007 42.088 80.6478 43.8684 80.7707C43.8684 80.7707 43.1901 85.1837 41.065 87.7293C37.692 91.6946 34.1246 91.4414 32.6189 93.0736ZM68.0583 88.0684C66.3447 88.2854 62.6687 88.2583 61.4072 82.1904C61.0195 80.4488 61.0022 78.6451 61.3567 76.8963C61.7111 75.1476 62.4292 73.4929 63.4645 72.0397C63.4645 72.0397 66.8646 74.9289 67.9227 78.0759C69.5504 83.0179 67.4615 85.9342 68.0583 88.0684ZM70.0025 114.872C68.4019 115.527 64.8526 116.463 62.0493 110.929C61.2238 109.347 60.7401 107.61 60.6295 105.829C60.5189 104.049 60.7838 102.265 61.4072 100.593C61.4072 100.593 65.4449 102.496 67.2851 105.259C70.1246 109.622 68.8676 112.977 70.0025 114.872ZM89.4088 60.0487C87.7042 60.3336 84.0327 60.4466 82.5361 54.424C82.0853 52.6977 82.0025 50.8958 82.293 49.1354C82.5836 47.375 83.241 45.6954 84.2226 44.2054C84.2226 44.2054 87.7313 46.9635 88.9069 50.0834C90.7064 54.9485 88.7305 57.9327 89.4088 60.0487ZM127.566 50.7209C128.863 51.8603 131.278 54.632 127.566 59.6011C126.514 61.0432 125.172 62.2481 123.625 63.1377C122.078 64.0272 120.361 64.5815 118.586 64.7646C118.586 64.7646 118.5 60.3019 120.159 57.4263C122.795 52.9274 126.363 52.5837 127.566 50.7209ZM147.6 103.663C145.878 103.83 142.206 103.699 141.121 97.5951C140.786 95.8426 140.824 94.0393 141.231 92.3023C141.639 90.5652 142.407 88.9333 143.486 87.5122C143.486 87.5122 146.804 90.4964 147.768 93.675C149.237 98.6577 147.062 101.506 147.6 103.663ZM140.221 150.591C138.499 150.759 134.827 150.628 133.742 144.524C133.407 142.771 133.445 140.968 133.852 139.231C134.26 137.494 135.028 135.862 136.107 134.441C136.107 134.441 139.425 137.425 140.388 140.603C141.858 145.582 139.683 148.43 140.221 150.591Z" fill="#5CB087"/>
<path d="M100.328 274.584C100.328 274.584 111.216 245.837 109.796 228.397C108.376 210.958 105.125 165.549 105.125 165.549H117.428L123.306 224.066L135.514 165.549L144.557 171.119C144.557 171.119 134.61 210.044 130.514 239.249C126.417 268.453 122.479 297.883 122.42 305.579C122.42 305.579 135.641 299.195 148.242 292.652C160.844 286.109 175.34 267.291 180.77 266.965C186.2 266.64 189.813 275.244 189.813 277.053C189.813 278.861 163.683 301.048 155.242 305.574C146.8 310.1 136.387 311.904 128.691 321.852C120.996 331.799 114.322 350.848 114.969 374.405C115.615 397.962 116.972 405.192 116.972 405.192H79.6966C79.6966 405.192 79.8504 354.94 77.5851 334.114C75.3198 313.288 75.3243 296.423 72.1593 282.221C68.9943 268.019 54.3085 234.013 46.4818 224.079C38.6551 214.145 6.94593 186.23 1.068 165.544C-3.45349 156.551 3.78089 153.3 6.49378 156.551C9.20667 159.802 30.4893 202.806 48.5978 210.053C43.8548 191.493 23.2459 164.328 25.0545 160.706C26.8631 157.084 36.7696 154.828 40.6446 158.445C44.5195 162.062 41.3499 168.718 54.0282 185.312C66.7064 201.906 72.2678 206.983 82.8436 227.534C93.4193 248.084 100.328 274.584 100.328 274.584Z" fill="#005866"/>
<path d="M282.535 348.389C266.258 343.279 256.861 356.855 235.452 340.668C214.043 324.481 210.65 296.025 213.522 287.407C219.265 264.955 234.409 258.166 235.424 243.762C236.467 229.185 221.09 223.706 228.245 201.713C237.441 173.449 251.01 180.259 253.099 177.127C255.188 173.994 247.773 167.74 259.993 143.293C268.608 126.063 274.351 130.777 280.095 124.495C285.838 118.213 281.659 114.983 287.667 110.937C296.542 104.933 294.192 112.24 308.554 107.808C320.823 103.987 328.666 92.9141 340.924 97.3502C369.491 107.683 360.299 127.84 366.042 134.104C371.785 140.369 381.127 139.121 386.349 144.882C391.571 150.642 396.778 166.29 396.778 171.512C396.778 176.734 395.735 189.789 396.778 192.921C397.821 196.053 405.863 192.191 412.131 198.456C418.399 204.72 414.015 208.795 419.752 217.149C425.488 225.503 439.707 227.888 439.822 249.307C439.961 275.677 428.207 277.676 430.543 287.977C433.171 299.561 442.746 317.18 432.823 335.463C422.901 353.747 406.193 366.259 385.831 365.737C365.469 365.216 372.272 358.948 359.722 358.948C347.171 358.948 334.138 367.291 311.161 362.601C288.185 357.912 292.621 351.563 282.535 348.389Z" fill="#278882"/>
<path d="M279.646 284.281C277.797 284.281 273.903 284.803 273.388 291.419C273.215 293.319 273.443 295.234 274.057 297.041C274.672 298.847 275.659 300.504 276.955 301.904C276.955 301.904 280.175 298.379 280.87 294.899C281.923 289.437 279.298 286.632 279.646 284.281ZM242.099 313.304C243.055 311.722 244.627 308.12 239.238 304.265C237.702 303.132 235.945 302.335 234.081 301.926C232.217 301.516 230.288 301.503 228.419 301.887C228.419 301.887 229.768 306.465 232.386 308.864C236.512 312.581 240.267 311.788 242.099 313.304ZM365.743 280.273C364.005 280.947 360.584 282.853 362.51 289.201C363.041 291.034 363.951 292.735 365.182 294.193C366.413 295.651 367.937 296.835 369.654 297.666C369.654 297.666 371.368 293.209 370.749 289.715C369.731 284.25 366.275 282.588 365.743 280.273ZM388.977 260.178C387.152 259.876 383.227 259.754 381.631 266.196C381.15 268.043 381.062 269.97 381.374 271.852C381.685 273.734 382.389 275.53 383.439 277.123C383.439 277.123 387.19 274.172 388.449 270.865C390.368 265.647 388.25 262.442 388.977 260.178ZM417.871 321.446C416.046 321.143 412.121 321.022 410.525 327.464C410.044 329.31 409.956 331.237 410.267 333.119C410.579 335.002 411.282 336.798 412.333 338.391C412.333 338.391 416.084 335.439 417.342 332.133C419.261 326.901 417.144 323.706 417.871 321.446ZM342.422 223.605C340.583 223.8 336.766 224.728 336.943 231.361C336.971 233.27 337.399 235.151 338.2 236.883C339.002 238.615 340.158 240.159 341.595 241.415C341.595 241.415 344.425 237.57 344.752 234.038C345.214 228.493 342.322 225.98 342.422 223.605ZM371.897 188.099C370.058 188.294 366.24 189.222 366.418 195.855C366.447 197.764 366.877 199.645 367.68 201.376C368.483 203.108 369.641 204.651 371.08 205.906C371.08 205.906 373.91 202.061 374.236 198.529C374.692 192.987 371.799 190.473 371.897 188.099ZM336.815 151.71C334.965 151.744 331.082 152.342 330.686 158.965C330.547 160.871 330.81 162.784 331.46 164.581C332.109 166.378 333.129 168.018 334.454 169.395C334.454 169.395 337.607 165.811 338.237 162.317C339.175 156.831 336.512 154.049 336.815 151.71ZM317.193 170.848C315.357 170.615 311.429 170.643 310.08 177.141C309.669 179.004 309.655 180.933 310.037 182.802C310.42 184.671 311.192 186.439 312.301 187.991C312.301 187.991 315.938 184.9 317.068 181.532C318.782 176.247 316.546 173.136 317.193 170.848ZM290.462 136.427C288.623 136.618 284.802 137.539 284.965 144.169C284.989 146.078 285.413 147.96 286.211 149.694C287.008 151.428 288.162 152.974 289.596 154.234C289.596 154.234 292.436 150.409 292.77 146.863C293.243 141.322 290.357 138.798 290.462 136.427ZM273.041 154.234C271.202 154.425 267.381 155.346 267.544 161.976C267.567 163.884 267.992 165.767 268.79 167.501C269.587 169.235 270.741 170.781 272.175 172.041C272.175 172.041 275.015 168.216 275.349 164.67C275.822 159.129 272.954 156.605 273.041 154.234ZM261.332 185.874C259.486 185.749 255.567 186.009 254.604 192.577C254.304 194.461 254.404 196.387 254.896 198.231C255.388 200.074 256.263 201.794 257.462 203.278C257.462 203.278 260.911 199.975 261.839 196.55C263.244 191.169 260.827 188.193 261.332 185.874ZM282.744 194.419C281.103 193.564 277.407 192.229 273.889 197.854C272.857 199.459 272.175 201.263 271.886 203.149C271.596 205.035 271.707 206.961 272.21 208.802C272.21 208.802 276.695 207.164 278.92 204.397C282.368 200.037 281.35 196.345 282.744 194.419ZM268.034 231.114C266.47 231.215 263.205 231.869 263.122 237.49C263.076 239.11 263.372 240.721 263.99 242.218C264.609 243.716 265.535 245.066 266.71 246.182C266.71 246.182 269.241 243.025 269.641 240.046C270.228 235.352 267.868 233.12 268.034 231.114ZM248.037 203.726C246.587 203.135 243.365 202.297 240.837 207.321C240.091 208.759 239.655 210.338 239.56 211.955C239.464 213.572 239.71 215.192 240.281 216.708C240.281 216.708 243.935 214.969 245.597 212.466C248.162 208.496 247.012 205.457 248.037 203.726ZM333.495 188.307C332.045 187.716 328.822 186.879 326.295 191.902C325.548 193.34 325.113 194.919 325.017 196.536C324.921 198.154 325.167 199.773 325.738 201.289C325.738 201.289 329.392 199.551 331.054 197.048C333.62 193.077 332.469 190.039 333.495 188.307ZM414.008 246.255C415.5 245.772 418.5 244.332 417.193 238.864C416.836 237.287 416.151 235.802 415.183 234.507C414.215 233.211 412.986 232.134 411.575 231.344C411.575 231.344 409.902 235.026 410.25 238.015C410.834 242.702 413.675 244.27 414.008 246.255ZM419.254 277.12C420.374 276.404 422.533 274.582 420.297 270.372C419.667 269.153 418.788 268.081 417.716 267.225C416.645 266.368 415.405 265.747 414.078 265.4C414.078 265.4 413.49 268.783 414.425 271.161C415.889 274.877 418.556 275.566 419.254 277.12ZM401.11 283.652C402.23 282.936 404.389 281.114 402.153 276.904C401.523 275.686 400.643 274.614 399.572 273.757C398.5 272.901 397.261 272.279 395.934 271.933C395.934 271.933 395.346 275.315 396.281 277.693C397.745 281.403 400.411 282.095 401.11 283.652ZM388.81 193.011C389.645 191.968 391.108 189.559 387.642 186.284C386.656 185.33 385.481 184.593 384.192 184.122C382.903 183.652 381.529 183.457 380.16 183.552C380.16 183.552 380.682 186.945 382.316 188.902C384.909 191.944 387.656 191.76 388.81 193.011ZM377.066 167.883C377.901 166.84 379.364 164.43 375.898 161.156C374.912 160.201 373.737 159.464 372.448 158.994C371.159 158.523 369.786 158.328 368.417 158.423C368.417 158.423 368.938 161.816 370.572 163.773C373.166 166.822 375.909 166.628 377.066 167.883ZM349.817 164.034C351.135 164.201 353.961 164.18 354.931 159.515C355.229 158.175 355.242 156.789 354.97 155.444C354.697 154.099 354.145 152.827 353.349 151.71C353.349 151.71 350.735 153.931 349.921 156.351C348.67 160.151 350.276 162.393 349.817 164.034ZM348.322 184.643C349.553 185.147 352.282 185.867 354.437 181.612C355.072 180.395 355.444 179.06 355.529 177.69C355.614 176.321 355.41 174.95 354.931 173.664C354.931 173.664 351.827 175.128 350.412 177.252C348.228 180.607 349.195 183.186 348.322 184.643ZM333.401 142.49C334.711 142.709 337.534 142.796 338.685 138.165C339.032 136.838 339.095 135.452 338.872 134.099C338.649 132.745 338.143 131.454 337.388 130.308C337.388 130.308 334.691 132.429 333.787 134.828C332.403 138.568 333.922 140.863 333.401 142.49ZM304.062 135.318C303.064 136.194 301.208 138.325 304.062 142.146C304.87 143.254 305.903 144.181 307.092 144.865C308.282 145.549 309.602 145.975 310.966 146.116C310.966 146.116 311.033 142.685 309.757 140.473C307.73 137.014 304.987 136.75 304.062 135.318ZM288.657 176.025C289.982 176.153 292.805 176.053 293.639 171.359C293.897 170.012 293.868 168.625 293.554 167.29C293.241 165.954 292.651 164.699 291.821 163.606C291.821 163.606 289.269 165.901 288.529 168.345C287.399 172.176 289.071 174.366 288.657 176.025ZM294.331 212.108C295.656 212.237 298.479 212.136 299.313 207.442C299.57 206.095 299.541 204.708 299.228 203.373C298.915 202.037 298.324 200.782 297.495 199.69C297.495 199.69 294.943 201.984 294.202 204.428C293.073 208.256 294.745 210.446 294.331 212.108Z" fill="#5CB087"/>
<path d="M325.005 307.446C325.005 307.446 316.633 285.342 317.725 271.933C318.817 258.524 321.316 223.608 321.316 223.608H311.856L307.337 268.602L297.95 223.608L290.997 227.892C290.997 227.892 298.646 257.821 301.795 280.276C304.945 302.732 307.973 325.361 308.018 331.278C308.018 331.278 297.853 326.369 288.164 321.338C278.475 316.308 267.329 301.838 263.153 301.588C258.978 301.337 256.2 307.953 256.2 309.344C256.2 310.735 276.291 327.794 282.782 331.274C289.273 334.754 297.279 336.141 303.196 343.79C309.113 351.438 314.245 366.085 313.748 384.198C313.251 402.311 312.208 407.87 312.208 407.87H340.868C340.868 407.87 340.75 369.231 342.492 353.218C344.234 337.205 344.23 324.238 346.664 313.318C349.097 302.398 360.389 276.251 366.407 268.613C372.425 260.975 396.806 239.51 401.326 223.605C404.802 216.69 399.24 214.19 397.154 216.69C395.068 219.19 378.704 252.255 364.78 257.828C368.427 243.557 384.273 222.67 382.883 219.885C381.492 217.1 373.875 215.366 370.895 218.147C367.916 220.928 370.353 226.046 360.605 238.805C350.857 251.564 346.58 255.468 338.449 271.269C330.317 287.07 325.005 307.446 325.005 307.446Z" fill="#005866"/>
</svg>
